<ttFont>
          <CharString index="0">
            -106 callsubr
            endchar
          </CharString>
          <CharString index="1">
            hlineto
            -105 callgsubr
            return
          </CharString>
          <CharString index="2">
            -22 -115 -27 -116 -20 vvcurveto
            -24 25 -18 14 28 33 174 140 33 vhcurveto
            21 90 26 -94 callgsubr
          </CharString>
          <CharString index="3">
            -102 callgsubr
            endchar
          </CharString>
          <CharString index="4">
            -103 callgsubr
            0 1 vlineto
            return
          </CharString>
          <CharString index="5">
            -100 callsubr
            29 54 37 33 73 hvcurveto
            return
          </CharString>
          <CharString index="6">
            -88 callsubr
            1 -5 3 -6 vhcurveto
            1 -3 1 -3 2 -2 rrcurveto
            -75 38 160 -204 36 hhcurveto
            16 10 -17 callgsubr
            -13 18 -12 18 return
          </CharString>
          <CharString index="7">
            145 callgsubr
            0 1 vlineto
            return
          </CharString>
          <CharString index="8">
            -2 -49 -7 -37 1 -30 rrcurveto
            -15 1 13 -15 14 hhcurveto
            29 40 36 callgsubr
            93 26 121 7 53 -63 callgsubr
          </CharString>
          <CharString index="9">
            -23 -121 -29 -126 -21 -79 callgsubr
            return
          </CharString>
          <CharString index="10">
            rmoveto
            35 94 40 102 39 90 13 -69 12 -90 10 -95 -49 -9 -52 -11 -48 -12 rrcurveto
            324 22 rmoveto
            26 -31 1 -22 -1 vhcurveto
            -12 -1 -12 -1 -14 -2 rrcurveto
            172 -18 -35 169 -43 hhcurveto
            -34 -42 -28 -40 -17 hvcurveto
            -26 -65 -48 -113 -41 -103 -8 -21 -9 -22 -9 -21 rrcurveto
            -52 -18 -36 -18 -14 vvcurveto
            -29 25 -14 24 -1 vhcurveto
            -33 -76 -26 -59 -11 vvcurveto
            -32 34 -29 18 16 40 99 132 50 vhcurveto
            25 8 31 9 39 10 33 9 33 8 32 9 6 -65 5 -65 4 -60 rrcurveto
            -70 8 12 -24 23 hhcurveto
            20 10 35 91 2 hvcurveto
            1 50 -3 63 -5 67 rrcurveto
            50 15 35 15 15 vvcurveto
            endchar
          </CharString>
          <CharString index="11">
            4 hlineto
            -18 -53 -15 -56 -15 -46 rrcurveto
            30 -39 -40 22 -40 hhcurveto
            -44 -29 -29 -43 -72 87 -73 48 30 28 25 49 26 hvcurveto
            33 -28 36 -30 34 -20 rrcurveto
            -22 36 35 -8 37 hhcurveto
            30 34 11 21 14 -19 2 -34 -71 -65 56 54 -63 hvcurveto
            12 29 12 35 12 40 10 32 11 35 11 32 rrcurveto
            83 16 74 43 60 vvcurveto
            46 -36 25 -37 -56 -40 -54 -71 -30 vhcurveto
            -1 -10 -10 0 -11 hhcurveto
            -77 -45 65 callsubr
            51 13 -37 106 callsubr
            7 6 hvcurveto
            10 7 2 14 17 vvcurveto
            96 23 48 13 31 vhcurveto
            165 -107 callsubr
          </CharString>
          <CharString index="12">
            hlineto
            43 callgsubr
            7 18 14 12 336 callgsubr
            hvcurveto
            -52 -13 270 callgsubr
            -7 -8 -11 -3 hvcurveto
            -3 -5 -2 -5 -5 vvcurveto
            return
          </CharString>
          <CharString index="13">
            -107 callgsubr
            83 hlineto
            -10 -45 -9 -44 -9 -45 -61 -35 -77 -26 -81 -19 rrcurveto
            31 40 18 47 42 vvcurveto
            73 -37 64 -85 -69 -56 -59 -53 -24 22 -27 15 12 7 7 9 4 vhcurveto
            6 9 3 13 8 16 rrcurveto
            18 7 19 13 26 hhcurveto
            33 15 -26 -37 -51 -33 -49 -56 -36 hvcurveto
            4 -19 -20 2 -21 hhcurveto
            -47 -33 -9 -23 -22 36 -43 27 31 29 7 13 27 hvcurveto
            27 -11 16 -19 -30 vvcurveto
            -74 -103 -41 -112 -117 -64 46 96 42 8 15 -3 21 vhcurveto
            10 -1 -6 5 -13 hhcurveto
            -43 -23 -58 -52 -120 109 -76 154 165 128 73 108 34 -11 27 -19 21 hvcurveto
            69 11 74 18 66 23 -5 -21 rcurveline
            -29 -128 -29 -124 -33 vvcurveto
            -15 26 -21 14 33 35 299 callsubr
            20 89 31 126 6 38 rrcurveto
            return
          </CharString>
          <CharString index="14">
            -70 callsubr
            27 -74 callgsubr
            return
          </CharString>
          <CharString index="15">
            74 callsubr
            17 153 141 27 vhcurveto
            51 79 71 44 36 hhcurveto
            17 4 -21 -27 -102 -32 -87 -59 -9 hvcurveto
            -13 -5 -14 3 -14 vvcurveto
            -19 32 -33 24 85 51 159 119 70 -28 40 -66 -38 -66 -35 -40 -65 vhcurveto
            15 75 14 76 2 30 rrcurveto
            313 -104 callsubr
          </CharString>
          <CharString index="16">
            -41 -14 -13 -21 -20 14 -15 41 -77 callgsubr
            return
          </CharString>
          <CharString index="17">
            hlineto
            -97 callgsubr
            return
          </CharString>
          <CharString index="18">
            rmoveto
            7 67 2 66 49 vvcurveto
            8 233 vlineto
            -9 -52 -10 -50 -10 -53 -48 -7 -79 -15 -68 -10 rrcurveto
            -165 -226 rmoveto
            -26 -38 51 33 28 53 16 73 13 hvcurveto
            -78 -12 -20 -63 -30 hhcurveto
            return
          </CharString>
          <CharString index="19">
            -95 callsubr
            -3 return
          </CharString>
          <CharString index="20">
            -12 -41 -6 -41 -36 vvcurveto
            -68 11 -61 28 35 -18 78 94 16 vhcurveto
            5 28 7 28 9 25 rrcurveto
            86 15 77 43 62 316 callgsubr
            -58 -49 -57 -72 -33 vhcurveto
            -18 hlineto
            -77 -46 65 callsubr
            52 13 -37 106 callsubr
            7 6 hvcurveto
            10 7 2 14 17 vvcurveto
            96 23 48 13 31 vhcurveto
            139 -104 callsubr
          </CharString>
          <CharString index="21">
            rmoveto
            -86 callgsubr
            return
          </CharString>
          <CharString index="22">
            -73 37 -56 77 135 126 76 86 6 -1 6 -2 6 vhcurveto
            10 hlineto
            45 48 13 21 39 hvcurveto
            -1 vlineto
            -23 -121 -32 -119 -22 vvcurveto
            -21 32 -45 callsubr
            115 -106 callsubr
            endchar
          </CharString>
          <CharString index="23">
            rrcurveto
            23 22 24 15 22 hhcurveto
            20 15 -21 -23 14 hvcurveto
            -23 13 12 -20 17 hhcurveto
            15 7 15 20 46 -51 78 -52 -130 -111 -183 -132 -75 31 -53 79 return
          </CharString>
          <CharString index="24">
            -65 callsubr
            70 35 94 87 61 callsubr
            16 -41 23 -26 return
          </CharString>
          <CharString index="25">
            rmoveto
            -33 -79 -76 -26 -50 hhcurveto
            -21 144 callgsubr
            56 47 20 -96 -46 17 hvcurveto
            -278 412 27 callgsubr
            -15 -79 -15 -88 -16 -84 rrcurveto
            61 -17 -34 61 -1 callgsubr
            40 74 22 31 82 hvcurveto
            -13 -58 -10 -45 -13 376 callgsubr
            return
          </CharString>
          <CharString index="26">
            rmoveto
            -41 -14 -13 -21 -20 14 -15 41 -70 callgsubr
            return
          </CharString>
          <CharString index="27">
            -66 callsubr
            31 callgsubr
            return
          </CharString>
          <CharString index="28">
            -14 -73 -17 -71 -10 -48 rrcurveto
            26 -27 -35 20 -35 hhcurveto
            -51 -55 -48 -43 -45 hvcurveto
            -58 -58 -67 -75 -23 229 callsubr
            24 205 callgsubr
            40 39 33 34 hhcurveto
            31 31 -32 -25 23 hvcurveto
            9 -7 9 -6 9 -3 26 callgsubr
            99 -71 callsubr
          </CharString>
          <CharString index="29">
            -40 -14 -13 -21 -20 14 -15 40 hvcurveto
            return
          </CharString>
          <CharString index="30">
            -17 -76 -15 -64 -16 268 callgsubr
            36 30 134 121 27 vhcurveto
            61 80 72 54 42 hhcurveto
            22 10 -13 -22 hvcurveto
            -127 -124 -68 -35 vvcurveto
            -13 17 -10 14 38 122 137 103 58 -45 55 -61 -47 -57 -35 -44 -61 vhcurveto
            19 82 20 96 3 35 rrcurveto
            302 -71 callsubr
          </CharString>
          <CharString index="31">
            rmoveto
            -27 -9 27 36 89 69 136 63 40 41 -79 -103 14 hvcurveto
            -60 -52 -77 -46 -62 hhcurveto
            return
          </CharString>
          <CharString index="32">
            174 140 return
          </CharString>
          <CharString index="33">
            -32 callgsubr
            -20 -9 192 callsubr
            146 -71 callsubr
          </CharString>
          <CharString index="34">
            -36 -18 8 -27 hhcurveto
            -15 -8 -9 -15 -16 13 -14 21 -9 hvcurveto
            5 -6 4 -7 -7 -26 callgsubr
            8 -2 9 -4 9 vhcurveto
            return
          </CharString>
          <CharString index="35">
            -137 -154 -27 -89 -79 115 -129 80 81 33 87 82 33 -3 31 return
          </CharString>
          <CharString index="36">
            hlineto
            40 14 16 19 20 -14 14 -40 hvcurveto
            endchar
          </CharString>
          <CharString index="37">
            -75 callsubr
            32 vhcurveto
            21 90 return
          </CharString>
          <CharString index="38">
            69 -106 callgsubr
            return
          </CharString>
          <CharString index="39">
            vvcurveto
            -130 102 -92 135 48 32 14 20 14 -20 6 -35 2 vhcurveto
            -99 4 -86 46 114 vvcurveto
            75 48 49 88 70 29 -36 -60 -24 3 -20 15 31 12 41 35 72 -54 64 -109 -7 -6 0 -1 -6 vhcurveto
            -11 13 -5 14 16 vvcurveto
            33 30 16 69 vhcurveto
            38 24 -3 24 hhcurveto
            8 6 1 2 6 hvcurveto
            25 6 8 47 49 133 callsubr
            118 -104 callsubr
          </CharString>
          <CharString index="40">
            -73 callsubr
            8 hlineto
            return
          </CharString>
          <CharString index="41">
            -75 callsubr
            33 return
          </CharString>
          <CharString index="42">
            -10 -54 -10 -53 -10 -55 rrcurveto
            -31 -40 -56 -32 -62 -48 -20 19 -28 hhcurveto
            -15 -8 -7 -15 -20 17 -17 25 -11 hvcurveto
            3 -4 2 -5 -5 vvcurveto
            -61 -89 -52 -95 -30 -15 13 36 return
          </CharString>
          <CharString index="43">
            rmoveto
            -10 -55 -10 -54 -11 -56 rrcurveto
            29 -29 -44 22 -54 299 callgsubr
            56 -53 77 -6 hvcurveto
            -32 -63 -69 -17 -67 -56 callsubr
            178 -300 rmoveto
            111 callgsubr
            45 -50 -33 -20 -40 -22 -45 hvcurveto
            return
          </CharString>
          <CharString index="44">
            21 37 -80 callsubr
            return
          </CharString>
          <CharString index="45">
            rmoveto
            -82 72 -115 93 189 184 266 187 127 -80 125 -116 -142 -200 -256 -252 vhcurveto
            348 423 rmoveto
            47 51 -61 -118 -147 -173 -215 -102 -40 -40 47 77 196 177 221 80 hvcurveto
            return
          </CharString>
          <CharString index="46">
            rmoveto
            -18 -51 -23 -67 -74 hvcurveto
            60 -77 -13 64 -36 hhcurveto
            -18 -13 -16 -21 -55 129 -111 21 22 26 33 29 39 hvcurveto
            43 32 49 19 30 vvcurveto
            16 -10 10 -19 vhcurveto
            return
          </CharString>
          <CharString index="47">
            vvcurveto
            -82 80 -42 110 -2 vhcurveto
            -87 callsubr
          </CharString>
          <CharString index="48">
            42 20 58 29 48 vhcurveto
            36 -58 49 -65 43 -45 rrcurveto
            -23 -40 -45 -18 -49 hhcurveto
            -31 -12 23 38 hvcurveto
            return
          </CharString>
          <CharString index="49">
            645 -106 callgsubr
            return
          </CharString>
          <CharString index="50">
            hhcurveto
            71 70 47 71 57 hvcurveto
            -22 -114 -27 -108 -21 245 callsubr
            34 174 140 33 vhcurveto
            21 90 26 -94 callgsubr
          </CharString>
          <CharString index="51">
            hhcurveto
            -77 -42 44 47 -33 hvcurveto
            129 24 92 96 107 vvcurveto
            31 -7 29 -13 24 vhcurveto
            return
          </CharString>
          <CharString index="52">
            150 callgsubr
            -33 58 callsubr
            33 -27 12 return
          </CharString>
          <CharString index="53">
            -20 -73 -20 -125 -19 -82 rrcurveto
            98 -15 -50 104 -71 hhcurveto
            return
          </CharString>
          <CharString index="54">
            200 callsubr
            -9 -1 -8 hvcurveto
            -4 -16 -18 -3 -21 hhcurveto
            return
          </CharString>
          <CharString index="55">
            -1 -3 -1 -2 -3 vvcurveto
            -19 return
          </CharString>
          <CharString index="56">
            -107 callgsubr
            116 -71 callgsubr
            return
          </CharString>
          <CharString index="57">
            vvcurveto
            -91 95 -41 112 -4 vhcurveto
            -110 10 58 -120 45 hhcurveto
            14 11 6 14 23 -62 66 -9 122 hvcurveto
            110 12 92 58 82 vvcurveto
            57 -49 41 -55 -101 -53 -87 -98 -10 vhcurveto
            -70 5 -60 19 45 vvcurveto
            return
          </CharString>
          <CharString index="58">
            rmoveto
            6 5 0 1 5 hvcurveto
            -5 -14 -3 -15 -16 235 callsubr
            hhcurveto
            -48 -24 28 18 -22 193 callgsubr
            249 108 callsubr
            262 289 rmoveto
            61 44 -42 -62 -9 -1 -10 -1 -9 hvcurveto
            -5 -26 -30 -5 -32 hhcurveto
            -59 -44 29 46 39 34 28 54 hvcurveto
            -871 49 135 callgsubr
            149 62 101 74 hvcurveto
            25 -41 37 -49 30 -38 54 callsubr
            -54 -44 -17 -27 -29 hvcurveto
            11 -6 -15 7 -29 hhcurveto
            454 hmoveto
            -107 callgsubr
            31 hlineto
            -15 -85 -17 -84 -17 -90 rrcurveto
            -98 callsubr
            116 -102 callgsubr
            endchar
          </CharString>
          <CharString index="59">
            21 90 27 -55 callgsubr
          </CharString>
          <CharString index="60">
            -46 callgsubr
            46 return
          </CharString>
          <CharString index="61">
            35 callgsubr
            -53 45 -48 69 -23 hvcurveto
            -49 -55 -73 -105 91 callsubr
            100 4 69 57 75 137 -248 -13 32 vvcurveto
            29 105 33 40 vhcurveto
            31 22 -16 18 hhcurveto
            0 1 vlineto
            21 11 17 31 62 7 33 5 24 hvcurveto
            146 -71 callsubr
          </CharString>
          <CharString index="62">
            -27 12 22 -44 callsubr
            return
          </CharString>
          <CharString index="63">
            37 -93 callsubr
            return
          </CharString>
          <CharString index="64">
            hmoveto
            -15 -84 -12 -74 -13 -85 rrcurveto
            -44 -31 callsubr
            75 62 33 36 57 vhcurveto
            -15 -98 55 callsubr
            142 28 vhcurveto
            return
          </CharString>
          <CharString index="65">
            rmoveto
            -59 -89 -131 -191 -111 hvcurveto
            34 103 21 112 42 vvcurveto
            30 -36 39 -30 -15 -3 -27 -46 -3 vhcurveto
            -1 -54 -8 -85 -21 -76 -16 -64 -20 -49 -8 -37 rrcurveto
            -21 -3 36 -41 20 hhcurveto
            23 49 88 73 47 hvcurveto
            125 79 64 112 42 hhcurveto
            13 16 -21 -30 -36 -13 -50 -16 -54 hvcurveto
            -24 -80 -27 -64 -33 vvcurveto
            -21 7 -9 15 36 39 87 105 33 vhcurveto
            21 66 12 63 47 vvcurveto
            62 -58 66 -46 vhcurveto
            endchar
          </CharString>
          <CharString index="66">
            rmoveto
            -14 -12 -12 -10 -29 62 -11 74 -38 hvcurveto
            -49 95 88 -61 24 hhcurveto
            8 4 5 10 43 -258 152 -71 hvcurveto
            return
          </CharString>
          <CharString index="67">
            43 callgsubr
            6 122 callsubr
            24 hhcurveto
            40 21 172 callsubr
            return
          </CharString>
          <CharString index="68">
            rmoveto
            -15 -83 -12 -73 -12 -84 rrcurveto
            -45 -73 -67 -38 -43 47 callsubr
            return
          </CharString>
          <CharString index="69">
            vhcurveto
            13 12 19 44 callsubr
            return
          </CharString>
          <CharString index="70">
            17 callgsubr
            -466 160 rmoveto
            -59 -44 29 46 39 34 28 54 61 44 -42 -62 -9 -1 -10 -1 -9 hvcurveto
            -5 -26 -30 -5 -32 hhcurveto
            183 191 rmoveto
            230 callgsubr
            hvcurveto
            -2 vlineto
            38 -31 -49 24 -66 -22 callsubr
            31 -7 29 -13 25 hvcurveto
            -4 9 12 -3 17 hhcurveto
            336 hlineto
            97 callgsubr
            -104 -122 -187 -81 -45 59 -42 42 61 76 44 52 75 hvcurveto
            -77 callsubr
          </CharString>
          <CharString index="71">
            hhcurveto
            -105 -114 -175 -82 -45 55 -43 42 return
          </CharString>
          <CharString index="72">
            -100 callgsubr
            -426 hmoveto
            -97 callgsubr
            -61 -35 -50 -40 -40 hvcurveto
            -42 -76 -3 -8 -84 hvcurveto
            15 61 9 64 59 161 callsubr
            -438 12 callgsubr
            98 332 -53 callsubr
            return
          </CharString>
          <CharString index="73">
            rmoveto
            -12 -16 -26 -9 372 callsubr
            45 -50 -33 -4 -1 -4 -3 -3 hvcurveto
            return
          </CharString>
          <CharString index="74">
            -66 -48 -110 -114 -33 vvcurveto
            -11 11 -10 12 18 66 75 41 41 vhcurveto
            47 48 54 51 49 46 rrcurveto
            -14 -54 -17 -65 -23 178 callgsubr
            29 38 123 127 24 vhcurveto
            58 68 80 58 38 hhcurveto
            21 7 -11 -20 hvcurveto
            -108 -124 -75 -34 vvcurveto
            -13 18 -10 14 return
          </CharString>
          <CharString index="75">
            -9 -59 -10 -56 -7 -40 rrcurveto
            24 -25 -33 20 -33 hhcurveto
            -52 -52 -43 -39 -42 hvcurveto
            -61 -58 -71 -78 -26 229 callsubr
            24 66 74 53 54 vhcurveto
            39 40 39 29 35 hhcurveto
            32 31 -41 -24 22 hvcurveto
            -7 10 9 -7 11 382 callgsubr
            33 21 167 141 28 hvcurveto
            44 79 66 37 37 hhcurveto
            17 5 -21 -27 -102 -33 -87 -58 -9 hvcurveto
            -13 -5 -15 3 -14 vvcurveto
            -19 32 -33 24 85 52 159 119 68 -27 42 -62 -45 -63 -31 -35 -64 vhcurveto
            14 71 12 73 3 28 rrcurveto
            315 -107 callsubr
          </CharString>
          <CharString index="76">
            121 callsubr
            -203 82 callsubr
            120 47 callgsubr
            return
          </CharString>
          <CharString index="77">
            vvcurveto
            89 -45 72 -97 -88 -61 -61 -46 -20 13 -11 17 vhcurveto
            36 6 72 89 hhcurveto
            42 18 -35 -45 -92 -69 -124 -115 -34 -15 11 26 hvcurveto
            30 17 10 16 vvcurveto
            11 -6 6 -13 -33 -31 -38 -38 -56 39 -45 80 return
          </CharString>
          <CharString index="78">
            -20 -25 callsubr
            return
          </CharString>
          <CharString index="79">
            -6 -8 -3 -9 -8 vvcurveto
            -21 return
          </CharString>
          <CharString index="80">
            rmoveto
            -1 34 -39 57 -55 18 rrcurveto
            18 -54 -53 12 -89 hhcurveto
            -99 -49 -22 -15 1 hvcurveto
            -23 33 -42 31 vhcurveto
            36 1 35 13 60 1 74 2 85 -20 1 -26 1 -88 -420 -249 -1 -118 rrcurveto
            -42 47 -61 54 170 207 53 42 17 -9 7 -26 vhcurveto
            -73 -146 -33 -100 hhcurveto
            -18 -8 13 10 56 407 259 -2 126 hvcurveto
            return
          </CharString>
          <CharString index="81">
            -107 callgsubr
            121 hlineto
            -26 -62 -25 -86 -102 vvcurveto
            -98 38 -78 75 148 105 326 callsubr
            return
          </CharString>
          <CharString index="82">
            vvcurveto
            -24 24 -18 14 28 33 -80 callsubr
            return
          </CharString>
          <CharString index="83">
            rmoveto
            -26 -39 50 33 33 56 17 71 8 hvcurveto
            -79 -13 -19 -62 -30 hhcurveto
            -469 353 rmoveto
            56 33 41 54 41 30 -37 -47 -50 -29 -43 -41 -38 vhcurveto
            -53 25 -35 37 56 49 callgsubr
            198 295 callgsubr
            187 hlineto
            -1 -7 0 -8 -8 vvcurveto
            -1 -49 -3 -67 -6 -65 -26 -2 -26 -4 -23 -5 rrcurveto
            -20 -25 -2 -27 hhcurveto
            -77 -84 5 16 -71 hvcurveto
            42 46 30 52 65 208 callgsubr
            -75 44 -52 62 -34 vhcurveto
            -104 -78 -132 -69 -102 -50 callsubr
            76 127 60 103 83 vhcurveto
            -22 70 80 -9 65 hhcurveto
            7 8 0 1 8 hvcurveto
            -6 -11 -3 -11 -13 vvcurveto
            -63 70 -98 69 76 39 100 114 20 vhcurveto
            1 18 18 0 17 return
          </CharString>
          <CharString index="84">
            75 callsubr
            -1 vlineto
            322 callgsubr
            return
          </CharString>
          <CharString index="85">
            hhcurveto
            -105 -64 -63 -76 -74 68 -66 111 25 23 3 6 22 hvcurveto
            8 callgsubr
            41 callgsubr
            return
          </CharString>
          <CharString index="86">
            378 callsubr
            -67 -28 -84 -20 -80 -10 rrcurveto
            43 46 37 callsubr
            return
          </CharString>
          <CharString index="87">
            rmoveto
            140 114 83 110 hvcurveto
            124 -235 139 44 vvcurveto
            27 40 28 75 30 vhcurveto
            82 33 78 -2 23 vvcurveto
            25 -27 34 -42 -78 -127 -57 -58 -55 vhcurveto
            -16 -17 -16 -45 -29 -84 231 -136 -80 vvcurveto
            -55 -83 -59 -96 vhcurveto
            -94 -46 95 -35 hhcurveto
            -14 -5 -11 -19 -50 81 -93 128 hvcurveto
            return
          </CharString>
          <CharString index="88">
            -106 callgsubr
            504 hlineto
            -8 -44 -8 -43 -8 -44 rrcurveto
            -34 -41 -57 -36 -66 -46 -18 19 -31 hhcurveto
            -15 -7 -9 -15 -17 13 -14 19 -11 hvcurveto
            5 -6 3 -6 -7 vvcurveto
            -61 -87 -48 -90 -30 -14 13 36 65 36 90 83 29 vhcurveto
            15 5 19 3 343 callgsubr
            -82 -80 -122 -112 -73 38 -55 76 132 123 74 83 5 -1 6 -2 6 vhcurveto
            -1 6 5 0 6 hhcurveto
            46 48 13 23 39 hvcurveto
            -4 -23 return
          </CharString>
          <CharString index="89">
            -3 29 31 75 21 115 31 73 hvcurveto
            return
          </CharString>
          <CharString index="90">
            hlineto
            -107 callgsubr
            return
          </CharString>
          <CharString index="91">
            vvcurveto
            -31 42 -43 39 118 120 45 75 89 vhcurveto
            -22 -109 -26 -99 -20 38 callgsubr
          </CharString>
          <CharString index="92">
            -21 8 -26 -35 vvcurveto
            -59 -14 -59 -37 -13 -10 11 14 -8 vhcurveto
            60 -27 -33 50 -29 hhcurveto
            -12 -22 -5 -23 -13 7 -19 17 -23 hvcurveto
            return
          </CharString>
          <CharString index="93">
            116 callgsubr
            -14 -13 -21 -20 14 60 callgsubr
            return
          </CharString>
          <CharString index="94">
            hlineto
            -13 -70 -13 -69 -14 -73 rrcurveto
            47 -76 -179 66 -68 hhcurveto
            -19 -11 -9 -15 -27 80 -13 114 -40 hvcurveto
            53 -19 49 -24 33 -15 -45 -23 -66 -43 -57 -35 rrcurveto
            -92 -56 -99 -55 376 callsubr
            82 51 59 97 vhcurveto
            46 28 47 29 38 25 rrcurveto
            -18 -93 -19 -82 139 callgsubr
            223 callgsubr
          </CharString>
          <CharString index="95">
            27 16 41 53 hhcurveto
            39 26 -29 -48 -86 -62 -69 -107 hvcurveto
            -38 -32 48 -28 hhcurveto
            -12 -9 -17 -20 -10 6 -13 10 -11 hvcurveto
            25 -34 52 -48 33 -46 rrcurveto
            -88 63 33 -53 20 hhcurveto
            17 8 8 15 22 -30 57 -55 79 hvcurveto
            -10 13 -10 15 -11 13 rrcurveto
            132 13 81 95 115 vvcurveto
            34 return
          </CharString>
          <CharString index="96">
            174 hlineto
            -15 -85 -17 -84 -16 -90 rrcurveto
            -23 -121 -32 -119 -22 vvcurveto
            -21 32 286 callsubr
            13 -95 callgsubr
            -41 hvcurveto
            endchar
          </CharString>
          <CharString index="97">
            rmoveto
            -93 33 194 -188 81 hhcurveto
            25 8 9 15 23 -61 44 -57 51 hvcurveto
            -60 54 -69 67 27 26 267 62 175 vvcurveto
            100 -95 51 -121 -95 -111 -42 -30 -17 16 -27 17 -11 vhcurveto
            -14 -180 -104 -268 -67 vvcurveto
            -25 33 -38 20 14 31 123 118 36 vhcurveto
            return
          </CharString>
          <CharString index="98">
            60 -39 84 -60 37 vhcurveto
            15 36 11 49 3 34 rrcurveto
            192 -104 callsubr
          </CharString>
          <CharString index="99">
            -17 41 51 -7 58 hhcurveto
            133 131 50 71 49 -66 76 -55 -64 -86 -81 -91 -51 hvcurveto
            -57 8 -40 22 35 vvcurveto
            69 198 156 53 vhcurveto
            51 17 -50 26 hhcurveto
            return
          </CharString>
          <CharString index="100">
            186 callsubr
            -3 -9 -4 -19 -24 -16 -37 return
          </CharString>
          <CharString index="101">
            22 -21 45 7 13 -21 -35 -41 -110 10 1 -29 1 -16 22 -8 36 1 rrcurveto
            106 5 67 48 44 vvcurveto
            -1 27 -42 22 -36 6 rrcurveto
            return
          </CharString>
          <CharString index="102">
            rmoveto
            27 -27 40 -26 -25 -9 -71 -168 -40 vhcurveto
            -17 -73 -24 -79 -11 -57 rrcurveto
            -25 -3 16 -22 18 hhcurveto
            17 16 11 39 12 hvcurveto
            61 190 42 159 29 vvcurveto
            return
          </CharString>
          <CharString index="103">
            530 rmoveto
            -140 -38 -116 -127 -80 hhcurveto
            -21 -15 41 63 69 12 74 25 66 hvcurveto
            241 hlineto
            return
          </CharString>
          <CharString index="104">
            -131 -91 16 callgsubr
            return
          </CharString>
          <CharString index="105">
            66 callgsubr
            -68 -14 -80 -74 vvcurveto
            -97 30 -101 82 return
          </CharString>
          <CharString index="106">
            4 5 0 4 hhcurveto
            -40 -41 -32 -48 -38 vvcurveto
            -43 30 -25 50 104 112 48 68 81 vhcurveto
            -19 -87 -18 -72 77 callgsubr
            117 -102 callgsubr
            endchar
          </CharString>
          <CharString index="107">
            21 callsubr
            -121 201 callsubr
            319 270 callsubr
            return
          </CharString>
          <CharString index="108">
            -17 -30 -12 -41 -1 -41 rrcurveto
            12 -19 -19 8 -16 hhcurveto
            return
          </CharString>
          <CharString index="109">
            237 callsubr
            115 114 90 93 47 -27 28 -47 return
          </CharString>
          <CharString index="110">
            576 -39 callsubr
            return
          </CharString>
          <CharString index="111">
            rmoveto
            40 -41 38 -20 -17 -4 -9 -21 vhcurveto
            -129 -137 -365 -92 vvcurveto
            -48 55 -44 64 138 173 59 57 12 -2 5 -14 vhcurveto
            -26 -118 -49 -154 hhcurveto
            -15 -11 8 16 21 11 44 32 103 hvcurveto
            43 142 43 145 67 vvcurveto
            endchar
          </CharString>
          <CharString index="112">
            102 rmoveto
            39 121 132 95 54 -36 55 -68 -40 -57 -34 -45 -58 hvcurveto
            12 53 22 102 9 62 rrcurveto
            239 callgsubr
            -39 hvcurveto
            -713 -17 callsubr
            332 hlineto
            177 callsubr
            -91 -120 -173 -87 -37 48 -46 48 25 25 12 16 30 hvcurveto
            -33 callsubr
            vhcurveto
            -402 68 102 callsubr
            return
          </CharString>
          <CharString index="113">
            149 callsubr
            -3 -5 -1 -2 -6 vhcurveto
            -9 -25 -58 -30 -59 2 callsubr
            return
          </CharString>
          <CharString index="114">
            hhcurveto
            101 callgsubr
            hvcurveto
            -33 -61 -67 -16 -70 -56 callsubr
            return
          </CharString>
          <CharString index="115">
            216 382 rmoveto
            -26 -14 35 33 80 63 88 36 20 21 -36 -56 -75 -65 -69 -35 hvcurveto
            473 378 rmoveto
            -31 -169 -129 27 -112 hvcurveto
            -30 7 -9 14 -21 8 rrcurveto
            6 -11 -12 3 -13 hhcurveto
            -90 -95 -128 -125 -68 47 -72 59 92 100 116 115 18 -3 19 -4 18 hvcurveto
            5 -2 4 -1 4 -1 49 -12 87 19 72 41 -230 -329 -170 -232 -9 -39 -4 -18 20 -25 16 -4 16 -4 58 82 171 245 123 174 123 146 10 52 rrcurveto
            28 6 -32 51 -17 hhcurveto
            -56 -671 rmoveto
            -27 -14 34 34 80 63 88 36 21 20 -37 -55 -75 -64 -69 -35 hvcurveto
            64 314 rmoveto
            -89 -95 -128 -125 -69 47 -71 58 93 99 115 115 79 -46 84 -67 hvcurveto
            return
          </CharString>
          <CharString index="116">
            -7 -23 -3 -27 -23 -5 0 -6 -5 vvcurveto
            7 -13 -16 4 -15 hhcurveto
            return
          </CharString>
          <CharString index="117">
            rmoveto
            17 32 13 49 31 vvcurveto
            30 -45 39 -31 vhcurveto
            -51 -106 -31 -77 hhcurveto
            -11 -6 4 9 hvcurveto
            44 53 58 28 vvcurveto
            19 -19 23 -15 -23 -62 -120 -62 -40 26 -28 48 vhcurveto
            72 110 29 40 hhcurveto
            17 9 -8 -17 -36 -13 -31 -5 -22 hvcurveto
            return
          </CharString>
          <CharString index="118">
            hhcurveto
            84 callgsubr
            56 callgsubr
            return
          </CharString>
          <CharString index="119">
            -13 -66 -15 -66 -15 -77 rrcurveto
            18 -57 -63 9 -72 hhcurveto
            return
          </CharString>
          <CharString index="120">
            -106 callgsubr
            17 hlineto
            -11 -61 -11 -60 -12 -62 rrcurveto
            -95 -70 -142 -89 -106 hhcurveto
            -10 -4 3 6 37 81 67 360 callsubr
            -17 -5 -8 -2 -4 -9 vhcurveto
            -11 -26 -47 -25 -60 hhcurveto
            -18 -5 10 15 10 2 11 5 12 hvcurveto
            -4 12 12 -2 13 hhcurveto
            115 114 90 93 47 -27 28 -47 return
          </CharString>
          <CharString index="121">
            -90 callsubr
            -41 -16 -37 -23 -31 hvcurveto
            5 -2 -3 3 -4 164 callsubr
            return
          </CharString>
          <CharString index="122">
            -106 callgsubr
            116 -75 callgsubr
            119 -102 callgsubr
            -127 hlineto
            -3 20 -9 35 -13 38 rrcurveto
            9 hlineto
            18 16 6 11 14 hvcurveto
            0 vlineto
            25 34 42 26 45 86 31 -65 26 hhcurveto
            7 4 5 10 46 -67 76 -93 -21 -20 -4 -7 -19 hvcurveto
            3 19 2 20 20 vvcurveto
            380 callsubr
            -12 -10 -19 vhcurveto
            -21 7 -26 -35 vvcurveto
            -59 -14 -59 -36 -13 -11 11 14 -8 vhcurveto
            60 -27 -32 50 -29 hhcurveto
            -12 -22 -5 -23 -13 6 -19 17 -23 hvcurveto
            51 -75 22 -86 22 -48 rrcurveto
            endchar
          </CharString>
          <CharString index="123">
            -7 callsubr
            -10 17 30 19 21 16 4 rrcurveto
            return
          </CharString>
          <CharString index="124">
            rmoveto
            -33 -79 -76 -26 -50 hhcurveto
            -21 144 callgsubr
            56 47 20 -96 -46 17 hvcurveto
            -278 412 27 callgsubr
            -15 -79 -15 -88 -16 -84 rrcurveto
            61 -17 -34 61 -1 callgsubr
            13 16 2 4 19 hvcurveto
            -6 -5 rlineto
            -60 -51 -76 -84 -26 vvcurveto
            -14 8 -10 17 28 67 82 47 48 vhcurveto
            39 38 45 38 36 23 rrcurveto
            -12 -53 -9 -42 -12 196 callsubr
            281 -104 callsubr
          </CharString>
          <CharString index="125">
            hlineto
            -8 0 -8 -9 vvcurveto
            -45 -2 -54 -5 -52 vhcurveto
            4 -27 -24 2 -31 hhcurveto
            -83 -65 -29 -70 -79 69 227 callsubr
            return
          </CharString>
          <CharString index="126">
            rmoveto
            33 40 -49 -32 -39 -56 -23 -82 -23 -30 3 6 -27 hvcurveto
            72 35 58 62 52 hhcurveto
            -42 -207 rmoveto
            171 callgsubr
            -120 -134 -189 -142 -95 71 -70 105 80 100 55 35 12 -7 8 -19 hvcurveto
            -28 -42 -35 -98 hhcurveto
            -55 -29 27 45 24 5 27 9 28 hvcurveto
            -10 37 42 -6 47 hhcurveto
            endchar
          </CharString>
          <CharString index="127">
            rmoveto
            -47 -37 38 46 -27 hvcurveto
            80 84 75 81 39 hhcurveto
            17 11 -10 -20 -84 -44 -131 -71 hvcurveto
            -355 1 rmoveto
            -23 -10 12 20 56 66 136 59 38 31 -56 -39 27 hvcurveto
            -68 -71 -68 -61 -49 hhcurveto
            -66 529 -106 callgsubr
            547 hlineto
            -22 -43 -16 -61 -33 vvcurveto
            -2 -1 vlineto
            -55 -78 -73 -77 -78 hvcurveto
            56 -22 -51 73 -70 hhcurveto
            -114 -85 -192 -86 -45 64 -49 49 59 70 52 61 69 hvcurveto
            -62 35 54 -48 68 hhcurveto
            133 55 171 109 39 -18 34 -29 20 hvcurveto
            9 20 7 29 11 26 10 26 13 33 6 22 337 callsubr
          </CharString>
          <CharString index="128">
            rmoveto
            -47 -37 10 29 69 163 153 96 44 43 -77 -44 -63 -162 -77 -100 hvcurveto
            return
          </CharString>
          <CharString index="129">
            245 54 -58 callsubr
            401 hlineto
            -12 -64 -12 -69 -13 -69 rrcurveto
            51 -85 -151 52 -73 hhcurveto
            238 callsubr
            hvcurveto
            53 -20 42 -19 40 -18 -1 -2 rcurveline
            -45 -25 -65 -40 -56 -35 143 callgsubr
            38 24 40 23 33 22 rrcurveto
            -20 -91 -19 -80 -18 268 callgsubr
            38 31 147 125 27 vhcurveto
            53 66 64 34 47 hhcurveto
            28 16 -15 -26 hvcurveto
            -112 -124 -85 -26 vvcurveto
            -14 18 -9 13 33 127 132 105 60 -45 55 -70 -49 -52 -23 -35 -50 vhcurveto
            17 80 19 90 3 33 rrcurveto
            return
          </CharString>
          <CharString index="130">
            42 327 373 rmoveto
            -27 -48 44 82 -38 hvcurveto
            99 -47 1 118 -36 hhcurveto
            -32 -11 -32 -45 3 hvcurveto
            13 -160 81 -148 116 -36 rrcurveto
            -56 -108 -56 -103 -39 vvcurveto
            -24 8 -12 14 33 46 90 133 71 vhcurveto
            101 195 144 191 45 vvcurveto
            30 -18 23 -29 vhcurveto
            -50 -140 -343 -43 hhcurveto
            return
          </CharString>
          <CharString index="131">
            rmoveto
            -21 -20 -10 -26 14 -17 58 callgsubr
          </CharString>
          <CharString index="132">
            rmoveto
            391 callgsubr
            27 -35 73 -23 -21 -24 -30 -22 -27 46 -47 30 hvcurveto
            -150 hmoveto
            12 14 15 11 27 -35 73 -23 -21 -23 -30 -22 -27 45 -47 31 hvcurveto
            return
          </CharString>
          <CharString index="133">
            hlineto
            -8 -21 -4 -22 -21 203 callsubr
            19 vhcurveto
            return
          </CharString>
          <CharString index="134">
            rmoveto
            -26 -14 40 21 23 17 20 24 23 33 -14 -21 36 hvcurveto
            -30 -23 -41 -39 -29 hhcurveto
            -115 300 -65 callgsubr
            427 hlineto
            -12 -69 -13 -67 -13 -71 rrcurveto
            65 -73 -143 83 -73 hhcurveto
            -58 -29 -53 -49 -60 38 -72 64 57 57 52 46 33 hvcurveto
            35 -19 36 -25 34 -28 -45 -21 -84 -48 -61 -37 rrcurveto
            -93 -57 -92 -49 376 callsubr
            76 45 60 97 vhcurveto
            44 27 59 33 46 30 rrcurveto
            -20 -90 -19 -76 77 callgsubr
            154 -71 callsubr
          </CharString>
          <CharString index="135">
            rmoveto
            -252 -74 -3 -25 -26 29 -36 21 42 61 6 2 68 hvcurveto
            -16 -172 -101 -312 -65 vvcurveto
            -26 33 -38 19 14 28 123 125 31 vhcurveto
            44 173 34 132 39 vvcurveto
            7 -1 7 -2 8 vhcurveto
            68 -2 50 -5 56 -1 rrcurveto
            46 -1 18 6 13 vvcurveto
            33 -87 38 -129 vhcurveto
            endchar
          </CharString>
          <CharString index="136">
            59 249 34 callsubr
            return
          </CharString>
          <CharString index="137">
            89 callsubr
            55 callsubr
            142 28 vhcurveto
            return
          </CharString>
          <CharString index="138">
            vvcurveto
            13 13 5 22 vhcurveto
            87 51 -50 25 hhcurveto
            5 4 1 3 3 hvcurveto
            22 14 7 73 72 vvcurveto
            14 -3 13 -5 11 vhcurveto
            return
          </CharString>
          <CharString index="139">
            -72 41 51 -71 21 hhcurveto
            16 10 10 15 19 -43 53 -38 73 hvcurveto
            -10 19 -9 19 -9 18 rrcurveto
            -1 5 5 0 5 hhcurveto
            49 47 13 23 41 hvcurveto
            123 2 171 19 113 35 -1 -3 rcurveline
            -9 -45 -10 -46 -9 -40 rrcurveto
            9 -22 -27 6 -29 hhcurveto
            -132 -163 -65 -88 -57 67 -50 67 71 30 52 57 26 -5 30 -11 25 hvcurveto
            6 27 28 3 27 hhcurveto
            22 20 -3 -6 18 hvcurveto
            -9 -40 -6 -28 -10 vvcurveto
            -13 31 -33 13 21 37 254 callsubr
          </CharString>
          <CharString index="140">
            -41 -13 -13 -21 -20 13 -15 41 hvcurveto
            276 -16 hlineto
            -30 -1 -40 -32 vvcurveto
            21 -39 -56 16 -50 hhcurveto
            -74 312 callsubr
            -30 -32 -20 -47 -10 vhcurveto
            87 -37 -51 80 -87 hhcurveto
            -63 -50 -38 -60 -90 99 -53 115 12 12 0 1 12 hvcurveto
            -93 39 40 -101 35 hhcurveto
            13 8 7 15 23 -39 82 -31 76 hvcurveto
            76 16 52 38 63 141 -234 42 74 vvcurveto
            13 13 5 21 vhcurveto
            88 51 -50 24 hhcurveto
            4 3 1 1 2 hvcurveto
            25 12 12 86 69 vvcurveto
            12 -2 10 -3 10 vhcurveto
            367 callsubr
            return
          </CharString>
          <CharString index="141">
            636 -66 callgsubr
            return
          </CharString>
          <CharString index="142">
            40 20 -20 -44 -92 -84 -92 -105 -15 -11 5 6 -9 hvcurveto
            -13 10 -11 7 -11 1 rrcurveto
            1 -3 -3 0 -4 hhcurveto
            -6 -4 -4 -6 -3 hvcurveto
            -3 -5 -2 -5 -6 vvcurveto
            -17 45 -62 260 callsubr
            20 hhcurveto
            284 callsubr
            -45 61 hvcurveto
            298 callsubr
            return
          </CharString>
          <CharString index="143">
            rmoveto
            13 6 -6 -13 -55 -91 -62 -66 -5 -6 1 2 -5 hvcurveto
            68 45 70 65 39 hhcurveto
            return
          </CharString>
          <CharString index="144">
            26 57 66 callsubr
            return
          </CharString>
          <CharString index="145">
            rmoveto
            -55 -14 -44 -30 -42 -69 80 47 28 66 17 82 15 vhcurveto
            2 -21 5 -27 -40 vvcurveto
            -188 384 -106 callgsubr
            452 hlineto
            -5 -34 -6 -35 -5 -34 -43 -10 -65 -18 -83 -16 rrcurveto
            -137 -27 -156 -15 -86 vvcurveto
            -78 115 -134 79 84 30 91 83 35 -3 37 -11 25 vhcurveto
            63 11 65 11 49 14 -13 -79 rcurveline
            -20 -121 -26 -126 -21 vvcurveto
            -24 25 -18 14 28 30 -75 callsubr
            29 vhcurveto
            18 91 24 122 4 42 rrcurveto
            119 -104 callsubr
          </CharString>
          <CharString index="146">
            276 callsubr
            -323 hmoveto
            -41 -14 -13 -21 -20 14 -15 41 hvcurveto
            316 233 callgsubr
            14 16 19 20 -14 14 -41 hvcurveto
            -123 hlineto
            2 26 1 27 1 26 rrcurveto
            62 12 55 43 70 78 30 -52 21 hhcurveto
            8 5 6 11 45 -65 61 -87 -55 -46 -20 -31 -34 hvcurveto
            61 -12 -27 46 -51 hhcurveto
            -100 -107 -211 -100 -26 hvcurveto
            return
          </CharString>
          <CharString index="147">
            16 -50 hhcurveto
            -75 -33 -30 -43 hvcurveto
            -131 218 -46 -83 vvcurveto
            -33 -37 -25 -60 -8 vhcurveto
            86 -13 -40 90 -107 hhcurveto
            -57 -50 -39 -63 -90 100 -51 113 -3 hvcurveto
            -8 vlineto
            -85 -18 -53 -33 vvcurveto
            -16 5 -11 12 36 24 121 86 vhcurveto
            2 vlineto
            95 11 69 44 74 vvcurveto
            return
          </CharString>
          <CharString index="148">
            230 callsubr
            hvcurveto
            return
          </CharString>
          <CharString index="149">
            -42 callgsubr
            27 -68 81 -2 return
          </CharString>
          <CharString index="150">
            -41 -14 17 29 38 33 63 33 return
          </CharString>
          <CharString index="151">
            11 24 150 callsubr
            return
          </CharString>
          <CharString index="152">
            51 -20 42 -41 16 vhcurveto
            3 13 3 14 4 14 7 24 8 17 6 12 118 callgsubr
          </CharString>
          <CharString index="153">
            645 -76 callgsubr
            return
          </CharString>
          <CharString index="154">
            hhcurveto
            -12 -18 callsubr
            return
          </CharString>
          <CharString index="155">
            167 callgsubr
            117 hlineto
            41 return
          </CharString>
          <CharString index="156">
            -36 50 -116 -179 hhcurveto
            -94 -56 44 53 hvcurveto
            9 3 1 9 vvcurveto
            14 -30 18 -21 -17 -7 -12 -21 -117 117 -59 106 return
          </CharString>
          <CharString index="157">
            rmoveto
            22 26 33 29 39 hvcurveto
            43 32 49 19 30 vvcurveto
            16 -10 10 -19 -18 -51 -23 -67 -74 vhcurveto
            60 -77 -13 64 -36 hhcurveto
            -18 -13 -16 -21 -55 129 -111 21 hvcurveto
            return
          </CharString>
          <CharString index="158">
            210 callgsubr
            -87 -32 vvcurveto
            -35 42 -40 32 71 88 20 23 72 vhcurveto
            -100 -98 -116 -139 -36 vvcurveto
            -13 8 -7 12 31 70 92 93 85 vhcurveto
            63 71 112 102 35 vvcurveto
            16 -11 8 -14 -53 -70 -82 -19 -230 vhcurveto
            96 64 89 102 108 vvcurveto
            30 -6 25 -10 21 vhcurveto
            230 -71 callsubr
          </CharString>
          <CharString index="159">
            484 309 rmoveto
            50 -234 158 -100 -58 -29 -53 -49 -60 38 -72 64 57 57 54 45 33 vhcurveto
            37 -20 34 -25 34 -28 -45 -21 -84 -48 -61 -37 rrcurveto
            -93 -57 -92 -49 376 callsubr
            76 45 60 97 vhcurveto
            84 51 136 72 38 vvcurveto
            -319 36 rmoveto
            -26 -14 40 21 23 17 20 24 23 33 -14 -21 36 hvcurveto
            -30 -23 -41 -39 -29 hhcurveto
            354 231 238 callgsubr
            -462 -17 callsubr
            return
          </CharString>
          <CharString index="160">
            198 callgsubr
            25 -12 hvcurveto
            66 -37 128 314 callgsubr
            -75 -36 33 40 -18 vhcurveto
            21 -9 -11 13 -21 hhcurveto
            -18 -9 -14 -19 -75 88 -66 111 return
          </CharString>
          <CharString index="161">
            rrcurveto
            59 callsubr
            return
          </CharString>
          <CharString index="162">
            -13 -83 -18 vvcurveto
            -25 19 -14 14 38 16 152 return
          </CharString>
          <CharString index="163">
            60 callsubr
            -30 12 -24 19 -22 hvcurveto
            -73 -27 -50 -63 -76 vvcurveto
            -112 91 -66 136 48 41 14 24 14 -15 5 -43 -104 -77 39 80 68 55 43 79 70 29 -35 -59 -23 3 -20 15 31 12 39 34 72 -54 64 -109 -7 -6 0 -1 -6 vhcurveto
            -10 13 -6 14 16 vvcurveto
            33 30 16 69 vhcurveto
            38 24 -3 24 hhcurveto
            8 6 1 2 6 hvcurveto
            25 6 8 47 49 133 callsubr
            return
          </CharString>
          <CharString index="164">
            vvcurveto
            -65 62 -38 106 132 196 91 109 -9 callsubr
          </CharString>
          <CharString index="165">
            -119 -22 vvcurveto
            -21 return
          </CharString>
          <CharString index="166">
            -56 42 53 -73 28 261 callgsubr
            18 -50 323 callsubr
            -11 15 -13 19 -14 20 rrcurveto
            10 hlineto
            171 116 133 129 96 -66 77 -117 return
          </CharString>
          <CharString index="167">
            hlineto
            5 -21 6 -28 2 -51 rrcurveto
            4 -21 -25 1 -26 hhcurveto
            -95 -77 -35 -64 return
          </CharString>
          <CharString index="168">
            31 vhcurveto
            62 callsubr
            return
          </CharString>
          <CharString index="169">
            15 6 19 2 13 vvcurveto
            return
          </CharString>
          <CharString index="170">
            hhcurveto
            -8 -4 2 6 36 63 63 51 39 hvcurveto
            24 20 21 15 18 vvcurveto
            15 -12 8 -14 vhcurveto
            -53 4 -75 20 24 vvcurveto
            36 return
          </CharString>
          <CharString index="171">
            -15 callsubr
            -111 76 10 -136 45 hhcurveto
            15 14 9 17 16 -10 42 -16 47 hvcurveto
            3 3 0 3 hhcurveto
            return
          </CharString>
          <CharString index="172">
            19 37 69 120 148 67 hvcurveto
            return
          </CharString>
          <CharString index="173">
            59 -27 callgsubr
            return
          </CharString>
          <CharString index="174">
            -74 37 163 -205 33 hhcurveto
            17 10 -17 callgsubr
            -13 18 -12 18 74 4 69 34 50 49 rrcurveto
            79 111 127 80 77 hhcurveto
            32 14 -18 -35 hvcurveto
            -114 -182 -87 -32 103 callsubr
            107 122 55 86 89 vhcurveto
            -20 -101 -21 -92 -18 273 callgsubr
            40 14 16 19 20 -14 14 -40 hvcurveto
            endchar
          </CharString>
          <CharString index="175">
            243 callgsubr
            40 -4 -8 39 vhcurveto
            -80 41 164 -205 35 hhcurveto
            15 10 10 15 16 -61 81 -46 60 hvcurveto
            -13 18 -13 19 -13 18 34 1 33 6 31 12 rrcurveto
            -2 21 23 0 24 hhcurveto
            87 2 93 12 77 26 250 callgsubr
            -113 -29 callsubr
            95 -104 callsubr
          </CharString>
          <CharString index="176">
            rmoveto
            -43 226 callsubr
            33 29 -35 -42 -29 -6 -26 -10 -24 vhcurveto
            -12 4 -13 6 -14 7 336 callsubr
            38 hlineto
            -10 -55 -10 -55 -11 -57 -81 -102 -130 -64 -131 -4 rrcurveto
            125 76 89 116 121 vvcurveto
            81 -57 57 -74 -67 -51 -44 -69 -86 67 -59 71 -9 vhcurveto
            -66 -92 -119 -49 -30 vvcurveto
            -34 48 -45 38 111 117 43 73 88 vhcurveto
            return
          </CharString>
          <CharString index="177">
            -76 -29 -73 -63 -74 vvcurveto
            -66 52 -34 72 55 57 20 31 45 vhcurveto
            -42 5 11 -30 20 hhcurveto
            35 -18 78 94 16 hvcurveto
            5 28 7 28 9 25 rrcurveto
            86 15 77 43 62 316 callgsubr
            -58 -49 -57 -72 -33 vhcurveto
            -18 hlineto
            -77 -46 65 callsubr
            52 13 -37 106 callsubr
            7 6 hvcurveto
            10 7 2 14 17 vvcurveto
            96 23 48 13 31 vhcurveto
            161 -107 callsubr
          </CharString>
          <CharString index="178">
            -7 -1 -8 -8 vvcurveto
            return
          </CharString>
          <CharString index="179">
            143 rmoveto
            -27 -32 48 32 33 78 8 87 9 hvcurveto
            -75 -30 -41 -55 -35 hhcurveto
            return
          </CharString>
          <CharString index="180">
            -35 16 24 24 41 29 52 21 vhcurveto
            9 -19 4 -21 -19 vvcurveto
            return
          </CharString>
          <CharString index="181">
            -15 -98 -14 -83 -18 vvcurveto
            -25 20 -14 14 38 return
          </CharString>
          <CharString index="182">
            hlineto
            85 callgsubr
            return
          </CharString>
          <CharString index="183">
            189 callsubr
            -64 -14 -79 -69 vvcurveto
            -102 30 -89 84 return
          </CharString>
          <CharString index="184" raw="1">
            510af708 401d0b  
          </CharString>
          <CharString index="185">
            454 rmoveto
            -180 -34 -138 -119 -105 hhcurveto
            -27 -9 23 33 78 62 133 64 hvcurveto
            40 1 -47 27 hhcurveto
            12 7 14 22 41 -29 45 -45 -37 -34 -14 -24 -29 hvcurveto
            -58 -39 -89 -55 -90 -50 1 6 rcurveline
            83 callsubr
            rrcurveto
            482 hlineto
            -7 -41 -7 -40 -8 -42 rrcurveto
            -835 -228 rmoveto
            208 callsubr
            56 43 23 -85 -48 18 vhcurveto
            -40 -83 -75 -29 -47 hhcurveto
            -20 -9 8 18 hvcurveto
            return
          </CharString>
          <CharString index="186">
            -81 callsubr
            hhcurveto
            return
          </CharString>
          <CharString index="187">
            vvcurveto
            -14 32 -24 14 21 40 183 133 31 vhcurveto
            321 callgsubr
            return
          </CharString>
          <CharString index="188">
            169 callgsubr
            76 hmoveto
            3 35 1 35 35 vvcurveto
            102 -21 104 -77 -100 -107 -211 -100 -26 vhcurveto
            -71 -17 callsubr
            315 233 callgsubr
            13 -95 callgsubr
            -41 hvcurveto
            endchar
          </CharString>
          <CharString index="189">
            69 -65 callgsubr
            return
          </CharString>
          <CharString index="190">
            20 88 27 -49 callgsubr
            41 return
          </CharString>
          <CharString index="191">
            -11 -45 -11 -41 -7 -30 rrcurveto
            15 -23 -30 12 -30 hhcurveto
            -51 -61 -36 -36 -44 hvcurveto
            -64 -54 -56 -67 -22 315 callsubr
            24 48 61 52 60 vhcurveto
            34 39 44 24 38 hhcurveto
            29 33 -17 -22 25 hvcurveto
            6 -3 5 -2 6 -1 277 callgsubr
            116 -106 callsubr
            endchar
          </CharString>
          <CharString index="192">
            -15 -68 -12 -54 -15 178 callgsubr
            32 27 106 108 25 vhcurveto
            103 173 148 150 66 hhcurveto
            32 14 -18 -35 hvcurveto
            -121 -183 -70 -36 vvcurveto
            -33 38 -36 31 107 123 53 84 89 vhcurveto
            -20 -101 -21 -94 -18 175 callsubr
            13 -95 callgsubr
            -41 hvcurveto
            endchar
          </CharString>
          <CharString index="193">
            rmoveto
            34 40 54 36 70 hvcurveto
            -45 35 44 -58 35 hhcurveto
            14 11 9 11 26 -37 36 -34 39 hvcurveto
            34 -29 -11 25 -26 hhcurveto
            -19 -42 -29 -27 -47 hvcurveto
            -49 -28 -20 -21 -30 vvcurveto
            -19 15 -13 16 vhcurveto
            return
          </CharString>
          <CharString index="194">
            112 167 104 rmoveto
            6 41 12 60 13 44 rrcurveto
            52 177 29 99 48 119 callsubr
            -16 617 rmoveto
            -12 -8 -6 -14 -22 27 -33 42 -18 hvcurveto
            -11 -144 -109 -295 -83 138 callgsubr
            return
          </CharString>
          <CharString index="195">
            -73 55 -44 110 148 112 83 77 63 -61 41 -59 18 vhcurveto
            19 81 222 66 68 hhcurveto
            14 10 -5 -14 hvcurveto
            -79 -173 -80 -30 370 callgsubr
            127 43 86 92 vhcurveto
            -21 -112 -25 -109 -19 -25 callsubr
            117 -107 callsubr
          </CharString>
          <CharString index="196">
            47 callgsubr
            75 62 33 36 57 vhcurveto
            -15 -98 return
          </CharString>
          <CharString index="197">
            hlineto
            43 callgsubr
            7 18 14 12 -38 callsubr
            -104 -101 -73 -103 -36 -22 24 9 -26 hvcurveto
            1 vlineto
            16 -41 -65 8 -59 hhcurveto
            return
          </CharString>
          <CharString index="198">
            -22 42 callsubr
            111 hvcurveto
            return
          </CharString>
          <CharString index="199">
            hhcurveto
            -28 -8 29 34 88 74 144 63 hvcurveto
            40 9 -71 35 hhcurveto
            17 8 13 21 37 -45 76 -54 return
          </CharString>
          <CharString index="200">
            hlineto
            -52 callsubr
            26 -29 21 vhcurveto
            18 17 35 41 hhcurveto
            31 16 -22 -38 -99 -92 -70 -59 -46 hvcurveto
            -38 -59 -104 -70 -129 hhcurveto
            -14 -7 7 11 44 71 74 55 34 hvcurveto
            19 280 callgsubr
            -5 vhcurveto
            -8 -24 -59 -31 -61 237 callsubr
            98 96 65 76 return
          </CharString>
          <CharString index="201">
            hhcurveto
            21 37 174 140 33 hvcurveto
            107 callgsubr
          </CharString>
          <CharString index="202">
            2 callgsubr
            -156 -420 -84 callgsubr
            return
          </CharString>
          <CharString index="203">
            98 callgsubr
            -82 -141 -81 return
          </CharString>
          <CharString index="204">
            164 callgsubr
            12 -18 return
          </CharString>
          <CharString index="205">
            21 37 -75 callsubr
            32 hvcurveto
            -48 callsubr
          </CharString>
          <CharString index="206">
            hvcurveto
            28 -15 17 -23 -30 vvcurveto
            -70 -90 -45 -102 -111 -64 46 70 vhcurveto
            46 33 14 34 vvcurveto
            17 -8 10 -16 -52 -32 -59 -56 -114 94 -79 154 160 113 80 106 return
          </CharString>
          <CharString index="207">
            rrcurveto
            120 -107 callsubr
          </CharString>
          <CharString index="208">
            -61 callsubr
            endchar
          </CharString>
          <CharString index="209">
            rmoveto
            -21 -11 11 18 50 93 130 46 35 39 -52 -42 26 hvcurveto
            -63 -70 -94 -52 -43 hhcurveto
            return
          </CharString>
          <CharString index="210">
            vvcurveto
            -34 38 -35 31 return
          </CharString>
          <CharString index="211">
            11 20 14 11 vvcurveto
            14 -15 19 return
          </CharString>
          <CharString index="212">
            hlineto
            -6 -9 -3 -9 -9 vvcurveto
            -21 36 -25 18 16 9 17 14 11 vhcurveto
            15 11 21 10 25 hhcurveto
            42 20 -26 -48 -104 -91 -82 -114 hvcurveto
            -38 -19 42 -28 hhcurveto
            -11 -10 -17 -20 -7 2 -8 5 -9 hvcurveto
            17 -42 49 -77 38 -51 rrcurveto
            -78 60 53 -66 29 hhcurveto
            17 8 8 15 22 -56 61 -55 77 hvcurveto
            -16 22 -17 28 -19 28 return
          </CharString>
          <CharString index="213">
            26 hhcurveto
            8 7 4 return
          </CharString>
          <CharString index="214">
            hlineto
            -5 -25 -4 -26 -5 -25 rrcurveto
            -184 -43 -132 -88 -104 hhcurveto
            -36 -19 10 25 48 80 67 83 29 hvcurveto
            14 3 8 7 10 vvcurveto
            27 -29 17 -57 vhcurveto
            -148 hlineto
            172 callgsubr
            -9 -14 36 -46 27 hvcurveto
            50 49 1 49 hhcurveto
            -55 -38 -40 -51 -51 vvcurveto
            -62 41 -41 79 86 89 40 74 69 vhcurveto
            return
          </CharString>
          <CharString index="215">
            -279 -34 callsubr
            return
          </CharString>
          <CharString index="216">
            -3 -19 -3 -22 -5 -19 -5 -17 -5 -13 -4 -11 return
          </CharString>
          <CharString index="217">
            42 45 37 callsubr
            return
          </CharString>
          <CharString index="218">
            75 288 409 rmoveto
            0 vlineto
            -53 3 -74 18 26 vvcurveto
            34 116 57 43 vhcurveto
            32 13 -28 18 hhcurveto
            9 6 7 10 12 -8 14 -12 14 hvcurveto
            139 hlineto
            -11 -61 -11 -59 -12 -62 rrcurveto
            -90 -58 -143 -96 -115 hhcurveto
            -7 -5 3 6 20 38 42 51 37 hvcurveto
            21 16 50 32 21 vvcurveto
            15 -12 9 -14 vhcurveto
            return
          </CharString>
          <CharString index="219">
            311 callsubr
            625 hlineto
            300 callsubr
            -47 -51 -127 -156 -109 -132 -11 rrcurveto
            86 63 88 83 96 vvcurveto
            63 -35 53 -76 -92 -134 -131 -101 -149 vhcurveto
            -89 -54 rmoveto
            -37 -67 -69 -25 -69 hhcurveto
            -21 144 callgsubr
            55 45 23 -91 -46 18 hvcurveto
            return
          </CharString>
          <CharString index="220">
            -15 callgsubr
            49 71 return
          </CharString>
          <CharString index="221">
            -15 hlineto
            -27 0 -41 -35 vvcurveto
            21 -38 -55 16 -50 hhcurveto
            -75 -34 -30 -43 return
          </CharString>
          <CharString index="222">
            -17 41 51 -7 58 hhcurveto
            133 131 50 71 49 -66 76 -55 -64 -86 -81 -91 -51 hvcurveto
            78 callgsubr
          </CharString>
          <CharString index="223">
            rmoveto
            11 196 callgsubr
            -16 -24 -17 -38 -11 15 29 19 21 19 4 rrcurveto
            return
          </CharString>
          <CharString index="224">
            576 rmoveto
            -13 -62 -13 -65 -15 -68 -92 -49 -126 -41 -79 -4 rrcurveto
            -66 46 -76 32 42 166 callgsubr
            return
          </CharString>
          <CharString index="225">
            -265 94 645 rmoveto
            -49 -29 -7 -25 -25 41 -12 72 hvcurveto
            42 hlineto
            -15 -85 -17 -84 -55 callsubr
            return
          </CharString>
          <CharString index="226">
            vvcurveto
            12 -2 12 -4 11 vhcurveto
            126 -39 121 -118 -83 vvcurveto
            -68 -206 -176 -147 -20 vhcurveto
            return
          </CharString>
          <CharString index="227">
            -73 87 -65 116 105 74 58 78 return
          </CharString>
          <CharString index="228">
            -71 -64 -36 -46 hhcurveto
            -13 -18 callsubr
            return
          </CharString>
          <CharString index="229">
            195 callsubr
            18 11 return
          </CharString>
          <CharString index="230">
            69 -76 callgsubr
            return
          </CharString>
          <CharString index="231">
            10 15 16 -54 70 return
          </CharString>
          <CharString index="232">
            70 -4 -22 96 -88 hhcurveto
            -137 -140 -254 -119 -57 56 -66 61 34 50 23 35 47 hvcurveto
            -133 -37 -19 -119 -65 -88 -14 95 -35 hhcurveto
            -14 -15 -28 -20 -45 66 -70 102 163 -8 262 191 90 hvcurveto
            13 24 10 23 4 22 2 15 -6 16 -7 11 rrcurveto
            return
          </CharString>
          <CharString index="233">
            hlineto
            22 callgsubr
            return
          </CharString>
          <CharString index="234">
            28 -36 68 -22 -17 -17 -22 -23 -25 50 -52 23 return
          </CharString>
          <CharString index="235">
            69 41 callsubr
            return
          </CharString>
          <CharString index="236">
            hhcurveto
            -22 -21 0 -1 -22 hvcurveto
            12 89 3 92 60 vvcurveto
            -156 -446 rmoveto
            -26 -38 50 34 32 52 15 71 8 hvcurveto
            -78 -13 -18 -61 -28 hhcurveto
            return
          </CharString>
          <CharString index="237">
            rmoveto
            302 callsubr
            -89 190 -252 54 15 14 7 14 14 -29 29 -32 37 vhcurveto
            126 callgsubr
            hvcurveto
            endchar
          </CharString>
          <CharString index="238">
            -177 rmoveto
            28 9 -23 -29 -45 -29 -41 -45 -36 hvcurveto
            -17 8 -18 17 43 vvcurveto
            55 27 51 45 vhcurveto
            -479 246 -106 callgsubr
            194 hlineto
            -94 -41 -92 -102 -72 vvcurveto
            -47 45 -26 54 -4 vhcurveto
            -62 -53 -58 -79 -60 358 callgsubr
            return
          </CharString>
          <CharString index="239">
            vvcurveto
            -158 141 -77 157 53 42 14 27 15 -20 4 -44 -130 -121 54 122 return
          </CharString>
          <CharString index="240">
            vvcurveto
            22 -4 21 -6 19 vhcurveto
            return
          </CharString>
          <CharString index="241">
            274 callsubr
            -173 -140 -109 -169 -12 rrcurveto
            77 49 88 87 61 vvcurveto
            36 -50 51 -44 -73 -75 -25 -29 -115 vhcurveto
            -49 -12 -76 -16 -55 -16 35 43 28 52 1 72 rrcurveto
            49 -342 rmoveto
            -43 -97 -45 -93 -53 -34 14 38 return
          </CharString>
          <CharString index="242">
            -81 137 callsubr
            return
          </CharString>
          <CharString index="243">
            rrcurveto
            13 -23 -27 9 -37 hhcurveto
            -123 -182 139 callsubr
            37 28 -10 -26 34 hvcurveto
            -7 8 8 -5 5 hhcurveto
            21 37 -75 callsubr
            32 hvcurveto
            21 90 27 -74 callgsubr
            return
          </CharString>
          <CharString index="244">
            417 343 -60 callgsubr
            return
          </CharString>
          <CharString index="245">
            146 callsubr
            -11 16 31 18 20 18 5 rrcurveto
            return
          </CharString>
          <CharString index="246">
            313 callsubr
            -6 31 -12 25 hvcurveto
            9 33 32 5 28 hhcurveto
            return
          </CharString>
          <CharString index="247">
            71 callsubr
            -48 return
          </CharString>
          <CharString index="248">
            -40 -43 -33 -49 -40 vvcurveto
            -41 35 -33 53 74 117 37 46 82 vhcurveto
            -15 14 18 -10 17 hhcurveto
            340 callgsubr
            hvcurveto
            -23 -116 -26 10 callgsubr
            return
          </CharString>
          <CharString index="249">
            hlineto
            9 callsubr
            return
          </CharString>
          <CharString index="250">
            hhcurveto
            -34 -10 53 221 callgsubr
            return
          </CharString>
          <CharString index="251">
            113 callsubr
            21 31 75 hvcurveto
            -13 -58 -10 -44 -13 229 callgsubr
            29 25 87 97 22 vhcurveto
            return
          </CharString>
          <CharString index="252">
            hhcurveto
            98 callsubr
          </CharString>
          <CharString index="253">
            183 -7 callsubr
            return
          </CharString>
          <CharString index="254">
            250 345 308 rmoveto
            125 172 138 161 5 50 2 22 -23 44 -19 1 rrcurveto
            -10 -5 -9 -15 -11 hvcurveto
            -275 -402 -200 -262 -3 -42 -2 -16 23 -25 12 -1 17 -1 53 77 173 246 rrcurveto
            endchar
          </CharString>
          <CharString index="255">
            328 callgsubr
            -44 22 -54 hhcurveto
            -83 -55 -53 -64 -65 57 -54 79 -5 hvcurveto
            -32 -60 -67 -17 -69 hhcurveto
            return
          </CharString>
          <CharString index="256">
            191 callgsubr
            225 callsubr
            return
          </CharString>
          <CharString index="257">
            hhcurveto
            39 22 -24 -48 return
          </CharString>
          <CharString index="258">
            -101 callgsubr
            -490 return
          </CharString>
          <CharString index="259">
            5 18 8 19 hvcurveto
            -4 12 return
          </CharString>
          <CharString index="260">
            360 767 399 rmoveto
            -121 -60 -188 -46 -91 -6 rrcurveto
            -58 44 -66 32 44 vvcurveto
            13 12 5 22 vhcurveto
            87 52 -50 25 hhcurveto
            5 3 1 2 3 hvcurveto
            23 12 7 75 73 vvcurveto
            14 -3 13 -5 11 vhcurveto
            330 hlineto
            return
          </CharString>
          <CharString index="261">
            rmoveto
            267 callgsubr
            hvcurveto
            33 -152 110 103 vvcurveto
            35 -69 55 -37 vhcurveto
            return
          </CharString>
          <CharString index="262">
            -29 -6 -26 -9 -24 vhcurveto
            -12 4 -14 5 -14 8 rrcurveto
            return
          </CharString>
          <CharString index="263">
            rmoveto
            -48 -43 -44 -54 -7 hvcurveto
            -53 -6 35 -44 49 hhcurveto
            49 43 44 53 6 hvcurveto
            54 6 -35 44 -49 hhcurveto
            -7 -56 rmoveto
            17 12 -20 -24 -2 hvcurveto
            -22 -2 -15 -20 -17 hhcurveto
            -17 -12 20 22 3 hvcurveto
            343 callsubr
            return
          </CharString>
          <CharString index="264">
            hlineto
            47 21 163 callsubr
            endchar
          </CharString>
          <CharString index="265">
            133 316 386 rmoveto
            8 66 2 66 50 vvcurveto
            8 247 vlineto
            -9 -51 -10 -50 -10 -52 -45 -6 -89 -17 -75 -11 rrcurveto
            -159 -206 rmoveto
            -26 -44 38 33 26 53 16 73 13 hvcurveto
            -71 -12 -17 -55 -27 hhcurveto
            return
          </CharString>
          <CharString index="266">
            -1 rrcurveto
            -4 5 5 -3 4 211 callsubr
            return
          </CharString>
          <CharString index="267">
            104 50 140 147 107 hhcurveto
            88 40 -84 -118 -9 0 -10 -1 -10 hvcurveto
            return
          </CharString>
          <CharString index="268">
            vvcurveto
            20 -2 22 -4 20 vhcurveto
            -2 8 8 -1 11 hhcurveto
            -245 return
          </CharString>
          <CharString index="269">
            576 rmoveto
            96 callsubr
            return
          </CharString>
          <CharString index="270">
            15 19 23 -27 12 -56 hvcurveto
            return
          </CharString>
          <CharString index="271">
            -34 -75 -66 -146 -36 -18 8 -27 hhcurveto
            -15 -8 -9 -15 -16 13 -14 21 -9 hvcurveto
            5 -6 4 -7 -7 vvcurveto
            -55 -98 -61 -92 -30 -15 13 36 75 38 90 86 61 callsubr
            15 -41 24 -25 return
          </CharString>
          <CharString index="272">
            216 callsubr
            rrcurveto
            -131 -11 -124 -9 -78 110 callgsubr
            return
          </CharString>
          <CharString index="273">
            576 341 callgsubr
            -51 -127 -155 -114 -132 -11 rrcurveto
            83 58 91 95 95 vvcurveto
            63 -35 53 -77 -66 -95 -41 -56 -90 vhcurveto
            2 11 1 12 12 -27 callgsubr
            return
          </CharString>
          <CharString index="274">
            204 callsubr
            5 5 12 44 -64 62 -87 -105 -69 -69 -86 return
          </CharString>
          <CharString index="275">
            215 callsubr
            -25 hvcurveto
            -13 -45 -75 -28 -29 vvcurveto
            -13 11 -4 12 return
          </CharString>
          <CharString index="276">
            4 11 callsubr
            return
          </CharString>
          <CharString index="277">
            rmoveto
            -32 55 -57 34 14 18 18 10 29 -41 94 -27 -25 -28 -37 -25 vhcurveto
            return
          </CharString>
          <CharString index="278">
            -42 59 -76 128 -44 91 rrcurveto
            return
          </CharString>
          <CharString index="279">
            -24 -48 -100 -96 -93 -103 return
          </CharString>
          <CharString index="280">
            681 -44 callgsubr
            return
          </CharString>
          <CharString index="281">
            187 callsubr
            -4 0 -5 hhcurveto
            return
          </CharString>
          <CharString index="282">
            -79 callgsubr
            116 hlineto
            41 return
          </CharString>
          <CharString index="283">
            rmoveto
            42 7 50 13 50 vhcurveto
            44 -72 69 -88 46 -55 rrcurveto
            -32 -45 -50 -26 -39 hhcurveto
            -32 -13 70 61 hvcurveto
            return
          </CharString>
          <CharString index="284">
            -11 -51 -21 -123 -10 -50 rrcurveto
            49 -31 -37 50 -52 hhcurveto
            return
          </CharString>
          <CharString index="285">
            -26 3 -51 1 -56 -1 rrcurveto
            7 54 4 39 17 vvcurveto
            41 -41 46 -21 -17 -5 -9 -21 -43 -6 -60 -9 -67 vhcurveto
            -94 -6 -86 -11 -1 -19 rrcurveto
            -17 23 -34 18 -1 vhcurveto
            37 -1 33 7 59 5 return
          </CharString>
          <CharString index="286">
            -273 216 444 -5 callsubr
            return
          </CharString>
          <CharString index="287">
            149 219 rmoveto
            45 177 33 194 117 vvcurveto
            39 -47 45 -18 -17 -2 -9 -23 vhcurveto
            1 -196 -61 -235 -55 -250 rrcurveto
            -23 -3 35 -40 18 hhcurveto
            19 26 107 97 26 hvcurveto
            return
          </CharString>
          <CharString index="288">
            127 -227 -7 32 vvcurveto
            27 101 22 40 vhcurveto
            31 22 -15 18 hhcurveto
            0 1 vlineto
            21 11 13 32 return
          </CharString>
          <CharString index="289">
            291 17 callgsubr
            return
          </CharString>
          <CharString index="290">
            rmoveto
            -29 -34 38 27 29 64 6 87 9 hvcurveto
            -63 -26 -33 -46 -29 hhcurveto
            return
          </CharString>
          <CharString index="291">
            -22 vvcurveto
            -7 0 -7 1 -7 vhcurveto
            7 -15 return
          </CharString>
          <CharString index="292">
            -54 -63 -68 -50 -1 hvcurveto
            -19 14 -11 19 return
          </CharString>
          <CharString index="293">
            264 callsubr
            -4 return
          </CharString>
          <CharString index="294">
            207 callsubr
            -28 -24 vhcurveto
            1 -4 return
          </CharString>
          <CharString index="295">
            -202 -69 callsubr
            return
          </CharString>
          <CharString index="296">
            -106 callgsubr
            83 hlineto
            -20 return
          </CharString>
          <CharString index="297">
            -105 -162 -171 -130 -49 28 -33 57 return
          </CharString>
          <CharString index="298">
            126 197 -41 callgsubr
            return
          </CharString>
          <CharString index="299">
            -16 -21 120 callsubr
            hvcurveto
            137 -248 -13 32 vvcurveto
            29 105 33 40 vhcurveto
            31 22 -16 18 hhcurveto
            0 1 vlineto
            21 11 17 31 62 7 33 5 24 hvcurveto
            return
          </CharString>
          <CharString index="300">
            19 callgsubr
            -41 -35 return
          </CharString>
          <CharString index="301">
            576 rmoveto
            12 callsubr
            return
          </CharString>
          <CharString index="302">
            18 14 13 vhcurveto
            13 12 return
          </CharString>
          <CharString index="303">
            376 callgsubr
            148 64 145 81 30 vvcurveto
            17 -8 4 -15 -23 -110 -60 -56 -119 vhcurveto
            11 51 83 callsubr
            rlinecurve
            return
          </CharString>
          <CharString index="304">
            183 116 callsubr
            return
          </CharString>
          <CharString index="305">
            -23 -64 -43 -66 hhcurveto
            -14 -8 5 14 13 9 41 32 99 hvcurveto
            16 51 15 52 12 48 rrcurveto
            return
          </CharString>
          <CharString index="306">
            vvcurveto
            -21 29 167 callgsubr
            return
          </CharString>
          <CharString index="307">
            rmoveto
            43 callsubr
            37 8 -55 -60 -8 0 return
          </CharString>
          <CharString index="308">
            499 -76 callgsubr
            return
          </CharString>
          <CharString index="309">
            157 -106 callgsubr
            return
          </CharString>
          <CharString index="310">
            vvcurveto
            44 callgsubr
            return
          </CharString>
          <CharString index="311">
            vhcurveto
            78 30 -53 21 hhcurveto
            7 return
          </CharString>
          <CharString index="312">
            -20 93 callgsubr
            return
          </CharString>
          <CharString index="313">
            vvcurveto
            81 -26 92 -90 return
          </CharString>
          <CharString index="314">
            11 callgsubr
            -30 -30 -18 return
          </CharString>
          <CharString index="315">
            43 94 133 return
          </CharString>
          <CharString index="316">
            hlineto
            -60 -32 -55 -48 -40 vvcurveto
            -44 57 -33 57 -14 vhcurveto
            -17 -11 -16 -13 -13 -12 rrcurveto
            -45 -41 -28 -42 -35 vvcurveto
            -40 30 -30 56 95 114 53 64 78 vhcurveto
            return
          </CharString>
          <CharString index="317">
            -370 rmoveto
            -57 -15 -38 -30 -42 -68 76 47 365 callgsubr
            -199 439 -106 callgsubr
            return
          </CharString>
          <CharString index="318">
            11 callsubr
            117 hlineto
            return
          </CharString>
          <CharString index="319">
            5 -3 169 callsubr
            return
          </CharString>
          <CharString index="320">
            hlineto
            4 -20 5 -28 2 -48 rrcurveto
            3 -20 -23 2 -25 hhcurveto
            return
          </CharString>
          <CharString index="321">
            2 callgsubr
            8 return
          </CharString>
          <CharString index="322">
            -22 -21 345 callgsubr
            return
          </CharString>
          <CharString index="323">
            -5 -30 -7 -29 -8 -29 return
          </CharString>
          <CharString index="324">
            vvcurveto
            -24 24 -18 14 28 33 254 callsubr
          </CharString>
          <CharString index="325">
            -151 2 -131 -1 -1 -28 rrcurveto
            -18 27 -31 27 285 callgsubr
            vhcurveto
            return
          </CharString>
          <CharString index="326">
            4 hlineto
            -38 -38 -31 -44 -37 vvcurveto
            -43 30 -21 50 102 120 53 70 82 vhcurveto
            return
          </CharString>
          <CharString index="327">
            rrcurveto
            -47 -44 -43 -61 -38 vvcurveto
            -40 28 -31 56 return
          </CharString>
          <CharString index="328">
            vvcurveto
            -18 14 -14 return
          </CharString>
          <CharString index="329">
            55 callgsubr
            -108 -152 -197 -97 -36 15 -28 27 -21 hvcurveto
            -68 -25 -58 -53 -64 vvcurveto
            return
          </CharString>
          <CharString index="330">
            42 16 -36 -43 hvcurveto
            -48 -19 -30 -25 vvcurveto
            -16 7 124 callgsubr
            89 75 63 70 hvcurveto
            23 20 24 22 22 20 -14 -72 rcurveline
            return
          </CharString>
          <CharString index="331">
            5 11 callsubr
            return
          </CharString>
          <CharString index="332">
            360 callsubr
            -16 return
          </CharString>
          <CharString index="333">
            228 callsubr
            32 21 20 30 return
          </CharString>
          <CharString index="334">
            -103 79 119 44 196 182 return
          </CharString>
          <CharString index="335">
            20 -15 36 31 vvcurveto
            return
          </CharString>
          <CharString index="336">
            323 callgsubr
            16 return
          </CharString>
          <CharString index="337">
            -106 callgsubr
            -22 callgsubr
            return
          </CharString>
          <CharString index="338">
            98 rmoveto
            -23 -17 14 24 83 117 209 84 34 6 -50 -49 6 hvcurveto
            1 -13 2 -12 3 -9 -38 -107 -122 -92 -53 2 rrcurveto
            return
          </CharString>
          <CharString index="339">
            576 274 callgsubr
            -174 -120 -141 266 callsubr
            return
          </CharString>
          <CharString index="340">
            hhcurveto
            -137 -154 -27 -89 -78 115 -130 80 81 33 87 83 32 -3 31 -7 22 hvcurveto
            5 hlineto
            359 callsubr
            9 return
          </CharString>
          <CharString index="341">
            hlineto
            43 callgsubr
            6 18 14 13 336 callgsubr
            return
          </CharString>
          <CharString index="342">
            vvcurveto
            -74 68 -66 111 25 23 3 6 22 vhcurveto
            -55 -37 -69 -38 -79 return
          </CharString>
          <CharString index="343">
            rmoveto
            28 22 16 25 58 27 -52 -66 11 vhcurveto
            -78 3 -65 26 45 vvcurveto
            return
          </CharString>
          <CharString index="344">
            hhcurveto
            -17 201 callgsubr
            return
          </CharString>
          <CharString index="345">
            -19 -11 -9 -15 -27 79 -14 114 -39 return
          </CharString>
          <CharString index="346">
            -28 215 callsubr
            return
          </CharString>
          <CharString index="347">
            vvcurveto
            42 -25 32 return
          </CharString>
          <CharString index="348">
            rmoveto
            -21 -29 215 callsubr
            -25 hvcurveto
            -12 -45 -75 -28 -29 vvcurveto
            -13 10 -4 12 321 callsubr
            vhcurveto
            return
          </CharString>
          <CharString index="349">
            hlineto
            -13 -71 -13 -69 -14 -73 rrcurveto
            75 -31 -51 79 -63 hhcurveto
            -118 -91 -161 -99 -76 31 -46 80 67 85 32 47 60 hvcurveto
            return
          </CharString>
          <CharString index="350">
            111 callgsubr
            46 -50 -32 return
          </CharString>
          <CharString index="351">
            510 -106 callgsubr
            return
          </CharString>
          <CharString index="352">
            vvcurveto
            -21 32 -27 12 22 return
          </CharString>
          <CharString index="353">
            hhcurveto
            -137 -159 -29 -89 -79 120 -119 75 81 33 87 83 29 -2 27 -6 21 hvcurveto
            8 hlineto
            57 58 -3 40 return
          </CharString>
          <CharString index="354">
            -1 rrcurveto
            40 20 -20 -44 -92 -84 -92 -105 -15 -11 5 6 -9 hvcurveto
            -13 10 -11 7 -11 1 rrcurveto
            1 -3 -3 0 -4 hhcurveto
            return
          </CharString>
          <CharString index="355">
            -50 332 callsubr
            return
          </CharString>
          <CharString index="356">
            -151 -197 -97 return
          </CharString>
          <CharString index="357">
            208 callsubr
            55 return
          </CharString>
          <CharString index="358">
            576 378 callsubr
            -69 -30 -84 -18 -82 -9 rrcurveto
            45 44 28 56 61 -27 callgsubr
            return
          </CharString>
          <CharString index="359">
            -6 161 262 rmoveto
            63 59 115 52 40 48 -86 -71 14 vhcurveto
            -52 -56 -59 -19 -62 hhcurveto
            -29 -7 14 36 hvcurveto
            return
          </CharString>
          <CharString index="360">
            -81 162 86 rmoveto
            -25 -18 44 39 140 88 93 67 23 19 -16 -21 17 hvcurveto
            -130 -9 -90 -149 -72 hhcurveto
            return
          </CharString>
          <CharString index="361">
            174 140 33 vhcurveto
            290 callgsubr
          </CharString>
          <CharString index="362">
            rmoveto
            -3 -20 -4 -19 -4 -20 -55 return
          </CharString>
          <CharString index="363">
            576 119 callgsubr
            return
          </CharString>
          <CharString index="364">
            183 rmoveto
            10 196 callgsubr
            -19 -23 -16 -37 -10 17 30 19 21 16 4 rrcurveto
            -365 -235 rmoveto
            return
          </CharString>
          <CharString index="365">
            -129 -91 -185 -126 -74 26 -59 69 return
          </CharString>
          <CharString index="366">
            152 callsubr
            13 -2 13 hhcurveto
            return
          </CharString>
          <CharString index="367">
            60 -77 vhcurveto
            -69 55 56 -62 return
          </CharString>
          <CharString index="368">
            -84 84 -42 113 return
          </CharString>
          <CharString index="369">
            hlineto
            -16 -82 -14 -91 -17 -86 rrcurveto
            -1 vlineto
            64 -17 -34 64 -58 hhcurveto
            -104 -112 -170 -84 -45 52 -43 42 return
          </CharString>
          <CharString index="370">
            645 rmoveto
            -23 42 -125 99 94 114 callgsubr
            return
          </CharString>
          <CharString index="371">
            rmoveto
            10 3 6 return
          </CharString>
          <CharString index="372">
            -13 272 callsubr
            return
          </CharString>
          <CharString index="373">
            -9 rrcurveto
            96 62 89 338 callsubr
            return
          </CharString>
          <CharString index="374">
            hlineto
            -16 -35 -10 -46 -1 -35 rrcurveto
            12 -19 -21 9 -19 hhcurveto
            return
          </CharString>
          <CharString index="375">
            65 222 callgsubr
            return
          </CharString>
          <CharString index="376">
            46 7 53 12 51 return
          </CharString>
          <CharString index="377">
            hlineto
            109 callsubr
            rrcurveto
            -145 -2 -188 -183 -111 vvcurveto
            return
          </CharString>
          <CharString index="378">
            vvcurveto
            89 -45 72 -96 -88 -59 -58 -45 -20 12 -11 17 vhcurveto
            34 9 68 86 hhcurveto
            42 19 -35 -45 -92 return
          </CharString>
          <CharString index="379">
            vvcurveto
            278 callgsubr
            return
          </CharString>
          <CharString index="380">
            138 callgsubr
            endchar
          </CharString>
          <CharString index="381">
            576 255 callsubr
            return
          </CharString>
          <CharString index="382">
            1 -6 -6 0 -6 hhcurveto
            return
          </CharString>
          <CharString index="383">
            -278 -3 645 169 callgsubr
            return
          </CharString>
          <CharString index="384">
            -275 rmoveto
            -38 -12 -37 -33 -42 -65 52 44 35 66 13 79 3 vhcurveto
            2 -17 5 -12 -43 vvcurveto
            return
          </CharString>
          <CharString index="385">
            146 21 callsubr
            return
          </CharString>
          <CharString index="386">
            6 15 vhcurveto
            30 -249 76 40 vvcurveto
            28 145 60 102 32 vhcurveto
            20 6 15 5 15 vvcurveto
            14 return
          </CharString>
          <CharString index="387">
            -22 -3 -24 184 callsubr
            return
          </CharString>
          <CharString index="388">
            vvcurveto
            -40 29 -32 63 64 75 14 26 71 vhcurveto
            -4 -23 return
          </CharString>
          <CharString index="389">
            89 -58 callsubr
            return
          </CharString>
          <CharString index="390">
            148 105 callgsubr
            return
          </CharString>
          <CharString index="391">
            17 9 124 callsubr
            return
          </CharString>
          <CharString index="392">
            18 37 2 35 9 return
          </CharString>
          <CharString index="393">
            -62 callgsubr
            119 hlineto
            41 return
          </CharString>
          <CharString index="394">
            184 264 callsubr
            -3 -4 -10 -4 -17 -20 -15 -33 -11 15 30 15 20 15 3 rrcurveto
            return
          </CharString>
          <CharString index="395">
            294 callsubr
            -85 return
          </CharString>
          <CharString index="396">
            vhcurveto
            321 callgsubr
            103 157 callsubr
          </CharString>
          <CharString index="397">
            118 -47 callgsubr
            return
          </CharString>
          <CharString index="398">
            rmoveto
            -34 -12 7 29 50 52 82 44 37 27 -43 -64 21 hvcurveto
            -37 -38 -56 -24 -41 hhcurveto
            return
          </CharString>
          <CharString index="399">
            -102 -86 -61 45 -43 52 30 29 22 22 hvcurveto
            36 -69 -5 51 69 94 46 31 vvcurveto
            14 return
          </CharString>
          <CharString index="400">
            rmoveto
            -26 -19 34 24 25 22 9 43 16 16 -2 -3 17 hvcurveto
            -50 -17 -24 -37 -28 hhcurveto
            return
          </CharString>
          <CharString index="401">
            hlineto
            -1 -3 -1 -3 -3 vvcurveto
            -20 34 -35 20 vhcurveto
            21 16 43 56 hhcurveto
            40 19 -23 -43 return
          </CharString>
          <CharString index="402">
            482 -106 callgsubr
            return
          </CharString>
          <CharString index="403">
            -59 -36 callsubr
            return
          </CharString>
          <CharString index="404">
            3 3 0 3 hhcurveto
            68 40 89 99 return
          </CharString>
          <CharString index="405">
            383 callsubr
            -13 17 return
          </CharString>
          <CharString index="406">
            262 callgsubr
            vhcurveto
            return
          </CharString>
          <CharString index="407">
            -8 -47 -9 -46 -9 return
          </CharString>
          <CharString index="408">
            -31 -4 -35 -7 -34 vhcurveto
            4 -21 -22 2 -24 hhcurveto
            -71 -52 -27 -52 -55 48 -70 61 return
          </CharString>
          <CharString index="409">
            -81 -59 -43 -60 -19 hvcurveto
            -12 22 -8 24 23 vvcurveto
            35 -69 55 -37 -10 -5 -4 -12 return
          </CharString>
          <CharString index="410">
            hhcurveto
            -72 -44 37 40 -35 hvcurveto
            122 27 86 90 102 vvcurveto
            31 -7 29 -13 24 vhcurveto
            return
          </CharString>
          <CharString index="411">
            -30 -207 -57 -89 vvcurveto
            -69 82 -62 71 63 28 56 75 31 -3 26 -6 23 vhcurveto
            return
          </CharString>
          <CharString index="412">
            rmoveto
            361 callsubr
            28 -36 68 -22 hvcurveto
            endchar
          </CharString>
          <CharString index="413">
            vlineto
            -105 callgsubr
            endchar
          </CharString>
          <CharString index="414">
            218 rmoveto
            25 21 -25 -15 -41 -79 -20 -85 -3 hvcurveto
            53 35 45 51 38 hhcurveto
            return
          </CharString>
          <CharString index="415">
            168 183 callsubr
            return
          </CharString>
          <CharString index="416">
            66 rmoveto
            26 -29 72 -25 -11 -14 -26 -18 -23 41 -54 19 11 8 8 15 vhcurveto
            return
          </CharString>
          <CharString index="417">
            -74 callgsubr
            116 -104 callsubr
          </CharString>
          <CharString index="418">
            321 rmoveto
            83 callsubr
            rrcurveto
            return
          </CharString>
          <CharString index="419">
            -34 -30 -43 hvcurveto
            -129 242 -44 -92 vvcurveto
            return
          </CharString>
          <CharString index="420">
            -72 -87 -57 67 -50 67 71 30 52 56 28 return
          </CharString>
          <CharString index="421">
            15 76 344 callsubr
            return
          </CharString>
          <CharString index="422">
            371 callgsubr
            16 return
          </CharString>
          <CharString index="423">
            21 -17 35 -18 return
          </CharString>
          <CharString index="424">
            hmoveto
            -86 callgsubr
            return
          </CharString>
          <CharString index="425">
            -43 callgsubr
            -76 -61 -59 return
          </CharString>
          <CharString index="426">
            -93 callsubr
            118 hlineto
            41 return
          </CharString>
          <CharString index="427">
            rmoveto
            0 vlineto
            0 vlineto
            1 vlineto
            0 vlineto
            0 vlineto
            37 -142 -9 52 vvcurveto
            32 return
          </CharString>
          <CharString index="428">
            46 94 64 74 40 -37 33 -40 return
          </CharString>
          <CharString index="429">
            -67 -16 -75 -77 vvcurveto
            -97 return
          </CharString>
          <CharString index="430">
            70 -45 61 hvcurveto
            return
          </CharString>
          <CharString index="431">
            -32 hvcurveto
            -39 -12 -22 -21 vvcurveto
            -21 8 -13 11 28 29 61 60 69 -34 return
          </CharString>
          <CharString index="432">
            -45 -36 hvcurveto
            -43 -12 -19 -26 vvcurveto
            -15 6 -12 18 vhcurveto
            0 1 vlineto
            26 return
          </CharString>
          <CharString index="433">
            185 179 20 -12 23 -14 19 vhcurveto
            return
          </CharString>
          <CharString index="434">
            -100 115 -116 66 222 callgsubr
            return
          </CharString>
          <CharString index="435">
            9 18 48 124 return
          </CharString>
          <CharString index="436">
            335 callsubr
            -14 return
          </CharString>
          <CharString index="437">
            334 348 callsubr
            return
          </CharString>
          <CharString index="438">
            39 118 callgsubr
          </CharString>
          <CharString index="439">
            2 -52 2 callgsubr
            return
          </CharString>
          <CharString index="440">
            206 160 146 198 145 -97 111 -160 return
          </CharString>
          <CharString index="441">
            10 10 15 16 -55 323 callsubr
            383 callsubr
            -12 18 return
          </CharString>
          <CharString index="442">
            446 351 callgsubr
            return
          </CharString>
          <CharString index="443">
            rrcurveto
            243 202 callsubr
            return
          </CharString>
          <CharString index="444">
            rrcurveto
            119 -107 callsubr
          </CharString>
          <CharString index="445">
            107 104 vvcurveto
            30 -6 25 -10 21 vhcurveto
            return
          </CharString>
          <CharString index="446">
            -41 -33 67 35 33 31 15 return
          </CharString>
          <CharString index="447">
            9 22 vvcurveto
            16 -21 10 -39 return
          </CharString>
          <CharString index="448">
            21 41 262 callgsubr
            return
          </CharString>
          <CharString index="449">
            249 callsubr
            -84 return
          </CharString>
          <CharString index="450">
            24 2 16 20 15 hhcurveto
            return
          </CharString>
          <CharString index="451">
            14 80 2 30 rrcurveto
            return
          </CharString>
          <CharString index="452">
            183 133 return
          </CharString>
          <CharString index="453">
            110 callgsubr
            75 8 return
          </CharString>
          <CharString index="454">
            vhcurveto
            2 8 2 8 2 8 12 46 25 34 4 22 rrcurveto
            return
          </CharString>
          <CharString index="455">
            630 rmoveto
            13 6 -6 -13 -55 -91 -62 -66 -5 -6 1 return
          </CharString>
          <CharString index="456">
            -39 24 -12 hvcurveto
            return
          </CharString>
          <CharString index="457">
            -24 -7 -74 -180 hhcurveto
            -80 -85 14 37 55 154 return
          </CharString>
          <CharString index="458">
            60 296 callsubr
            return
          </CharString>
          <CharString index="459">
            hlineto
            -25 -60 -25 -78 -92 vvcurveto
            -98 38 -78 75 151 return
          </CharString>
          <CharString index="460">
            7 -14 vhcurveto
            -41 -68 -89 -151 hhcurveto
            -36 -18 9 27 return
          </CharString>
          <CharString index="461">
            hlineto
            -21 -63 -13 -77 -65 vvcurveto
            -102 31 -101 82 48 60 return
          </CharString>
          <CharString index="462">
            hvcurveto
            314 callsubr
            return
          </CharString>
          <CharString index="463">
            -35 10 26 62 143 117 return
          </CharString>
          <CharString index="464">
            380 callsubr
            -13 -10 -19 return
          </CharString>
          <CharString index="465">
            72 79 39 52 56 return
          </CharString>
          <CharString index="466">
            57 58 -1 40 hhcurveto
            return
          </CharString>
          <CharString index="467">
            329 callgsubr
            104 callsubr
            return
          </CharString>
          <CharString index="468">
            -17 -17 -22 -23 -25 50 -52 23 372 callgsubr
            return
          </CharString>
          <CharString index="469">
            0 5 hhcurveto
            -40 -41 -32 -47 -39 vvcurveto
            -43 29 -25 return
          </CharString>
          <CharString index="470">
            683 -76 callgsubr
            return
          </CharString>
          <CharString index="471">
            -11 -14 -25 -18 -22 40 -52 18 11 7 8 14 return
          </CharString>
          <CharString index="472">
            -107 callgsubr
            316 hlineto
            return
          </CharString>
          <CharString index="473">
            -60 -28 -34 -271 -92 -32 vvcurveto
            -10 10 -5 21 return
          </CharString>
          <CharString index="474">
            120 -102 callgsubr
            return
          </CharString>
          <CharString index="475">
            22 15 vvcurveto
            66 -204 106 -58 1 vhcurveto
            endchar
          </CharString>
          <CharString index="476">
            hlineto
            -47 -56 -34 -68 -60 return
          </CharString>
          <CharString index="477">
            29 23 7 27 -13 13 return
          </CharString>
          <CharString index="478">
            48 -57 83 -64 return
          </CharString>
          <CharString index="479">
            -29 hhcurveto
            111 callgsubr
            return
          </CharString>
          <CharString index="480">
            -20 hhcurveto
            -18 -9 -7 -15 -25 28 -35 34 hvcurveto
            return
          </CharString>
          <CharString index="481">
            hhcurveto
            -31 -13 66 58 63 16 81 25 67 hvcurveto
            return
          </CharString>
          <CharString index="482">
            rrcurveto
            -8 -33 -8 -42 -24 vvcurveto
            -17 5 -14 14 return
          </CharString>
          <CharString index="483">
            -25 vvcurveto
            -16 11 -13 20 18 return
          </CharString>
          <CharString index="484">
            -64 -48 -60 -51 hvcurveto
            -44 -8 return
          </CharString>
          <CharString index="485">
            rmoveto
            -12 -65 -12 -64 -13 -66 return
          </CharString>
          <CharString index="486">
            1 -87 68 -58 72 -9 -17 return
          </CharString>
          <CharString index="487">
            57 -10 48 -37 -18 return
          </CharString>
          <CharString index="488">
            vvcurveto
            1 vlineto
            0 vlineto
            return
          </CharString>
          <CharString index="489">
            240 callsubr
            -46 return
          </CharString>
          <CharString index="490">
            -13 17 -13 18 return
          </CharString>
          <CharString index="491">
            -76 75 -39 113 25 23 2 4 21 return
          </CharString>
          <CharString index="492">
            rmoveto
            -99 callgsubr
            return
          </CharString>
          <CharString index="493">
            -6 -13 vhcurveto
            -110 -18 -101 -25 vvcurveto
            -18 return
          </CharString>
          <CharString index="494">
            25 26 -18 19 -26 -25 -19 -19 -26 vhcurveto
            return
          </CharString>
          <CharString index="495" raw="1">
            f78e1dfb 06771a73 0b 
          </CharString>
          <CharString index="496">
            hlineto
            -14 -70 -12 -78 -14 -75 rrcurveto
            60 -17 return
          </CharString>
          <CharString index="497">
            -13 43 -37 hhcurveto
            return
          </CharString>
        <CharString name=".notdef">
          217 180 hmoveto
          390 701 -390 hlineto
          54 -50 rmoveto
          282 -601 -282 hlineto
          endchar
        </CharString>
        <CharString name="A">
          75 238 345 -97 callsubr
        </CharString>
        <CharString name="AE">
          298 422 385 rmoveto
          -69 -8 -71 -11 -54 -11 47 120 50 112 17 20 12 11 38 5 78 4 -3 -74 -21 -86 -24 -82 rrcurveto
          184 246 rmoveto
          171 2 52 10 2 22 rrcurveto
          22 4 -52 18 -239 hhcurveto
          -165 -92 -9 -50 -29 hvcurveto
          -27 -46 -46 -128 -39 -96 rrcurveto
          -54 -140 -67 -139 -22 vvcurveto
          -28 26 -26 21 23 47 122 135 55 vhcurveto
          38 3 79 16 86 12 rrcurveto
          -25 -82 -21 -73 -48 vvcurveto
          -44 43 -41 71 133 185 63 44 10 -4 8 -11 vhcurveto
          -45 -104 -48 -150 hhcurveto
          -14 -12 10 19 32 24 76 26 86 hvcurveto
          156 20 92 10 24 vvcurveto
          23 1 -32 9 -48 hhcurveto
          -26 -55 -4 -7 -66 hvcurveto
          21 76 17 76 56 vvcurveto
          9 -3 9 -4 8 vhcurveto
          endchar
        </CharString>
        <CharString name="Aacute">
          75 538 884 148 callgsubr
          -186 -459 -97 callsubr
        </CharString>
        <CharString name="Abreve">
          75 399 788 rmoveto
          71 82 63 43 15 -7 8 -16 hvcurveto
          -34 -19 -61 -65 -74 5 96 -29 hhcurveto
          -18 -27 -19 -36 -48 63 -61 68 hvcurveto
          -161 -443 -97 callsubr
        </CharString>
        <CharString name="Acircumflex">
          75 249 794 86 callsubr
          -11 -449 -97 callsubr
        </CharString>
        <CharString name="Adieresis">
          75 483 799 25 callsubr
          -95 -454 -97 callsubr
        </CharString>
        <CharString name="Agrave">
          75 370 807 rmoveto
          7 callgsubr
          228 callgsubr
          rrcurveto
          -22 -542 -97 callsubr
        </CharString>
        <CharString name="Amacron">
          75 255 799 rmoveto
          285 callgsubr
          hvcurveto
          3 callgsubr
          vhcurveto
          -17 -454 -97 callsubr
        </CharString>
        <CharString name="Aogonek">
          75 238 345 rmoveto
          35 94 40 102 39 90 13 -69 12 -90 10 -95 -49 -9 -52 -11 -48 -12 rrcurveto
          324 22 rmoveto
          26 -31 1 -22 -1 vhcurveto
          -12 -1 -12 -1 -14 -2 rrcurveto
          172 -18 -35 169 -43 hhcurveto
          -34 -42 -28 -40 -17 hvcurveto
          -26 -65 -48 -113 -41 -103 -8 -21 -9 -22 -9 -21 rrcurveto
          -52 -18 -36 -18 -14 vvcurveto
          -29 25 -14 24 -1 vhcurveto
          -33 -76 -26 -59 -11 vvcurveto
          -32 34 -29 18 16 40 99 132 50 vhcurveto
          25 8 31 9 39 10 33 9 33 8 32 9 6 -65 5 -65 4 -60 3 -26 3 -19 5 -15 -4 -1 -4 -2 -4 -3 87 callgsubr
          23 18 9 20 -3 15 7 18 5 35 1 56 1 50 -3 63 -5 67 rrcurveto
          50 15 35 15 15 vvcurveto
          endchar
        </CharString>
        <CharString name="Aring">
          75 368 867 156 callgsubr
          -150 -427 -97 callsubr
        </CharString>
        <CharString name="Atilde">
          75 254 787 rmoveto
          344 callgsubr
          hvcurveto
          29 callgsubr
          185 callsubr
          vhcurveto
          -16 -442 -97 callsubr
        </CharString>
        <CharString name="B">
          104 160 96 rmoveto
          9 12 9 41 22 83 12 44 12 42 10 39 rrcurveto
          -15 10 19 -13 17 hhcurveto
          81 127 -28 -43 -77 -187 -78 -141 -7 hvcurveto
          207 535 rmoveto
          61 53 -27 -42 -68 -99 -40 -71 -26 hvcurveto
          -26 -11 -25 -9 -16 -10 rrcurveto
          21 82 14 64 23 vvcurveto
          14 -13 22 -15 17 vhcurveto
          5 35 41 6 40 hhcurveto
          -169 -17 rmoveto
          -1 -166 -99 -243 -45 vvcurveto
          1 -27 26 -28 19 -9 rrcurveto
          -3 hlineto
          -70 -29 44 -19 hhcurveto
          -9 -8 -9 -17 -38 68 -59 84 205 212 115 122 57 -72 62 -126 8 hvcurveto
          128 41 66 67 78 vvcurveto
          96 -107 52 -185 -81 -64 -19 -23 -16 30 -43 26 vhcurveto
          endchar
        </CharString>
        <CharString name="C">
          66 551 625 50 callgsubr
        </CharString>
        <CharString name="CR">
          endchar
        </CharString>
        <CharString name="Cacute">
          96 615 962 -67 callgsubr
          -63 -337 50 callgsubr
        </CharString>
        <CharString name="Ccaron">
          96 647 943 -61 callsubr
          -95 -318 50 callgsubr
        </CharString>
        <CharString name="Ccedilla">
          96 471 718 rmoveto
          -186 -219 -313 -190 -78 65 -77 73 -28 hvcurveto
          -19 -48 -26 -39 197 callgsubr
          12 20 9 20 6 15 rrcurveto
          114 5 161 108 45 vvcurveto
          12 -8 10 -6 vhcurveto
          -30 -94 -87 -146 hhcurveto
          -53 -46 33 64 178 213 235 106 hvcurveto
          31 18 -15 17 hhcurveto
          4 4 3 13 35 -46 58 -35 hvcurveto
          endchar
        </CharString>
        <CharString name="D">
          87 callsubr
          endchar
        </CharString>
        <CharString name="Dcaron">
          87 callsubr
          453 169 101 callsubr
        </CharString>
        <CharString name="Dcroat">
          92 212 286 rmoveto
          7 52 49 6 -1 hhcurveto
          32 4 17 12 -3 18 -4 26 -44 18 -58 -8 rrcurveto
          0 -6 -1 -11 -1 vhcurveto
          31 105 16 65 36 119 callsubr
          6 41 12 60 13 44 rrcurveto
          -47 472 rmoveto
          -12 -8 -6 -14 -22 27 -33 42 -18 hvcurveto
          -5 -70 -28 -104 -28 -99 rrcurveto
          -5 -44 -39 -4 1 hhcurveto
          -41 -6 -13 -19 3 -20 4 -21 27 -16 44 5 rrcurveto
          0 14 2 21 3 vhcurveto
          -20 -73 -16 -63 -32 273 callsubr
        </CharString>
        <CharString name="E">
          52 267 615 -83 callgsubr
        </CharString>
        <CharString name="Eacute">
          52 576 884 148 callgsubr
          -195 -189 -83 callgsubr
        </CharString>
        <CharString name="Ecaron">
          52 406 774 50 callsubr
          -139 -159 -83 callgsubr
        </CharString>
        <CharString name="Ecircumflex">
          52 287 794 86 callsubr
          -20 -179 -83 callgsubr
        </CharString>
        <CharString name="Edieresis">
          52 521 799 25 callsubr
          -104 -184 -83 callgsubr
        </CharString>
        <CharString name="Edotaccent">
          52 441 788 rmoveto
          13 15 15 9 26 -35 81 -24 -22 -25 -33 -23 -29 50 -46 28 hvcurveto
          -174 -173 -83 callgsubr
        </CharString>
        <CharString name="Egrave">
          52 408 807 rmoveto
          7 callgsubr
          228 callgsubr
          rrcurveto
          -31 -272 -83 callgsubr
        </CharString>
        <CharString name="Emacron">
          52 293 799 rmoveto
          285 callgsubr
          hvcurveto
          3 callgsubr
          vhcurveto
          -26 -184 -83 callgsubr
        </CharString>
        <CharString name="Eogonek">
          52 267 615 rmoveto
          29 5 38 8 44 5 rrcurveto
          131 15 96 -1 34 vvcurveto
          23 -87 6 -114 -158 -51 -13 -26 -9 vhcurveto
          -3 -5 -1 -7 -9 -181 -119 -249 -115 vvcurveto
          -48 54 -42 61 61 70 12 19 60 vhcurveto
          -15 -24 -10 -24 -23 -37 callgsubr
          370 callsubr
          -5 5 -6 3 -7 2 rrcurveto
          1 -2 -3 1 -3 -25 -125 -49 -156 hhcurveto
          -15 -12 10 17 34 27 81 27 92 hvcurveto
          145 127 20 49 9 -13 5 -21 -35 -57 -8 -2 -98 hvcurveto
          -10 -8 0 1 -8 hvcurveto
          20 74 17 75 56 vvcurveto
          endchar
        </CharString>
        <CharString name="Eth">
          86 230 292 rmoveto
          48 9 64 15 -1 9 8 18 -20 16 -32 -2 rrcurveto
          4 -22 0 -25 vhcurveto
          28 98 15 61 35 119 callsubr
          6 41 12 60 13 44 rrcurveto
          -47 472 rmoveto
          -12 -8 -6 -14 -22 27 -33 42 -18 hvcurveto
          -5 -65 -25 -96 -26 -93 -33 -5 -92 -22 2 -14 -12 -17 6 -17 28 -3 rrcurveto
          -3 44 3 36 3 vhcurveto
          -23 -84 -20 -74 -35 273 callsubr
        </CharString>
        <CharString name="Euro">
          20 205 209 rmoveto
          189 26 104 18 28 vvcurveto
          18 -37 7 -44 -42 -95 -7 -12 -87 vhcurveto
          7 27 11 27 15 27 9 1 9 0 10 1 rrcurveto
          156 11 114 10 26 vvcurveto
          1 18 -20 9 -37 5 -23 3 -81 1 -84 -3 rrcurveto
          79 64 83 59 59 29 12 -30 16 hhcurveto
          11 11 16 18 27 -41 58 -38 -119 -119 -107 -127 -74 hvcurveto
          -67 -6 -51 -10 -1 -16 rrcurveto
          -18 22 -37 19 -1 vhcurveto
          12 12 0 2 12 hvcurveto
          -11 -28 -8 -28 -6 -27 rrcurveto
          -53 -9 -39 -11 -9 vvcurveto
          -17 23 -37 18 15 14 0 2 15 vhcurveto
          -99 6 70 -79 119 hhcurveto
          109 151 91 43 12 -6 11 -11 hvcurveto
          -32 -85 -70 -123 hhcurveto
          -70 -35 43 61 -7 hvcurveto
          endchar
        </CharString>
        <CharString name="F">
          -10 197 313 rmoveto
          129 147 30 43 9 -15 7 -23 -36 -56 -10 -1 -88 hvcurveto
          -16 -13 0 1 -12 hvcurveto
          21 92 18 87 38 vvcurveto
          3 0 3 -1 3 vhcurveto
          31 3 41 7 49 4 rrcurveto
          121 13 95 1 29 vvcurveto
          25 -87 13 -103 -157 -54 -14 -27 -10 vhcurveto
          -3 -6 -2 -7 -9 vvcurveto
          -2 -136 -105 -336 -10 -86 rrcurveto
          -24 -2 39 -52 18 hhcurveto
          13 13 66 95 25 hvcurveto
          9 37 12 48 12 51 rrcurveto
          endchar
        </CharString>
        <CharString name="G">
          78 462 622 rmoveto
          283 callgsubr
          21 callgsubr
          endchar
        </CharString>
        <CharString name="Gbreve">
          78 453 717 rmoveto
          21 callgsubr
          283 callgsubr
          hvcurveto
          201 193 102 callgsubr
        </CharString>
        <CharString name="H">
          137 205 300 rmoveto
          31 7 36 8 42 8 57 10 52 7 45 6 rrcurveto
          -31 -120 -29 -109 -30 vvcurveto
          -36 35 -34 19 12 28 125 125 34 vhcurveto
          25 93 rlineto
          39 8 23 9 16 vvcurveto
          16 -18 8 -28 4 vhcurveto
          27 102 18 79 25 vvcurveto
          44 -43 49 -20 -15 -5 -8 -22 -51 -24 -106 -27 -110 vhcurveto
          -66 -4 -106 -13 -87 -18 rrcurveto
          30 118 19 93 28 vvcurveto
          44 -41 49 -20 -17 -3 -7 -23 -60 -34 -136 -33 -129 vhcurveto
          -32 -10 -20 -10 -9 vvcurveto
          -22 15 -18 17 -6 vhcurveto
          -24 -94 -20 -80 -28 vvcurveto
          -25 38 -46 19 12 27 125 125 34 vhcurveto
          endchar
        </CharString>
        <CharString name="I">
          -40 callgsubr
          endchar
        </CharString>
        <CharString name="Iacute">
          -40 callgsubr
          187 274 -67 callgsubr
          endchar
        </CharString>
        <CharString name="Icircumflex">
          -40 callgsubr
          162 214 -44 callgsubr
          endchar
        </CharString>
        <CharString name="Idieresis">
          -40 callgsubr
          60 137 -21 callgsubr
          endchar
        </CharString>
        <CharString name="Idotaccent">
          -40 callgsubr
          26 175 157 callgsubr
        </CharString>
        <CharString name="Igrave">
          -40 callgsubr
          -36 265 rmoveto
          228 callgsubr
          110 -80 rcurveline
          7 callgsubr
          rrcurveto
          endchar
        </CharString>
        <CharString name="Imacron">
          -40 callgsubr
          92 127 rmoveto
          3 callgsubr
          285 callgsubr
          vhcurveto
          endchar
        </CharString>
        <CharString name="Iogonek">
          -223 71 63 rmoveto
          -48 -37 -64 -68 -57 -37 callgsubr
          14 11 9 12 4 12 18 39 24 112 27 107 rrcurveto
          42 171 30 126 36 vvcurveto
          44 1 -44 49 -21 hhcurveto
          -16 -5 -8 -22 hvcurveto
          -1 -112 -119 -433 -59 vvcurveto
          -6 2 -6 3 -8 vhcurveto
          endchar
        </CharString>
        <CharString name="J">
          -65 26 194 rmoveto
          -12 -6 -9 -20 -48 99 -104 90 107 18 92 352 101 hvcurveto
          22 78 52 127 29 vvcurveto
          24 -25 9 -20 -56 -251 -52 -52 -14 13 -11 24 33 99 32 13 87 vhcurveto
          -25 -41 -32 -103 -17 -63 rrcurveto
          -276 -74 -29 -62 -39 -76 -57 99 -26 hhcurveto
          endchar
        </CharString>
        <CharString name="K">
          58 105 20 70 callgsubr
        </CharString>
        <CharString name="L">
          13 281 647 4 callsubr
        </CharString>
        <CharString name="Lacute">
          13 435 962 -67 callgsubr
          -154 -315 4 callsubr
        </CharString>
        <CharString name="Lcaron">
          13 421 628 rmoveto
          -12 -46 -75 -28 -28 vvcurveto
          -13 10 -5 12 46 94 65 74 40 -37 33 -40 -22 -28 -22 -22 345 callgsubr
          -24 vhcurveto
          -140 19 4 callsubr
        </CharString>
        <CharString name="Lslash">
          -19 219 373 rmoveto
          8 3 113 41 34 14 -4 21 rlinecurve
          -3 14 -15 3 -48 -10 -64 -14 rcurveline
          24 85 17 74 43 vvcurveto
          40 -41 38 -20 -17 -4 -9 -21 -59 -28 -107 -31 -108 vhcurveto
          -75 -20 -54 -20 4 -17 3 -17 33 -25 26 7 9 2 13 4 18 5 rrcurveto
          -29 -101 -26 -90 -40 vvcurveto
          -48 55 -44 64 138 173 59 57 12 -2 5 -14 vhcurveto
          -26 -118 -49 -154 hhcurveto
          -15 -11 8 16 21 11 44 32 103 hvcurveto
          endchar
        </CharString>
        <CharString name="M">
          256 283 643 rmoveto
          31 -3 -59 44 -15 hhcurveto
          -17 -4 -8 -22 hvcurveto
          -117 -129 -409 -72 vvcurveto
          -24 32 -46 16 14 31 123 124 36 vhcurveto
          18 62 23 100 12 76 36 -114 39 -100 22 -32 rrcurveto
          -21 16 21 -10 18 hhcurveto
          41 69 91 229 183 hvcurveto
          -56 -152 -53 -234 -64 vvcurveto
          -42 22 -36 18 22 22 134 155 41 vhcurveto
          44 157 40 127 54 vvcurveto
          28 -35 32 -22 -42 -121 -182 -195 -164 vhcurveto
          -57 122 -54 144 -5 47 rrcurveto
          endchar
        </CharString>
        <CharString name="N">
          144 645 659 -48 callgsubr
          endchar
        </CharString>
        <CharString name="NULL">
          endchar
        </CharString>
        <CharString name="Nacute">
          144 533 962 -67 callgsubr
          112 -303 -48 callgsubr
          endchar
        </CharString>
        <CharString name="Ncaron">
          144 565 943 -61 callsubr
          80 -284 -48 callgsubr
          endchar
        </CharString>
        <CharString name="Ntilde">
          144 645 659 -48 callgsubr
          -259 276 rmoveto
          185 callsubr
          344 callgsubr
          vhcurveto
          29 callgsubr
          endchar
        </CharString>
        <CharString name="O">
          131 callgsubr
          endchar
        </CharString>
        <CharString name="OE">
          407 220 96 rmoveto
          -42 -34 46 76 188 170 211 77 47 43 -58 -114 -134 -157 -215 -104 hvcurveto
          302 528 rmoveto
          47 -32 -47 31 -56 hhcurveto
          -141 -192 -243 -252 -80 69 -109 90 68 65 34 51 56 hvcurveto
          -45 55 -42 63 140 194 59 50 12 -3 8 -13 vhcurveto
          -26 -132 -47 -156 hhcurveto
          -15 -12 8 17 38 26 78 26 87 hvcurveto
          1 hlineto
          146 134 21 47 9 -14 5 -23 -36 -58 -8 -2 -100 hvcurveto
          -11 -10 0 1 -8 hvcurveto
          20 71 16 73 60 vvcurveto
          31 5 40 8 48 6 rrcurveto
          132 14 102 -2 33 vvcurveto
          22 -93 7 -115 -152 -56 -11 -24 -14 vhcurveto
          -5 -5 -2 -8 -12 vvcurveto
          endchar
        </CharString>
        <CharString name="Oacute">
          80 588 962 -67 callgsubr
          -534 -748 -62 callsubr
          endchar
        </CharString>
        <CharString name="Ocircumflex">
          80 563 902 -44 callgsubr
          -509 -688 -62 callsubr
          endchar
        </CharString>
        <CharString name="Odieresis">
          80 461 825 -21 callgsubr
          -558 -611 -62 callsubr
          endchar
        </CharString>
        <CharString name="Ograve">
          131 callgsubr
          -37 316 rmoveto
          228 callgsubr
          110 -80 rcurveline
          7 callgsubr
          rrcurveto
          endchar
        </CharString>
        <CharString name="Ohungarumlaut">
          80 503 989 -14 callgsubr
          -609 -764 -62 callsubr
          endchar
        </CharString>
        <CharString name="Omacron">
          80 493 815 rmoveto
          3 callgsubr
          285 callgsubr
          vhcurveto
          -439 -601 -62 callsubr
          endchar
        </CharString>
        <CharString name="Oslash">
          80 505 458 rmoveto
          -147 -173 -215 -102 -21 -22 13 23 -16 vhcurveto
          65 82 102 128 160 183 rrcurveto
          4 -19 3 -23 -25 vvcurveto
          -360 -238 rmoveto
          196 177 221 80 22 25 -14 -27 19 vhcurveto
          -59 -69 -70 -89 -66 -82 -43 -53 -45 -55 -39 -48 rrcurveto
          -1 7 0 6 7 vvcurveto
          436 399 rmoveto
          34 37 9 22 14 vvcurveto
          14 -10 9 -14 -14 -27 -21 -34 -33 vhcurveto
          38 -34 -45 24 -51 hhcurveto
          -142 -200 -256 -252 -30 10 -34 17 -31 hvcurveto
          -27 -37 -18 -27 -11 vvcurveto
          -16 10 -13 17 10 16 17 36 30 vhcurveto
          -30 29 37 -21 40 hhcurveto
          188 184 266 187 46 -11 46 -20 40 hvcurveto
          endchar
        </CharString>
        <CharString name="Otilde">
          131 callgsubr
          39 298 rmoveto
          185 callsubr
          344 callgsubr
          vhcurveto
          29 callgsubr
          endchar
        </CharString>
        <CharString name="P">
          10 204 340 rmoveto
          35 129 14 68 40 vvcurveto
          14 -4 14 -6 13 vhcurveto
          13 29 38 17 45 hhcurveto
          65 51 -42 -59 -84 -109 -81 -158 -42 hvcurveto
          355 213 rmoveto
          106 -92 71 -127 -78 -120 -36 -35 -11 11 -17 13 -12 vhcurveto
          -8 -182 -115 -290 -68 vvcurveto
          -25 33 -39 19 15 36 125 122 36 vhcurveto
          217 42 160 100 149 vvcurveto
          endchar
        </CharString>
        <CharString name="Q">
          108 247 96 rmoveto
          -44 -58 47 78 115 58 126 67 83 hvcurveto
          -5 -21 -2 -22 -25 vvcurveto
          -83 31 -138 40 -125 vhcurveto
          -22 -30 -30 -13 -27 hhcurveto
          269 365 rmoveto
          -87 -53 -107 -65 -76 vhcurveto
          -29 97 -24 115 128 vvcurveto
          43 8 33 15 21 vhcurveto
          5 12 12 3 11 hhcurveto
          49 64 -61 -114 hvcurveto
          91 9 rmoveto
          127 -97 122 -114 -144 -195 -248 -257 -99 93 -95 93 41 40 12 20 38 vhcurveto
          -108 41 45 -83 32 hhcurveto
          15 10 6 17 33 -38 75 -38 106 hvcurveto
          105 92 73 156 124 vvcurveto
          endchar
        </CharString>
        <CharString name="R">
          51 241 607 rmoveto
          170 callgsubr
          226 callgsubr
          -48 -309 -10 callsubr
          endchar
        </CharString>
        <CharString name="Racute">
          42 204 352 rmoveto
          226 callgsubr
          170 callgsubr
          -16 -54 -10 callsubr
          214 600 24 callsubr
        </CharString>
        <CharString name="Rcaron">
          42 381 774 50 callsubr
          -177 -422 rmoveto
          226 callgsubr
          170 callgsubr
          -16 -54 -10 callsubr
          endchar
        </CharString>
        <CharString name="S">
          -2 214 21 -20 callsubr
          endchar
        </CharString>
        <CharString name="Sacute">
          6 527 962 -67 callgsubr
          -300 -941 -20 callsubr
          endchar
        </CharString>
        <CharString name="Scaron">
          6 559 943 -61 callsubr
          -332 -922 -20 callsubr
          endchar
        </CharString>
        <CharString name="T">
          2 389 714 28 callsubr
        </CharString>
        <CharString name="Tcaron">
          -58 311 733 50 callsubr
          65 -19 28 callsubr
        </CharString>
        <CharString name="Thorn">
          -30 182 262 rmoveto
          16 62 15 63 13 55 rrcurveto
          10 23 23 6 21 hhcurveto
          48 46 -29 -44 -72 -111 -57 -94 6 hvcurveto
          119 286 rmoveto
          -16 -20 -3 -5 -20 hvcurveto
          4 23 2 18 11 vvcurveto
          55 -50 34 -20 -19 -4 -9 -22 vhcurveto
          -191 -107 -314 -67 vvcurveto
          -24 27 -39 20 19 19 73 96 26 vhcurveto
          155 -7 154 87 122 vvcurveto
          77 -91 85 -79 vhcurveto
          endchar
        </CharString>
        <CharString name="U">
          65 254 34 callsubr
          endchar
        </CharString>
        <CharString name="Uacute">
          59 468 962 -67 callgsubr
          -219 -326 -66 callgsubr
          endchar
        </CharString>
        <CharString name="Ucircumflex">
          59 443 902 -44 callgsubr
          -194 -266 -66 callgsubr
          endchar
        </CharString>
        <CharString name="Udieresis">
          59 341 825 -21 callgsubr
          -243 -189 -66 callgsubr
          endchar
        </CharString>
        <CharString name="Ugrave">
          29 callsubr
          -4 317 rmoveto
          228 callgsubr
          110 -80 rcurveline
          7 callgsubr
          rrcurveto
          endchar
        </CharString>
        <CharString name="Uhungarumlaut">
          29 callsubr
          134 353 -14 callgsubr
          endchar
        </CharString>
        <CharString name="Umacron">
          29 callsubr
          124 179 rmoveto
          3 callgsubr
          285 callgsubr
          vhcurveto
          endchar
        </CharString>
        <CharString name="Uogonek">
          10 261 -2 rmoveto
          8 6 6 6 4 7 158 41 135 258 -8 297 rrcurveto
          59 -60 47 -23 -14 -4 -6 -15 vhcurveto
          -31 9 -31 -74 vvcurveto
          -252 -142 -214 -86 -46 -30 51 75 vhcurveto
          109 81 218 87 vvcurveto
          43 -46 40 -19 -16 -4 -8 -22 vhcurveto
          -126 -84 -196 -161 vvcurveto
          -74 43 -79 61 -29 vhcurveto
          -36 -37 -33 -46 -41 -37 callgsubr
          endchar
        </CharString>
        <CharString name="Uring">
          59 390 967 156 callsubr
          -134 -275 -66 callgsubr
          endchar
        </CharString>
        <CharString name="V">
          -1 545 718 rmoveto
          -43 -171 -333 -238 -84 hvcurveto
          -52 199 -13 238 -18 58 rrcurveto
          45 -17 -34 31 -27 hhcurveto
          -11 -6 -9 -22 -69 82 -452 36 -89 hvcurveto
          -32 13 26 -32 17 hhcurveto
          39 41 133 211 106 hvcurveto
          95 191 69 89 45 vvcurveto
          18 -27 18 -21 vhcurveto
          endchar
        </CharString>
        <CharString name="W">
          249 498 719 rmoveto
          -32 -16 -7 -22 -25 32 -38 42 hvcurveto
          84 -3 38 -117 -103 vvcurveto
          -142 -62 -149 -77 vhcurveto
          -73 24 300 -57 hhcurveto
          -44 -124 -144 -134 -78 hvcurveto
          16 195 48 219 10 89 rrcurveto
          38 2 -56 42 -27 hhcurveto
          -13 -8 -9 -28 -1 hvcurveto
          -1 -220 -45 -188 -8 -171 rrcurveto
          -43 -1 41 -40 18 hhcurveto
          27 41 36 118 85 hvcurveto
          31 43 28 39 30 42 rrcurveto
          -161 11 31 -116 91 hhcurveto
          124 106 188 184 175 -72 152 -165 hvcurveto
          endchar
        </CharString>
        <CharString name="X">
          91 312 421 rmoveto
          -52 92 -40 92 2 66 rrcurveto
          29 1 -51 19 -36 hhcurveto
          -11 -2 -12 -15 -1 hvcurveto
          -3 -67 62 -142 76 -136 -92 -121 -82 -99 -34 -35 rrcurveto
          -16 -17 -8 -5 -12 vvcurveto
          -16 -1 30 -22 20 hhcurveto
          45 66 98 152 117 hvcurveto
          -137 83 87 -114 34 hhcurveto
          12 14 10 23 hvcurveto
          2 32 -92 123 -84 136 114 146 67 86 37 37 rrcurveto
          27 25 23 2 20 vvcurveto
          19 1 -38 37 -15 hhcurveto
          -36 -45 -43 -216 -155 hvcurveto
          endchar
        </CharString>
        <CharString name="Y">
          23 callsubr
          endchar
        </CharString>
        <CharString name="Yacute">
          23 callsubr
          147 589 -67 callgsubr
          endchar
        </CharString>
        <CharString name="Ydieresis">
          23 callsubr
          20 452 -21 callgsubr
          endchar
        </CharString>
        <CharString name="Z">
          87 562 571 -27 callsubr
          endchar
        </CharString>
        <CharString name="Zacute">
          87 508 962 -67 callgsubr
          54 -391 -27 callsubr
          endchar
        </CharString>
        <CharString name="Zcaron">
          87 540 943 -61 callsubr
          22 -372 -27 callsubr
          endchar
        </CharString>
        <CharString name="Zdotaccent">
          87 562 571 -27 callsubr
          -215 292 157 callgsubr
        </CharString>
        <CharString name="a">
          -64 343 232 callgsubr
          75 45 rmoveto
          371 callsubr
          -132 -158 -256 -119 -57 75 -64 60 54 63 52 61 48 vhcurveto
          -65 3 16 -48 24 hhcurveto
          23 -1 57 62 11 hvcurveto
          14 77 8 42 30 vvcurveto
          8 -5 9 -7 9 vhcurveto
          13 20 12 29 22 vvcurveto
          endchar
        </CharString>
        <CharString name="aacute">
          -42 365 334 -78 callgsubr
          74 125 24 callsubr
        </CharString>
        <CharString name="abreve">
          -42 365 334 -78 callgsubr
          226 185 102 callgsubr
        </CharString>
        <CharString name="acircumflex">
          -42 365 334 -78 callgsubr
          158 170 -44 callgsubr
          endchar
        </CharString>
        <CharString name="acute">
          133 837 -67 callgsubr
          endchar
        </CharString>
        <CharString name="adieresis">
          -42 349 578 rmoveto
          12 14 15 11 27 -35 73 -23 -21 -23 -30 -22 -27 45 -47 31 hvcurveto
          16 -244 -78 callgsubr
          149 193 rmoveto
          -21 -24 -30 -22 -27 46 -47 30 391 callgsubr
          27 -35 73 -23 hvcurveto
          endchar
        </CharString>
        <CharString name="ae">
          210 314 511 rmoveto
          -142 -143 -254 -119 -61 73 -62 55 63 53 55 72 54 hvcurveto
          -76 14 68 -51 88 hhcurveto
          80 100 55 35 12 -8 8 -18 hvcurveto
          -28 -42 -35 -98 hhcurveto
          -55 -29 27 45 24 5 28 9 27 hvcurveto
          -9 38 41 -7 47 hhcurveto
          171 callgsubr
          -54 -52 -36 -47 -42 hvcurveto
          44 -20 -45 39 -48 hhcurveto
          123 -213 rmoveto
          72 35 57 62 52 hhcurveto
          33 41 -49 -32 -39 -56 -23 -83 -22 -29 3 6 -28 hvcurveto
          -114 130 rmoveto
          31 12 -30 -53 2 hvcurveto
          -12 -20 -9 -22 -6 -20 -57 -117 -72 -70 -59 2 rrcurveto
          -20 -22 14 24 83 119 209 93 hvcurveto
          endchar
        </CharString>
        <CharString name="agrave">
          -42 365 334 -78 callgsubr
          14 226 rmoveto
          -19 19 -19 -6 -16 -18 228 callgsubr
          110 -80 rcurveline
          18 -14 24 -22 20 22 15 16 -9 22 -20 20 rrcurveto
          endchar
        </CharString>
        <CharString name="amacron">
          -42 365 334 -78 callgsubr
          181 143 121 callgsubr
        </CharString>
        <CharString name="ampersand">
          171 104 111 rmoveto
          28 66 54 78 65 vhcurveto
          18 -32 21 -30 22 -28 rrcurveto
          -45 -72 -67 -35 -40 hhcurveto
          -15 -11 9 14 hvcurveto
          163 376 rmoveto
          67 2 33 51 51 hhcurveto
          35 15 -26 -30 hvcurveto
          -1 -47 -54 -57 -67 -59 -10 35 -5 35 1 31 rrcurveto
          302 -396 rmoveto
          -49 -48 22 35 -42 hvcurveto
          119 80 102 89 26 vvcurveto
          18 -8 15 -23 -18 -114 -89 -78 -116 vhcurveto
          -25 30 -21 35 -16 36 91 80 89 89 2 78 rrcurveto
          48 1 -24 76 -96 hhcurveto
          -115 -77 -85 -102 -2 hvcurveto
          -1 -50 13 -58 23 -57 rrcurveto
          -99 -81 -100 -77 -48 vvcurveto
          -52 63 -62 52 56 91 43 55 90 vhcurveto
          -53 58 65 -34 66 hhcurveto
          68 29 19 28 1 hvcurveto
          18 -20 6 -65 vhcurveto
          endchar
        </CharString>
        <CharString name="aogonek">
          -42 365 232 callgsubr
          -11 -312 rmoveto
          -48 -37 -64 -68 -57 -37 callgsubr
          370 callsubr
          rrcurveto
          6 -6 -8 4 -9 hhcurveto
          8 22 2 39 7 41 rrcurveto
          14 77 8 42 30 vvcurveto
          8 -5 9 -7 9 vhcurveto
          13 20 12 29 22 vvcurveto
          371 callsubr
          -132 -158 -256 -119 -57 75 -64 60 54 63 52 61 48 vhcurveto
          3 -48 9 -39 14 -17 rrcurveto
          endchar
        </CharString>
        <CharString name="approxequal">
          56 212 325 80 callgsubr
          53 230 80 callgsubr
          endchar
        </CharString>
        <CharString name="aring">
          -42 365 334 -78 callgsubr
          125 135 rmoveto
          -22 -2 -15 -20 -17 hhcurveto
          -17 -12 20 22 3 hvcurveto
          343 callsubr
          17 12 -20 -24 -2 hvcurveto
          -20 100 rmoveto
          -48 -43 -44 -54 -7 hvcurveto
          -53 -6 35 -44 49 hhcurveto
          49 43 44 53 6 hvcurveto
          54 6 -35 44 -49 hhcurveto
          endchar
        </CharString>
        <CharString name="asciicircum">
          -111 334 683 rmoveto
          -37 88 -2 32 -18 19 rrcurveto
          12 -11 -34 11 -19 hhcurveto
          -36 -84 -131 -72 -21 hvcurveto
          -13 -40 11 -28 15 -9 12 -8 8 15 21 27 25 24 26 71 51 55 rrcurveto
          -70 34 64 -126 34 hhcurveto
          11 5 4 14 13 -18 40 -24 59 hvcurveto
          endchar
        </CharString>
        <CharString name="asciitilde">
          61 239 430 80 callgsubr
          endchar
        </CharString>
        <CharString name="asterisk">
          -176 196 563 rmoveto
          -15 20 -19 16 14 9 64 31 4 vhcurveto
          -25 17 33 -43 24 hhcurveto
          10 14 8 10 18 -65 40 -16 21 hvcurveto
          72 -13 61 16 23 vvcurveto
          9 -18 4 -24 -20 -42 -4 -11 -31 vhcurveto
          36 18 65 36 9 vvcurveto
          15 -23 17 -13 -12 -40 -49 -26 -25 vhcurveto
          12 24 12 22 10 vvcurveto
          16 -35 24 -15 -8 -4 -3 -12 -13 4 -34 3 -32 vhcurveto
          -16 14 -18 28 8 vvcurveto
          15 -45 11 -25 -10 0 -5 -9 -12 47 -50 41 -23 vhcurveto
          -1 -39 -50 7 -9 hhcurveto
          -11 -6 -5 -8 -15 17 -25 23 16 41 13 6 20 hvcurveto
          -30 -25 -60 -34 -11 vvcurveto
          -10 15 -18 15 11 51 57 23 15 vhcurveto
          -3 -12 -25 -44 -11 vvcurveto
          endchar
        </CharString>
        <CharString name="at">
          432 605 354 rmoveto
          -10 -1 -5 -6 -2 -8 rrcurveto
          -124 -29 -107 -92 -54 hhcurveto
          -23 -25 18 25 79 131 201 78 26 16 -40 -45 4 hvcurveto
          225 276 rmoveto
          63 -57 -72 30 -94 hhcurveto
          -340 -224 -346 -257 -159 128 -133 162 113 167 53 59 43 -87 -77 -191 -132 -69 87 129 227 203 294 272 151 66 -107 -136 -159 -144 -128 -40 38 hvcurveto
          -32 34 59 76 -6 41 rrcurveto
          8 -6 9 -8 8 vhcurveto
          12 16 10 23 21 vvcurveto
          51 -56 77 -62 -129 -153 -239 -116 -55 74 -63 59 45 57 42 52 49 vhcurveto
          -41 9 31 -32 43 hhcurveto
          117 158 163 180 100 -27 62 -56 62 hvcurveto
          endchar
        </CharString>
        <CharString name="atilde">
          -42 365 334 -78 callgsubr
          228 191 rmoveto
          -37 -7 -63 -7 -35 hvcurveto
          7 -35 -8 75 -70 hhcurveto
          185 callsubr
          344 callgsubr
          vhcurveto
          -55 36 38 -33 38 hhcurveto
          52 48 63 47 1 hvcurveto
          21 1 -10 12 -16 hhcurveto
          endchar
        </CharString>
        <CharString name="b">
          -8 233 92 rmoveto
          -29 -38 19 41 -32 hvcurveto
          141 65 107 133 81 hhcurveto
          27 9 -23 -36 -133 -105 -142 -85 hvcurveto
          -127 -11 rmoveto
          1 2 rlineto
          -43 41 46 -26 51 hhcurveto
          135 126 211 140 72 -47 77 -65 -68 -78 -68 -92 -69 hvcurveto
          39 164 14 137 49 vvcurveto
          40 -42 377 callgsubr
          -297 -126 -324 -65 vvcurveto
          -23 33 -37 19 8 11 27 40 12 vhcurveto
          endchar
        </CharString>
        <CharString name="backslash">
          67 474 -77 rmoveto
          16 31 39 18 49 -133 314 -183 424 hvcurveto
          20 -9 -1 9 -14 hhcurveto
          -15 -42 -52 -29 -54 99 -174 82 -197 hvcurveto
          -276 114 39 -91 16 hhcurveto
          endchar
        </CharString>
        <CharString name="bar">
          -165 67 -74 rmoveto
          -22 36 -39 19 20 75 376 122 29 vhcurveto
          37 156 44 189 33 vvcurveto
          40 -45 47 -20 -18 -4 -9 -21 vhcurveto
          -100 -173 -718 -54 vvcurveto
          endchar
        </CharString>
        <CharString name="braceleft">
          -112 183 338 rmoveto
          74 42 52 51 1 hvcurveto
          1 59 -48 52 2 106 rrcurveto
          86 2 56 36 55 hhcurveto
          49 17 -25 -38 -1 hvcurveto
          -32 -2 -26 16 21 26 44 32 vhcurveto
          66 1 -56 61 -81 hhcurveto
          -97 -86 -69 -107 -1 hvcurveto
          -2 -106 51 -70 -2 -48 rrcurveto
          -34 -22 -20 -36 vhcurveto
          -28 -40 36 -17 hhcurveto
          -8 -5 -14 -9 -19 12 -18 17 -14 hvcurveto
          7 -10 8 -12 -1 -13 -2 -106 -63 -39 -2 -118 rrcurveto
          -86 -2 74 -81 97 hhcurveto
          48 45 24 27 1 hvcurveto
          21 -16 6 -42 -79 -39 26 63 1 vhcurveto
          2 112 50 41 2 76 rrcurveto
          14 -1 12 -3 11 vhcurveto
          endchar
        </CharString>
        <CharString name="braceright">
          5 427 317 rmoveto
          0 vlineto
          17 9 13 13 17 vvcurveto
          16 -31 -6 -24 3 vhcurveto
          -33 3 -34 19 35 69 183 90 129 vvcurveto
          70 -91 78 -81 -80 -92 -61 -45 -15 30 -34 16 vhcurveto
          27 23 82 68 hhcurveto
          50 40 -34 -48 hvcurveto
          -99 -175 -93 -92 vvcurveto
          -47 32 -37 40 -19 vhcurveto
          -101 -74 58 -242 -101 -85 9 45 -38 hhcurveto
          -12 -5 -10 -14 -40 64 -50 77 200 -104 348 56 102 hvcurveto
          4 2 3 1 4 2 rrcurveto
          endchar
        </CharString>
        <CharString name="bracketleft">
          -80 269 759 rmoveto
          -1 -2 0 -3 -3 -136 -193 -512 -84 vvcurveto
          -48 55 -36 59 55 118 41 37 11 -4 7 -15 vhcurveto
          -25 -75 -13 -51 hhcurveto
          -14 -7 6 13 21 16 55 48 150 hvcurveto
          49 154 71 226 65 vvcurveto
          3 0 3 -1 3 vhcurveto
          10 2 14 3 19 3 101 14 51 -3 1 32 rrcurveto
          25 1 -53 8 -50 hhcurveto
          -86 2 -91 -3 -2 -40 rrcurveto
          endchar
        </CharString>
        <CharString name="bracketright">
          -83 410 711 rmoveto
          35 -48 11 -91 -4 vhcurveto
          -85 -2 -58 -21 -33 vvcurveto
          -34 82 12 68 -1 vhcurveto
          14 11 0 -1 10 hvcurveto
          -4 -1 -3 -4 vvcurveto
          -116 -118 -474 -10 -41 vhcurveto
          -16 -3 -9 -6 -18 -50 -49 12 -36 hhcurveto
          -14 -10 -4 -14 -40 103 -38 66 71 30 23 55 14 hvcurveto
          32 134 99 431 138 vvcurveto
          2 vlineto
          endchar
        </CharString>
        <CharString name="breve">
          176 696 102 callgsubr
        </CharString>
        <CharString name="brokenbar">
          -164 120 233 rmoveto
          -101 -52 -152 -54 vvcurveto
          -22 36 -39 19 25 59 272 38 41 -45 377 callgsubr
          121 565 rmoveto
          -100 -53 -152 -55 vvcurveto
          -22 36 -39 19 26 59 272 39 40 -45 47 -21 -17 -4 -9 -21 vhcurveto
          endchar
        </CharString>
        <CharString name="bullet">
          -296 50 347 rmoveto
          -38 67 -70 43 17 22 22 12 36 -51 116 -32 -31 -35 -45 -33 vhcurveto
          endchar
        </CharString>
        <CharString name="c">
          -88 312 511 59 callgsubr
        </CharString>
        <CharString name="cacute">
          -74 440 741 -67 callgsubr
          -111 -230 59 callgsubr
        </CharString>
        <CharString name="caron">
          165 722 101 callsubr
        </CharString>
        <CharString name="ccaron">
          -74 472 722 -61 callsubr
          -143 -211 59 callgsubr
        </CharString>
        <CharString name="ccedilla">
          -74 321 511 rmoveto
          -131 -149 -210 -138 -59 48 -54 57 -23 hvcurveto
          -19 -46 -24 -36 197 callgsubr
          10 17 9 18 6 14 rrcurveto
          78 4 112 65 37 vvcurveto
          13 -6 6 -13 vhcurveto
          -33 -25 -42 -118 hhcurveto
          -48 -26 27 40 94 125 167 73 hvcurveto
          36 17 -36 26 hhcurveto
          9 8 8 11 31 -42 71 -61 hvcurveto
          endchar
        </CharString>
        <CharString name="cedilla">
          5 -58 rmoveto
          275 callsubr
          19 33 14 32 14 vvcurveto
          17 -14 7 -17 -13 -14 -4 -17 -5 vhcurveto
          -19 -55 -33 -46 11 -16 -6 callsubr
          endchar
        </CharString>
        <CharString name="cent">
          -50 156 176 rmoveto
          73 71 118 70 49 vhcurveto
          -29 -98 -30 -118 -21 -91 rrcurveto
          -39 4 -22 26 37 vvcurveto
          237 340 rmoveto
          8 28 8 16 -2 16 rrcurveto
          18 -1 -6 19 -19 hhcurveto
          -13 -18 -37 -57 -20 hvcurveto
          -128 -21 -135 -194 -130 vvcurveto
          -69 66 -62 67 -14 vhcurveto
          -8 -37 -5 -26 -7 vvcurveto
          -12 16 -19 11 1 vhcurveto
          10 15 39 61 19 hvcurveto
          78 12 93 54 33 vvcurveto
          13 -6 6 -12 -28 -25 -27 -9 -76 vhcurveto
          27 98 31 123 30 105 rrcurveto
          -10 28 21 -36 24 hhcurveto
          10 7 7 12 30 -28 50 -41 21 hvcurveto
          endchar
        </CharString>
        <CharString name="circumflex">
          108 173 callsubr
          endchar
        </CharString>
        <CharString name="colon">
          -287 39 99 rmoveto
          -33 55 -73 31 16 12 15 14 35 -35 111 -36 -20 -23 -41 -28 vhcurveto
          76 345 rmoveto
          -34 55 -74 32 16 12 15 15 34 -35 112 -37 -19 -24 -41 -27 vhcurveto
          endchar
        </CharString>
        <CharString name="comma">
          -305 9 -176 95 callgsubr
        </CharString>
        <CharString name="copyright">
          175 452 543 rmoveto
          -101 -117 -159 -97 -49 57 -54 52 63 89 57 27 7 -5 10 -9 hvcurveto
          -19 -47 -41 -73 hhcurveto
          -26 -18 16 25 89 107 110 49 hvcurveto
          16 6 -7 12 hhcurveto
          7 6 4 10 20 -27 32 -22 hvcurveto
          170 -130 rmoveto
          -193 -119 -107 -187 -98 -71 63 115 200 174 115 137 91 73 -80 -113 vhcurveto
          -295 -353 rmoveto
          333 callsubr
          334 callgsubr
          hvcurveto
          endchar
        </CharString>
        <CharString name="currency">
          67 215 300 rmoveto
          68 3 53 54 53 hhcurveto
          55 39 -56 -61 -7 hvcurveto
          -59 -2 -53 -59 -54 hhcurveto
          -52 -42 49 64 7 hvcurveto
          323 194 rmoveto
          19 -32 28 -19 -18 -34 -27 -45 -38 vhcurveto
          10 -21 -23 6 -26 hhcurveto
          -28 -27 -7 -12 -24 hvcurveto
          -8 15 -6 14 -3 9 rrcurveto
          25 -9 -48 12 -31 hhcurveto
          -14 -1 -8 -13 -15 30 -39 28 -50 hvcurveto
          -27 -31 -18 -40 -3 -43 -2 -41 9 -37 18 -29 rrcurveto
          -46 -48 -32 -28 -8 vvcurveto
          -17 26 -28 23 16 33 31 43 38 vhcurveto
          -11 22 26 -7 27 hhcurveto
          23 23 5 9 21 hvcurveto
          -43 33 32 -27 19 hhcurveto
          13 11 9 13 13 -21 31 -28 45 hvcurveto
          34 34 24 47 4 53 2 37 -8 34 -16 28 rrcurveto
          42 41 34 28 15 vvcurveto
          endchar
        </CharString>
        <CharString name="d">
          -34 349 252 callgsubr
          110 491 rmoveto
          -18 -4 -10 -20 hvcurveto
          -4 -95 -24 -123 -28 -117 188 callgsubr
          47 184 36 184 29 vvcurveto
          40 -43 47 -20 vhcurveto
          endchar
        </CharString>
        <CharString name="dagger">
          -130 360 453 rmoveto
          178 callsubr
          rrcurveto
          -33 -214 -52 -251 -40 vvcurveto
          -23 33 -37 19 18 34 185 136 27 vhcurveto
          309 callgsubr
          rrcurveto
          endchar
        </CharString>
        <CharString name="daggerdbl">
          -130 164 132 rmoveto
          309 callgsubr
          178 callsubr
          -14 -89 -17 -96 -15 -85 -96 -9 -88 -13 -1 -14 rrcurveto
          -16 -1 23 -36 19 hhcurveto
          38 -1 34 6 58 6 rrcurveto
          -15 -80 -10 -60 -18 vvcurveto
          -23 33 -37 19 14 24 113 114 23 vhcurveto
          146 17 69 14 1 23 rrcurveto
          19 -37 5 -45 2 vhcurveto
          -26 -44 -1 -4 -50 hvcurveto
          endchar
        </CharString>
        <CharString name="dcaron">
          199 375 293 rmoveto
          -3 -12 rlineto
          -110 -44 -115 -76 -42 hhcurveto
          -23 -21 15 25 99 94 194 91 35 28 -56 -72 hvcurveto
          110 491 rmoveto
          -17 -4 -10 -20 hvcurveto
          -4 -95 -25 -123 -27 -116 rrcurveto
          50 -18 -34 34 -50 hhcurveto
          -147 -114 -257 -116 -55 53 -68 61 53 65 45 56 54 hvcurveto
          -4 -22 -3 -17 -9 vvcurveto
          -26 29 -27 18 21 44 171 121 30 vhcurveto
          47 184 35 184 29 vvcurveto
          40 -42 47 -21 vhcurveto
          170 -15 241 callsubr
          endchar
        </CharString>
        <CharString name="dcroat">
          -25 376 252 callgsubr
          162 299 rmoveto
          120 12 35 5 1 20 rrcurveto
          15 -15 7 -48 1 vhcurveto
          -30 -30 1 -28 hhcurveto
          4 22 2 15 7 vvcurveto
          40 -43 377 callgsubr
          -1 -32 -4 -34 -5 -37 -64 -3 -41 -7 -1 -16 rrcurveto
          -18 27 -31 27 11 12 1 2 17 vhcurveto
          -9 -52 -12 -55 -13 -53 188 callgsubr
          27 107 24 108 15 76 rrcurveto
          endchar
        </CharString>
        <CharString name="degree">
          -194 260 725 rmoveto
          -77 -77 -70 -85 -22 hvcurveto
          -84 -20 44 -71 78 hhcurveto
          77 78 71 84 21 hvcurveto
          85 20 -44 70 -78 hhcurveto
          -19 -71 rmoveto
          33 20 -40 -47 -13 hvcurveto
          -45 -8 -37 -39 -32 hhcurveto
          -34 -20 39 45 13 hvcurveto
          47 10 34 40 34 hhcurveto
          endchar
        </CharString>
        <CharString name="dieresis">
          6 726 -21 callgsubr
          endchar
        </CharString>
        <CharString name="divide">
          67 102 280 rmoveto
          199 305 25 54 16 -28 6 -40 -48 -101 -7 -8 -114 hvcurveto
          -6 -100 -88 2 373 callsubr
          99 -143 rmoveto
          -32 55 -56 34 14 18 17 11 29 -41 93 -27 -24 -29 -37 -25 vhcurveto
          88 396 rmoveto
          -31 55 -57 34 14 18 17 10 30 -41 94 -27 -25 -28 -37 -26 vhcurveto
          endchar
        </CharString>
        <CharString name="dollar">
          1 277 401 rmoveto
          -45 31 -34 27 21 vvcurveto
          27 60 33 64 22 vhcurveto
          -13 -45 -15 -54 -17 -62 rrcurveto
          116 -219 rmoveto
          -45 -64 -29 -76 -10 vhcurveto
          14 46 17 59 22 75 rrcurveto
          48 -34 39 -32 -30 vvcurveto
          39 508 rmoveto
          6 21 3 17 13 vvcurveto
          19 -4 20 -17 vhcurveto
          -23 1 -18 -36 -26 -80 -76 -19 -90 -39 -44 -44 rrcurveto
          -16 -16 -13 -45 -33 vvcurveto
          -56 69 -51 69 -48 vhcurveto
          -19 -69 -25 -82 -19 -69 rrcurveto
          4 -77 -38 89 -30 hhcurveto
          -13 -8 -13 -24 -43 56 -78 90 -19 hvcurveto
          -5 -20 -2 -17 -12 vvcurveto
          -17 -1 9 -15 13 hhcurveto
          15 8 15 62 20 hvcurveto
          117 6 134 61 5 104 3 70 -78 63 -76 53 19 64 22 72 26 83 17 3 15 2 12 -1 rrcurveto
          -1 25 10 -8 15 hhcurveto
          8 6 4 12 32 -23 53 -42 hvcurveto
          -4 -4 0 -5 hhcurveto
          endchar
        </CharString>
        <CharString name="dotaccent">
          -28 738 157 callgsubr
        </CharString>
        <CharString name="dotlessi">
          179 callsubr
          endchar
        </CharString>
        <CharString name="dvB_DA_MatraU">
          345 758 138 callsubr
          -632 14 -41 callgsubr
          683 -23 callsubr
          -78 -101 -103 -94 -49 hvcurveto
          -20 -7 -32 -28 -41 -29 -44 53 -51 79 -36 65 -84 callsubr
          79 103 52 51 64 hvcurveto
          0 vlineto
          -84 83 -42 114 vhcurveto
          -98 callgsubr
        </CharString>
        <CharString name="dvB_DA_MatraUU">
          347 758 183 -51 callgsubr
          -368 412 -41 callgsubr
          683 55 callgsubr
          -79 -101 -103 -94 -49 hvcurveto
          -20 -7 -32 -28 -41 -29 -44 53 -51 79 -36 65 -84 callsubr
          79 103 52 51 64 hvcurveto
          0 vlineto
          276 callgsubr
          -96 callsubr
        </CharString>
        <CharString name="dvDA_MatraU">
          -21 391 138 callsubr
          -377 203 callgsubr
          384 -23 callsubr
          -108 342 callsubr
          83 -42 114 hvcurveto
          -98 callgsubr
        </CharString>
        <CharString name="dvDA_MatraUU">
          -20 391 183 -51 callgsubr
          -112 860 -106 callgsubr
          383 55 callgsubr
          -109 342 callsubr
          84 -42 113 hvcurveto
          -96 callsubr
        </CharString>
        <CharString name="dvDDH_DDHA">
          29 324 206 rmoveto
          44 21 21 52 33 18 -12 -16 -28 -55 -19 -68 -8 vhcurveto
          -1 6 0 6 6 vvcurveto
          -86 -416 rmoveto
          25 28 15 26 37 22 -22 -19 -26 -37 -18 -49 -9 vhcurveto
          -19 17 -8 18 19 vvcurveto
          -167 855 -106 callgsubr
          350 hlineto
          -10 -29 -4 -36 -28 vvcurveto
          10 -19 -20 7 -16 hhcurveto
          -100 -198 -156 -103 -46 31 -37 45 -18 hvcurveto
          -16 37 43 -8 55 hhcurveto
          13 hlineto
          7 -29 9 -31 12 -27 rrcurveto
          3 -15 -16 1 -18 hhcurveto
          -131 -147 -109 -107 -109 101 -45 115 118 104 50 72 56 -52 46 -76 -70 -43 -32 -49 -28 9 -24 20 -23 hvcurveto
          -8 hlineto
          -82 -58 26 56 67 112 87 96 hvcurveto
          57 21 -11 24 hhcurveto
          11 10 8 15 hvcurveto
          1 vlineto
          2 vlineto
          22 -31 54 -19 63 vhcurveto
          103 16 71 48 56 vvcurveto
          50 -43 40 -73 -89 -42 -49 -78 -6 0 -6 1 -7 vhcurveto
          -2 hlineto
          -87 -43 21 33 66 153 120 65 44 15 -32 -5 25 hvcurveto
          -1 1 2 0 1 382 callgsubr
          3 hlineto
          21 3 5 15 26 vvcurveto
          77 9 38 3 30 vhcurveto
          178 -107 callsubr
        </CharString>
        <CharString name="dvDD_GA">
          -57 71 -123 -20 callgsubr
        </CharString>
        <CharString name="dvG_DA_MatraU">
          352 765 138 callsubr
          -568 -4 rmoveto
          -96 callgsubr
          412 -23 callsubr
          -108 342 callsubr
          83 -42 114 hvcurveto
          -98 callgsubr
        </CharString>
        <CharString name="dvG_DA_MatraUU">
          353 764 183 -51 callgsubr
          -303 394 rmoveto
          -96 callgsubr
          411 55 callgsubr
          -109 342 callsubr
          84 -42 113 hvcurveto
          -96 callsubr
        </CharString>
        <CharString name="dvJ_DA_MatraU">
          452 864 138 callsubr
          -736 203 callgsubr
          743 -23 callsubr
          -32 -36 -17 -27 -34 hvcurveto
          -25 -38 -82 -66 -120 -34 -29 6 -23 hhcurveto
          -15 -8 -9 -15 -14 12 -11 18 -9 hvcurveto
          7 -8 6 -8 -9 -26 callgsubr
          9 -3 9 -4 10 vhcurveto
          9 hlineto
          35 40 8 14 38 hvcurveto
          -23 -41 -15 -40 -30 vvcurveto
          -84 83 -42 114 vhcurveto
          -98 callgsubr
        </CharString>
        <CharString name="dvJ_DA_MatraUU">
          453 864 183 -51 callgsubr
          -472 860 -106 callgsubr
          743 55 callgsubr
          -32 -35 -17 -26 -34 hvcurveto
          -23 -37 -82 -69 -123 -34 -29 6 -23 hhcurveto
          -15 -8 -9 -15 -14 12 -11 18 -9 hvcurveto
          7 -8 6 -8 -9 -26 callgsubr
          9 -3 9 -4 10 vhcurveto
          9 hlineto
          35 40 8 14 38 hvcurveto
          -23 -41 -15 -40 -30 vvcurveto
          276 callgsubr
          -96 callsubr
        </CharString>
        <CharString name="dvK_DA_MatraU">
          478 861 227 callgsubr
          -39 -45 -26 -38 -41 hvcurveto
          -48 -26 -86 -51 -92 -46 10 43 rcurveline
          147 callgsubr
          388 75 callsubr
          -731 176 callgsubr
          761 -16 -7 callsubr
          -11 16 31 18 20 18 5 rrcurveto
          -795 462 144 callsubr
          49 24 49 26 44 25 rrcurveto
          -19 -35 -11 -34 -26 vvcurveto
          -84 83 -42 114 vhcurveto
          -98 callgsubr
        </CharString>
        <CharString name="dvK_DA_MatraUU">
          480 862 449 rmoveto
          10 -21 -21 6 -18 hhcurveto
          -39 -45 -26 -37 -42 hvcurveto
          -47 -27 -87 -51 -92 -46 10 43 rcurveline
          147 callgsubr
          388 hlineto
          205 callsubr
          -732 176 callgsubr
          761 -16 -51 callgsubr
          -531 860 144 callsubr
          49 24 49 26 44 25 rrcurveto
          -19 -35 -11 -34 -26 vvcurveto
          276 callgsubr
          -96 callsubr
        </CharString>
        <CharString name="dvL_DA_MatraU">
          431 844 138 callsubr
          -742 462 -76 callgsubr
          749 -23 callsubr
          -46 -53 -35 -48 -46 hvcurveto
          -56 -16 -86 -37 -61 -36 rrcurveto
          -102 callsubr
          20 9 rlineto
          -23 -41 -15 -40 -30 vvcurveto
          -84 83 -42 114 vhcurveto
          -98 callgsubr
        </CharString>
        <CharString name="dvL_DA_MatraUU">
          432 843 183 -51 callgsubr
          -477 860 -76 callgsubr
          748 55 callgsubr
          -46 -54 -35 -48 -46 hvcurveto
          -56 -17 -86 -36 -60 -36 rrcurveto
          -102 callsubr
          19 8 rlineto
          -23 -40 -15 -40 -30 vvcurveto
          276 callgsubr
          -96 callsubr
        </CharString>
        <CharString name="dvM_DA_MatraU">
          381 763 227 callgsubr
          -56 160 callgsubr
          85 callgsubr
          -593 -303 -34 callgsubr
          623 35 -7 callsubr
          -11 16 31 18 20 18 5 rrcurveto
          -690 462 79 callsubr
          47 38 -2 -2 29 hvcurveto
          -27 -44 -17 -44 -33 vvcurveto
          -84 83 -42 114 vhcurveto
          -98 callgsubr
        </CharString>
        <CharString name="dvM_DA_MatraUU">
          382 764 449 rmoveto
          10 -21 -21 6 -18 hhcurveto
          -57 160 callgsubr
          205 callsubr
          -594 -303 -34 callgsubr
          623 35 -51 callgsubr
          -426 860 79 callsubr
          47 38 -2 -2 29 hvcurveto
          -27 -44 -17 -44 -33 vvcurveto
          276 callgsubr
          -96 callsubr
        </CharString>
        <CharString name="dvNG_GA">
          35 517 370 rmoveto
          -15 379 callgsubr
          12 8 9 16 28 -33 62 -23 hvcurveto
          -453 -493 -20 callgsubr
        </CharString>
        <CharString name="dvNG_MA">
          -8 514 375 rmoveto
          -15 379 callgsubr
          13 7 9 16 27 -33 63 -23 hvcurveto
          -328 -371 rmoveto
          7 45 3 43 1 34 rrcurveto
          -8 24 27 -4 29 hhcurveto
          29 26 4 7 23 hvcurveto
          -11 -30 -10 -37 -9 -39 -35 -2 -52 -6 -36 -5 rrcurveto
          -137 -161 rmoveto
          -18 -17 33 19 19 36 12 49 8 hvcurveto
          -52 -12 -18 -39 -20 hhcurveto
          -53 800 -65 callgsubr
          399 hlineto
          -5 -22 -3 -24 198 callgsubr
          24 -12 hvcurveto
          67 -37 128 314 callgsubr
          -76 200 callgsubr
          -39 23 -36 38 -26 hvcurveto
          -3 -14 -2 -16 -19 vvcurveto
          -31 -3 -40 -6 -38 vhcurveto
          -99 -16 -64 -22 -50 vvcurveto
          -54 56 -73 47 55 34 76 87 20 vhcurveto
          46 5 51 5 41 7 rrcurveto
          0 vlineto
          -15 -76 -9 -71 -18 vvcurveto
          -31 4 -26 15 26 16 79 74 13 vhcurveto
          13 84 38 139 3 44 rrcurveto
          22 20 12 25 27 127 -227 -7 32 vvcurveto
          27 101 22 39 vhcurveto
          32 22 -15 18 hhcurveto
          22 298 callgsubr
          217 -71 callsubr
        </CharString>
        <CharString name="dvNY_CA">
          585 91 -58 callsubr
          936 -10 callgsubr
          -31 -22 -26 -26 -17 -28 -31 -7 -47 -12 -33 -6 -37 -8 -35 -4 -28 -5 rrcurveto
          6 24 4 24 23 -30 callsubr
          102 76 65 78 40 vhcurveto
          6 hlineto
          46 92 13 20 67 hvcurveto
          -9 vlineto
          -63 41 -43 82 90 84 41 71 64 vhcurveto
          52 callgsubr
        </CharString>
        <CharString name="dvN_DA_MatraU">
          363 775 138 callsubr
          -501 48 -82 callgsubr
          693 -23 callsubr
          -49 -58 -40 -54 -48 hvcurveto
          14 -52 -86 3 -64 -80 callgsubr
          53 54 -1 39 hhcurveto
          -36 -52 -25 -56 -39 vvcurveto
          -84 83 -42 114 vhcurveto
          -98 callgsubr
        </CharString>
        <CharString name="dvN_DA_MatraUU">
          364 775 183 -51 callgsubr
          -237 446 -82 callgsubr
          693 55 callgsubr
          -49 -58 -40 -54 -49 hvcurveto
          14 -52 -86 3 -64 -80 callgsubr
          53 54 -1 39 hhcurveto
          -36 -52 -25 -56 -39 vvcurveto
          276 callgsubr
          -96 callsubr
        </CharString>
        <CharString name="dvN_TA.aTRAD">
          133 378 139 rmoveto
          -23 -9 -21 -25 -29 -33 17 21 21 32 23 46 22 vhcurveto
          11 -16 7 -21 -23 vvcurveto
          -343 506 -106 callgsubr
          543 hlineto
          -14 -66 -15 -68 -15 -77 rrcurveto
          22 -57 -65 21 -102 hhcurveto
          -158 -105 -64 -119 -97 86 -119 51 19 7 9 13 hvcurveto
          36 -85 39 107 vvcurveto
          83 80 43 119 72 59 -18 -16 53 vhcurveto
          -131 -24 -158 -65 -78 vvcurveto
          -52 67 -49 62 65 27 54 49 33 -11 28 -15 19 vhcurveto
          31 11 34 9 32 7 rrcurveto
          -19 -95 -15 -80 -27 vvcurveto
          -14 29 -24 14 21 34 182 133 30 vhcurveto
          21 301 callgsubr
          6 37 rrcurveto
          106 -71 callsubr
        </CharString>
        <CharString name="dvSHA_MatraVocalicR">
          266 328 535 rmoveto
          52 44 35 48 38 18 -21 -29 -47 -32 -46 -47 -39 vhcurveto
          -43 26 -26 32 37 vvcurveto
          331 110 -106 callgsubr
          37 hlineto
          -11 -66 -13 -65 -13 -68 -72 1 -71 12 -57 21 rrcurveto
          51 48 33 56 56 vvcurveto
          73 -48 46 -75 -91 -70 -72 -80 -55 30 -46 48 -36 vhcurveto
          -31 -57 -68 -20 -62 -24 -24 6 -16 hhcurveto
          -14 -9 -3 -14 -25 44 -30 48 81 90 32 48 73 hvcurveto
          70 -34 88 -19 89 -4 -19 -98 -22 -99 -7 -43 rrcurveto
          -89 -17 -118 -97 -79 vvcurveto
          -69 65 -33 100 64 79 16 31 12 -13 17 -23 vhcurveto
          -32 -14 -15 -65 hhcurveto
          -59 -36 15 27 49 104 83 73 hvcurveto
          1 hlineto
          2 hlineto
          32 26 -66 callsubr
          56 callgsubr
          125 -107 callsubr
        </CharString>
        <CharString name="dvSH_VA.aSimp">
          452 -81 callgsubr
          557 -197 -76 callsubr
          -72 244 callsubr
          374 -43 callgsubr
          -131 -86 -175 -128 240 callgsubr
          358 callsubr
          hvcurveto
          -99 callsubr
        </CharString>
        <CharString name="dvS_DA_MatraU">
          423 806 227 callgsubr
          -53 377 callsubr
          -64 -16 -86 326 callgsubr
          -21 -31 -16 -44 -50 vvcurveto
          30 -268 -7 callsubr
          -11 16 31 18 20 18 5 rrcurveto
          -747 462 rmoveto
          -91 callsubr
          36 2 36 9 32 15 74 1 91 9 72 15 rrcurveto
          -23 -40 -14 -38 -30 vvcurveto
          -84 83 -42 114 vhcurveto
          -98 callgsubr
        </CharString>
        <CharString name="dvS_DA_MatraUU">
          424 807 449 rmoveto
          10 -21 -21 6 -18 hhcurveto
          -54 377 callsubr
          -63 -16 -87 326 callgsubr
          205 callsubr
          29 -268 -51 callgsubr
          -483 860 rmoveto
          -91 callsubr
          36 2 36 9 32 15 74 1 91 9 72 15 rrcurveto
          -23 -40 -14 -38 -30 vvcurveto
          276 callgsubr
          -96 callsubr
        </CharString>
        <CharString name="dvTTH_TTHA">
          56 246 185 rmoveto
          -49 -35 10 26 62 144 117 82 46 41 -46 -39 -58 -135 -72 -94 hvcurveto
          -119 -428 rmoveto
          -48 356 callsubr
          82 46 41 -47 -38 -59 -135 -71 -94 hvcurveto
          -94 888 -106 callgsubr
          404 hlineto
          -1 -3 -22 -35 -15 -37 -4 -34 rlinecurve
          -1 hlineto
          -121 -184 -147 -101 -62 58 -39 91 21 22 2 4 21 hvcurveto
          -3 -19 -1 -24 -14 -35 -3 -8 rcurveline
          -6 hlineto
          -120 -184 -146 -102 -61 57 -40 91 149 156 98 93 52 -39 63 -53 28 hvcurveto
          20 30 18 53 2 36 rrcurveto
          95 35 75 67 65 vvcurveto
          51 -37 61 -51 29 347 callsubr
          143 -107 callsubr
        </CharString>
        <CharString name="dvTT_GA">
          14 84 -127 rmoveto
          -25 -24 33 21 21 19 10 43 16 18 -2 -4 20 hvcurveto
          -49 -17 -23 -30 -27 hhcurveto
          -34 772 -106 callgsubr
          393 302 callgsubr
          -47 28 -33 48 -19 hvcurveto
          -5 -23 -4 -27 -5 -27 -2 -10 -2 -9 -2 -10 rrcurveto
          5 -23 -23 3 -27 hhcurveto
          -71 -54 -27 -53 -55 55 -72 64 115 49 202 88 5 hvcurveto
          -1 12 13 -1 14 hhcurveto
          26 25 2 5 23 hvcurveto
          -41 -88 -34 -144 -75 90 callgsubr
          147 -71 callsubr
        </CharString>
        <CharString name="dvT_KH_NA">
          614 1067 576 148 callsubr
          -69 -43 34 39 -35 hvcurveto
          120 29 84 93 101 vvcurveto
          31 -7 29 -13 24 vhcurveto
          184 -277 rmoveto
          243 callsubr
          -20 -41 -23 -45 hvcurveto
          -202 -368 rmoveto
          -29 -11 -26 -33 -26 -35 17 24 27 39 28 52 21 vhcurveto
          10 -19 4 -23 -20 vvcurveto
          -225 714 rmoveto
          -1 0 -445 158 callgsubr
          431 hlineto
          -1 -3 -1 -3 -3 vvcurveto
          -20 33 -35 20 vhcurveto
          21 17 43 55 hhcurveto
          41 18 -23 -43 -84 -76 -54 -99 -20 hvcurveto
          39 -24 -127 24 -98 hhcurveto
          -3 callsubr
          38 31 -3 -4 27 vhcurveto
          8 -34 43 -22 47 -3 rrcurveto
          -70 53 78 -66 105 hhcurveto
          91 106 33 65 88 hvcurveto
          -13 -62 -13 -53 -6 -30 rrcurveto
          8 -31 -29 2 -30 hhcurveto
          -127 -187 -72 -89 -57 67 -50 66 72 29 52 57 28 -5 31 -12 26 hvcurveto
          9 34 36 5 32 hhcurveto
          35 43 -2 -14 36 hvcurveto
          0 vlineto
          -2 4 3 -1 3 hhcurveto
          21 37 -75 callsubr
          32 hvcurveto
          21 90 27 -74 callgsubr
          107 -71 callsubr
        </CharString>
        <CharString name="dvT_S_NA">
          670 1102 153 callgsubr
          -756 591 -65 callgsubr
          449 hlineto
          -40 callsubr
          hvcurveto
          -51 390 callsubr
          19 -37 -58 12 -52 hhcurveto
          -132 -84 -44 -104 -106 115 -108 65 300 callgsubr
          38 -135 38 107 vvcurveto
          61 51 22 95 44 40 -9 -7 35 vhcurveto
          10 -30 26 -52 32 -56 rrcurveto
          32 callsubr
        </CharString>
        <CharString name="e">
          -83 279 432 19 callsubr
        </CharString>
        <CharString name="eacute">
          -79 227 289 -59 callgsubr
          27 125 24 callsubr
        </CharString>
        <CharString name="ecaron">
          -79 227 289 -59 callgsubr
          168 211 101 callsubr
        </CharString>
        <CharString name="ecircumflex">
          -79 227 289 -59 callgsubr
          111 170 -44 callgsubr
          endchar
        </CharString>
        <CharString name="edieresis">
          -79 419 579 25 callsubr
          -42 -290 -59 callgsubr
          endchar
        </CharString>
        <CharString name="edotaccent">
          -79 339 567 rmoveto
          13 15 15 9 26 -35 81 -24 -22 -25 -33 -23 -29 50 -46 28 hvcurveto
          -47 -135 19 callsubr
        </CharString>
        <CharString name="egrave">
          -79 306 586 rmoveto
          7 callgsubr
          228 callgsubr
          rrcurveto
          96 -234 19 callsubr
        </CharString>
        <CharString name="eight">
          69 408 230 rmoveto
          -73 -106 -59 -66 -29 -27 25 23 41 75 61 87 69 vhcurveto
          38 -34 28 -30 -23 vvcurveto
          194 378 rmoveto
          76 -58 45 -90 -119 -123 -46 -40 -19 38 -25 21 vhcurveto
          36 70 49 83 hhcurveto
          42 12 -20 -18 -46 -82 -67 -92 -74 hvcurveto
          -62 51 -68 50 -53 49 rrcurveto
          18 -19 -14 19 -12 hhcurveto
          -13 -7 -31 -23 -46 97 -72 87 -67 hvcurveto
          -96 -79 -89 -83 -69 vvcurveto
          -63 86 -55 56 109 156 92 103 49 -39 50 -54 51 vhcurveto
          101 81 96 86 74 vvcurveto
          endchar
        </CharString>
        <CharString name="ellipsis">
          133 56 83 170 callsubr
          222 hmoveto
          -32 54 387 callgsubr
          -26 -27 -37 -25 vhcurveto
          222 hmoveto
          -32 55 387 callgsubr
          -25 -29 -37 -25 vhcurveto
          endchar
        </CharString>
        <CharString name="emacron">
          -79 227 289 -59 callgsubr
          134 143 121 callgsubr
        </CharString>
        <CharString name="emdash">
          384 790 366 rmoveto
          -315 -408 -26 -48 -21 19 -29 22 hvcurveto
          35 3 124 21 134 13 rrcurveto
          230 20 258 -1 40 vvcurveto
          15 -27 13 -72 vhcurveto
          endchar
        </CharString>
        <CharString name="endash">
          77 572 348 rmoveto
          15 -20 10 -41 vhcurveto
          -170 -2 -274 -51 -30 vvcurveto
          -22 25 -27 21 1 vhcurveto
          35 3 81 21 90 15 133 21 121 18 -1 28 rrcurveto
          endchar
        </CharString>
        <CharString name="eogonek">
          -79 292 432 rmoveto
          33 40 -49 -32 -39 -56 -23 -82 -23 -30 3 6 -27 hvcurveto
          72 35 58 62 52 hhcurveto
          -42 -207 rmoveto
          171 callgsubr
          -120 -134 -189 -142 -95 71 -70 105 6 6 0 1 6 hvcurveto
          -31 -34 -26 -41 -36 -37 callgsubr
          23 18 9 20 -3 15 rrcurveto
          26 16 18 18 15 vvcurveto
          12 -7 8 -19 vhcurveto
          -28 -42 -35 -98 hhcurveto
          -55 -29 27 45 24 5 27 9 28 hvcurveto
          -10 37 42 -6 47 hhcurveto
          endchar
        </CharString>
        <CharString name="equal">
          98 597 458 rmoveto
          24 -47 6 -42 1 vhcurveto
          -58 -360 -17 -36 -1 hvcurveto
          -17 20 -36 19 35 166 15 11 79 vhcurveto
          122 18 67 7 24 vvcurveto
          -27 -182 rmoveto
          17 -29 7 -45 1 vhcurveto
          -47 -392 -35 -26 -16 20 -36 18 -1 hvcurveto
          43 128 11 10 71 hvcurveto
          182 28 50 14 1 26 rrcurveto
          endchar
        </CharString>
        <CharString name="eth">
          253 callsubr
          307 549 rmoveto
          9 -9 7 -14 -12 -30 -12 -18 -46 vhcurveto
          56 -37 -49 36 -49 hhcurveto
          304 callgsubr
          10 -9 8 -10 8 -12 rrcurveto
          -59 -21 -48 -17 -24 vvcurveto
          -11 12 -7 13 15 45 14 18 48 vhcurveto
          13 -32 9 -37 3 -42 264 callgsubr
          64 -15 62 -24 51 hvcurveto
          47 22 38 23 14 vvcurveto
          endchar
        </CharString>
        <CharString name="exclam">
          -162 299 748 rmoveto
          19 -61 44 -24 -1 vhcurveto
          -9 -7 -8 -18 -214 -37 -177 -19 -102 hvcurveto
          -28 -3 26 -28 21 hhcurveto
          38 75 414 99 hvcurveto
          -115 -726 rmoveto
          29 -40 92 -25 -23 -28 -36 -24 -31 54 -55 33 13 16 16 9 vhcurveto
          endchar
        </CharString>
        <CharString name="exclamdown">
          -179 82 3 rmoveto
          -19 61 -44 24 1 vhcurveto
          9 7 8 18 214 37 177 19 102 hvcurveto
          28 3 -26 28 -21 hhcurveto
          -38 -75 -414 -99 hvcurveto
          115 726 rmoveto
          -29 40 -92 25 23 28 36 24 31 -54 55 -33 -13 -16 -16 -9 vhcurveto
          endchar
        </CharString>
        <CharString name="f">
          -157 231 386 rmoveto
          102 17 54 9 28 vvcurveto
          15 -22 13 -39 -25 -27 -1 -4 -31 vhcurveto
          9 35 rlineto
          101 25 21 107 50 52 -8 -108 41 hhcurveto
          15 13 16 42 61 -44 67 -70 -95 -46 -74 -186 -35 hvcurveto
          -5 -25 -4 -25 -5 -23 -26 -5 -27 -7 -28 -7 rrcurveto
          -28 -8 -17 -10 -12 vvcurveto
          -23 27 -22 23 14 17 4 6 26 vhcurveto
          -29 -126 -31 -99 -17 -72 rrcurveto
          -24 -3 29 -33 16 hhcurveto
          31 48 196 176 42 hvcurveto
          endchar
        </CharString>
        <CharString name="fi">
          -5 255 394 rmoveto
          63 10 69 12 32 1 rrcurveto
          -4 -28 -85 -298 -22 vvcurveto
          -33 -3 19 -20 18 hhcurveto
          17 12 11 39 11 hvcurveto
          28 90 78 247 23 vvcurveto
          41 6 -21 21 -46 hhcurveto
          -23 -82 -5 -11 -86 hvcurveto
          6 26 rlineto
          101 26 20 107 51 52 47 -118 41 hhcurveto
          15 12 11 42 61 -98 82 -71 -95 -46 -74 -186 -34 hvcurveto
          -4 -22 -4 -21 -5 -21 -35 -6 -33 -7 -26 -8 rrcurveto
          -22 -7 -12 -9 -9 vvcurveto
          -22 25 -25 25 9 22 4 5 29 vhcurveto
          -30 -131 -32 -102 -18 -73 rrcurveto
          -24 -3 30 -33 15 hhcurveto
          32 49 201 177 42 hvcurveto
          endchar
        </CharString>
        <CharString name="five">
          4 590 685 rmoveto
          24 -61 7 -85 -77 -60 -9 -9 -31 vhcurveto
          -39 -9 -83 -130 -62 -129 208 -37 -92 vvcurveto
          -64 -104 -77 -68 vhcurveto
          -68 -59 91 -18 hhcurveto
          -10 -6 -14 -15 -57 82 -83 97 116 132 115 113 hvcurveto
          104 -206 69 74 vvcurveto
          28 44 90 29 7 vhcurveto
          71 16 196 20 29 vvcurveto
          endchar
        </CharString>
        <CharString name="fl">
          10 110 464 rmoveto
          -37 -2 -26 -14 -16 vvcurveto
          -16 24 -29 26 -1 vhcurveto
          11 13 0 1 14 hvcurveto
          -23 -110 -26 -110 -26 -85 rrcurveto
          -36 -11 32 -33 19 hhcurveto
          18 9 23 43 16 hvcurveto
          28 77 31 124 24 119 rrcurveto
          1 hlineto
          92 15 53 19 56 41 -17 -99 -28 -122 -46 -155 rrcurveto
          -40 -14 20 -43 37 hhcurveto
          10 11 22 50 18 hvcurveto
          61 190 56 273 3 158 rrcurveto
          48 2 -39 28 -26 hhcurveto
          -12 -5 -12 -31 -3 hvcurveto
          -3 -25 -3 -37 -3 -54 -4 -90 -95 -35 -106 -19 6 33 5 31 4 28 rrcurveto
          86 13 15 47 32 35 -3 -43 25 hhcurveto
          15 9 12 27 40 -30 42 -57 -67 -52 -45 -112 -15 hvcurveto
          -7 -49 -9 -54 -10 -55 rrcurveto
          endchar
        </CharString>
        <CharString name="florin">
          -94 285 367 rmoveto
          105 17 49 16 26 vvcurveto
          16 -21 11 -39 -22 -27 -1 -3 -28 vhcurveto
          167 37 28 88 44 52 -8 -106 41 hhcurveto
          16 11 16 42 61 -43 67 -70 -110 -41 -77 -270 -60 hvcurveto
          -71 -12 -60 -17 -20 vvcurveto
          -23 26 -32 24 14 19 6 7 28 vhcurveto
          -316 -69 -23 -83 -38 -43 -15 37 -13 hhcurveto
          -9 -7 -8 -18 -44 51 -42 39 103 43 77 395 82 hvcurveto
          endchar
        </CharString>
        <CharString name="four">
          18 441 532 rmoveto
          -12 -9 -9 -23 -55 -5 -51 -7 -47 hvcurveto
          -15 -45 -83 -38 -63 hhcurveto
          -36 -20 14 41 hvcurveto
          104 212 196 35 vvcurveto
          22 -26 18 -22 -44 -209 -255 -124 -84 63 -46 74 58 70 19 24 53 vhcurveto
          -27 -110 -35 -76 -38 vvcurveto
          -23 18 -23 14 46 103 363 114 29 -49 38 -19 vhcurveto
          endchar
        </CharString>
        <CharString name="fraction">
          147 callsubr
        </CharString>
        <CharString name="g">
          -58 145 231 callsubr
          269 219 rmoveto
          1 8 0 10 10 vvcurveto
          125 callsubr
          endchar
        </CharString>
        <CharString name="gbreve">
          -62 141 231 callsubr
          270 247 rmoveto
          125 callsubr
          1 8 0 10 10 vvcurveto
          87 351 102 callgsubr
        </CharString>
        <CharString name="germandbls">
          52 398 370 rmoveto
          28 125 21 109 vvcurveto
          81 -77 101 -90 -113 -71 -69 -119 -21 vhcurveto
          -47 -254 -55 -144 -57 vvcurveto
          -23 24 -29 19 40 54 231 246 50 vhcurveto
          80 16 43 55 52 hhcurveto
          37 48 -48 -58 hvcurveto
          -74 -130 -25 -40 -70 137 -38 -89 vvcurveto
          -61 -75 -33 -53 vhcurveto
          -20 -17 2 -13 hhcurveto
          -17 -9 -5 -16 -29 30 -26 60 98 100 63 105 hvcurveto
          110 -125 53 22 vvcurveto
          endchar
        </CharString>
        <CharString name="grave">
          -90 828 rmoveto
          228 callgsubr
          110 -80 rcurveline
          7 callgsubr
          rrcurveto
          endchar
        </CharString>
        <CharString name="greater">
          28 155 543 rmoveto
          -14 -9 -5 -11 -15 35 -45 27 -9 hvcurveto
          61 -18 153 -80 -30 -27 -322 -139 -48 vvcurveto
          -13 9 -7 21 33 50 16 74 131 vhcurveto
          96 53 80 41 41 vvcurveto
          15 -13 25 -19 19 vhcurveto
          -69 69 -154 93 -96 1 rrcurveto
          endchar
        </CharString>
        <CharString name="greaterequal">
          30 158 560 rmoveto
          -14 -8 -5 -11 -15 23 -41 22 -3 hvcurveto
          62 -8 181 -47 -30 -29 -339 -82 -44 vvcurveto
          -13 10 -7 21 36 72 20 29 81 vhcurveto
          89 31 91 39 18 28 8 13 -3 33 -9 17 -32 53 -180 71 -129 1 rrcurveto
          -100 -467 rmoveto
          -13 27 -9 28 98 265 74 25 22 -23 25 -18 -23 -48 -22 -30 -106 vhcurveto
          -113 -34 -87 -17 -21 vvcurveto
          endchar
        </CharString>
        <CharString name="guillemotleft">
          124 352 497 rmoveto
          -54 -171 -79 -44 -54 hvcurveto
          -14 -10 -21 -34 -20 vvcurveto
          -52 241 -107 56 24 11 279 callsubr
          -25 19 -26 vhcurveto
          311 -23 rmoveto
          -57 -186 -59 -40 -55 hvcurveto
          -17 -12 -22 -30 -17 vvcurveto
          -56 230 -96 70 22 10 5 14 vhcurveto
          34 -247 63 35 vvcurveto
          29 149 45 119 24 vhcurveto
          19 5 16 4 1 15 rrcurveto
          13 -25 24 -27 vhcurveto
          endchar
        </CharString>
        <CharString name="guillemotright">
          300 174 474 rmoveto
          -18 -29 -27 -13 -12 17 -7 22 -4 hvcurveto
          86 -16 108 -40 -27 -35 -275 -83 -35 vvcurveto
          -10 10 -7 18 70 261 111 56 68 -209 81 -61 vhcurveto
          283 23 rmoveto
          -18 -24 -23 -13 -12 16 -7 22 -7 hvcurveto
          84 -24 102 366 callsubr
          58 184 81 45 57 vhcurveto
          12 11 9 368 callsubr
        </CharString>
        <CharString name="guilsinglleft">
          45 399 497 rmoveto
          -54 -172 -79 -44 -54 hvcurveto
          -13 -10 -21 -34 -20 vvcurveto
          -52 240 -107 56 24 12 279 callsubr
          -26 19 -25 vhcurveto
          endchar
        </CharString>
        <CharString name="guilsinglright">
          58 216 497 rmoveto
          -17 -25 -23 -13 -12 16 -7 23 -7 hvcurveto
          82 -24 103 366 callsubr
          59 184 81 45 56 vhcurveto
          13 11 8 368 callsubr
        </CharString>
        <CharString name="h">
          3 173 791 rmoveto
          -18 -6 -11 -28 -37 -15 -138 -37 -180 hvcurveto
          -24 -118 -31 -120 -18 -79 rrcurveto
          -24 -3 36 -41 20 hhcurveto
          19 41 74 82 52 hvcurveto
          125 81 63 101 48 hhcurveto
          12 16 -17 -26 -27 -10 -41 -11 -40 hvcurveto
          -23 -81 -33 -75 -45 vvcurveto
          -21 8 -9 14 42 44 109 117 31 vhcurveto
          16 54 9 49 39 vvcurveto
          53 -62 75 -33 -62 -85 -95 -247 -136 vhcurveto
          75 224 42 233 77 vvcurveto
          37 -37 51 -25 vhcurveto
          endchar
        </CharString>
        <CharString name="hungarumlaut">
          48 864 -14 callgsubr
          endchar
        </CharString>
        <CharString name="hyphen">
          -74 224 callgsubr
        </CharString>
        <CharString name="i">
          -295 154 511 rmoveto
          -24 -9 -71 -168 -40 hvcurveto
          -17 -73 -24 -79 -11 -57 rrcurveto
          -25 -4 16 -22 18 hhcurveto
          18 15 11 39 13 hvcurveto
          61 190 41 159 29 vvcurveto
          27 -26 40 -27 vhcurveto
          116 90 rmoveto
          34 -39 74 -24 -22 -26 -30 -24 -29 51 -51 32 13 15 12 14 vhcurveto
          endchar
        </CharString>
        <CharString name="iacute">
          -273 308 741 -67 callgsubr
          -92 -297 -5 callsubr
          endchar
        </CharString>
        <CharString name="icircumflex">
          -273 283 173 callsubr
          -67 -237 -5 callsubr
          endchar
        </CharString>
        <CharString name="idieresis">
          -273 181 605 -21 callgsubr
          -116 -161 -5 callsubr
          endchar
        </CharString>
        <CharString name="igrave">
          179 callsubr
          -131 288 rmoveto
          228 callgsubr
          110 -80 rcurveline
          7 callgsubr
          rrcurveto
          endchar
        </CharString>
        <CharString name="imacron">
          179 callsubr
          -3 150 rmoveto
          3 callgsubr
          285 callgsubr
          vhcurveto
          endchar
        </CharString>
        <CharString name="infinity">
          219 521 162 rmoveto
          -44 -37 34 48 -28 hvcurveto
          75 86 79 73 36 hhcurveto
          16 12 -13 -23 -82 -51 -112 -69 hvcurveto
          -366 7 rmoveto
          -24 -10 14 17 39 52 140 62 53 19 -66 -39 23 hvcurveto
          -58 -68 -64 -47 -43 hhcurveto
          460 312 rmoveto
          -53 -93 -85 -81 -92 hvcurveto
          63 -15 -47 90 -85 hhcurveto
          -116 -82 -186 -85 -63 69 -48 60 52 74 53 62 75 hvcurveto
          -66 38 53 -52 80 hhcurveto
          104 91 148 126 64 -56 60 -57 hvcurveto
          endchar
        </CharString>
        <CharString name="integral">
          -49 508 695 rmoveto
          44 -51 43 -39 -101 -26 -72 -376 -86 vhcurveto
          -305 -70 -13 -82 -42 -35 -14 37 -14 hhcurveto
          -9 -6 -8 -18 -44 51 -42 39 100 32 86 368 82 hvcurveto
          310 68 22 71 31 43 8 -38 14 hhcurveto
          9 7 8 18 hvcurveto
          endchar
        </CharString>
        <CharString name="iogonek">
          -273 90 25 rmoveto
          9 7 7 13 7 21 rrcurveto
          61 190 42 159 29 vvcurveto
          27 -27 40 -26 -25 -9 -71 -168 -40 vhcurveto
          -17 -73 -24 -79 -11 -57 -2 -13 4 -12 6 -8 -4 -2 -3 -2 -3 -2 87 callgsubr
          370 callsubr
          rrcurveto
          endchar
        </CharString>
        <CharString name="itfLogo">
          1115 147 hmoveto
          219 callgsubr
          236 -634 rmoveto
          219 callgsubr
          236 -634 rmoveto
          219 callgsubr
          -410 vmoveto
          196 185 -196 hlineto
          endchar
        </CharString>
        <CharString name="itfStar">
          139 663 452 rmoveto
          -28 -200 -6 -2 -34 hvcurveto
          -66 246 -8 -27 -53 -188 -8 -31 rlinecurve
          -261 8 25 -15 168 -108 28 -17 rlinecurve
          -96 -247 24 20 152 128 29 20 rlinecurve
          204 -168 -11 28 -71 189 -12 30 rlinecurve
          endchar
        </CharString>
        <CharString name="j">
          -279 283 601 rmoveto
          34 -38 74 -25 -22 -26 -30 -24 -29 52 -51 32 11 16 12 14 vhcurveto
          -152 -139 rmoveto
          -356 -95 -31 -282 -77 hhcurveto
          -25 -20 16 25 -20 hvcurveto
          24 -21 -18 28 -15 hhcurveto
          -13 -17 -31 -17 -36 74 -78 71 76 52 51 106 28 hvcurveto
          87 342 46 159 30 vvcurveto
          34 -32 35 -21 -1 vhcurveto
          -10 -8 -12 -37 -11 hvcurveto
          endchar
        </CharString>
        <CharString name="k">
          -64 420 511 rmoveto
          -29 -123 -147 -213 -148 348 callgsubr
          -19 -4 -8 -20 -156 -63 -266 -66 -259 vhcurveto
          -24 -3 33 325 callgsubr
          15 9 16 hvcurveto
          32 -137 29 108 vvcurveto
          77 113 90 61 390 callgsubr
        </CharString>
        <CharString name="l">
          -288 150 219 96 callgsubr
        </CharString>
        <CharString name="lacute">
          -299 343 981 -67 callgsubr
          -195 -762 96 callgsubr
        </CharString>
        <CharString name="lcaron">
          -85 180 callsubr
          133 346 rmoveto
          46 95 64 74 40 -38 33 -40 -21 -29 -22 -21 -27 37 3 15 -25 hvcurveto
          -12 -45 -75 -28 -29 vvcurveto
          -13 10 -4 12 vhcurveto
          endchar
        </CharString>
        <CharString name="less">
          6 491 542 rmoveto
          -71 -243 -123 -52 -62 hvcurveto
          -16 -13 -18 -41 -21 vvcurveto
          -61 288 -134 70 24 14 6 15 vhcurveto
          36 -289 110 40 vvcurveto
          32 222 97 96 36 vhcurveto
          18 7 15 5 15 vvcurveto
          13 -16 33 -32 vhcurveto
          endchar
        </CharString>
        <CharString name="lessequal">
          -10 463 560 rmoveto
          -77 -216 -65 -49 -65 hvcurveto
          -18 -12 -20 -37 -20 vvcurveto
          -61 291 -86 66 28 13 8 16 vhcurveto
          36 -300 71 25 vvcurveto
          31 196 40 118 30 vhcurveto
          19 5 14 7 15 vvcurveto
          13 -17 33 -32 vhcurveto
          -9 -463 rmoveto
          21 -97 17 -109 30 vhcurveto
          28 -108 -47 24 -22 hhcurveto
          -19 -23 -25 -22 -25 240 -70 130 27 28 8 14 hvcurveto
          endchar
        </CharString>
        <CharString name="logicalnot">
          -37 26 483 rmoveto
          -13 -5 -6 -13 -25 44 -43 55 hvcurveto
          122 100 3 66 hhcurveto
          28 42 -5 -17 hvcurveto
          -103 -116 -152 -25 vvcurveto
          -11 8 -7 12 58 127 212 83 41 -20 44 -33 10 vhcurveto
          9 -35 -80 1 -83 -175 -69 4 -33 hhcurveto
          endchar
        </CharString>
        <CharString name="lozenge">
          -111 249 580 rmoveto
          -36 -127 -190 -63 -24 63 -148 23 -47 hvcurveto
          -11 6 39 -11 19 hhcurveto
          36 126 183 77 12 -11 18 -18 42 hvcurveto
          -29 71 -11 52 -16 17 rrcurveto
          11 -11 -35 11 -18 hhcurveto
          86 -235 rmoveto
          -26 -65 -38 -71 -57 -59 -13 40 -32 92 -15 36 20 59 37 67 55 56 16 -40 27 -69 26 -46 rrcurveto
          endchar
        </CharString>
        <CharString name="lslash">
          -171 261 460 rmoveto
          17 95 10 88 64 vvcurveto
          39 -47 45 -19 -16 -3 -9 -23 1 vhcurveto
          -99 -15 -108 -22 -116 vhcurveto
          -77 -20 -52 -21 4 -18 3 -17 33 -25 27 7 12 3 14 5 20 8 -19 -90 -23 -94 -21 -96 rrcurveto
          -23 -2 34 -40 19 hhcurveto
          18 27 107 97 26 hvcurveto
          14 58 14 59 11 59 101 35 31 14 -4 19 -3 15 -16 3 -47 -10 rrcurveto
          endchar
        </CharString>
        <CharString name="m">
          263 678 511 rmoveto
          -64 -73 -79 -154 -79 hvcurveto
          10 40 4 42 28 vvcurveto
          56 -62 67 -29 -78 -71 -129 -226 -121 vhcurveto
          36 110 30 112 68 vvcurveto
          30 -35 39 -30 -37 33 -118 -165 -48 vhcurveto
          -18 -62 -15 -51 -8 -42 rrcurveto
          -21 -3 36 -41 20 hhcurveto
          20 52 89 72 47 hvcurveto
          158 101 36 78 39 hhcurveto
          13 16 -20 -30 hvcurveto
          -153 -70 -107 -40 vvcurveto
          -19 27 -27 15 28 42 106 47 29 vhcurveto
          157 94 50 86 39 hhcurveto
          12 7 -19 -39 hvcurveto
          -129 -68 -115 -65 vvcurveto
          -21 7 -9 14 64 65 260 100 71 -37 65 -40 vhcurveto
          endchar
        </CharString>
        <CharString name="macron">
          38 594 rmoveto
          3 callgsubr
          285 callgsubr
          vhcurveto
          endchar
        </CharString>
        <CharString name="minus">
          67 102 280 rmoveto
          161 328 28 54 16 -29 6 -40 -48 -112 -11 -7 -87 hvcurveto
          -8 -100 -88 4 373 callsubr
          endchar
        </CharString>
        <CharString name="multiply">
          -45 503 504 rmoveto
          19 -31 26 -20 -35 -62 -73 -97 -93 vhcurveto
          -40 55 -31 49 27 vvcurveto
          23 -56 16 -32 -15 -3 -8 -12 -25 55 -92 66 -90 vhcurveto
          -93 -91 -72 -45 -18 vvcurveto
          -16 27 -28 24 22 62 62 75 77 vhcurveto
          -76 61 62 -61 33 hhcurveto
          14 11 8 14 18 -63 74 -61 79 hvcurveto
          94 92 99 82 13 vvcurveto
          endchar
        </CharString>
        <CharString name="n">
          0 388 511 -42 callsubr
        </CharString>
        <CharString name="nacute">
          -1 491 663 148 callgsubr
          30 -72 -42 callsubr
        </CharString>
        <CharString name="ncaron">
          -1 321 553 50 callsubr
          86 -42 -42 callsubr
        </CharString>
        <CharString name="nine">
          -45 207 360 rmoveto
          -31 -28 21 34 75 105 152 74 26 14 -23 -28 hvcurveto
          -25 -9 -22 -20 vvcurveto
          -9 8 -7 15 -2 vhcurveto
          -56 -40 -56 -90 -78 hhcurveto
          230 191 rmoveto
          5 16 2 18 18 vvcurveto
          59 -38 64 -75 -123 -139 -181 -125 -66 65 -70 68 41 47 22 32 43 vhcurveto
          -29 -92 -23 -101 -65 vvcurveto
          -42 10 -34 24 1 vhcurveto
          29 13 164 156 51 hvcurveto
          20 60 38 83 3 28 3 31 -13 20 -22 4 rrcurveto
          endchar
        </CharString>
        <CharString name="notequal">
          60 408 409 rmoveto
          122 18 67 7 24 vvcurveto
          24 -47 6 -42 1 vhcurveto
          -14 -30 -1 -2 -38 hvcurveto
          25 59 rlineto
          10 28 7 21 14 vvcurveto
          17 -9 9 -14 -27 -31 -51 -102 -45 vhcurveto
          -118 -8 -134 -15 -1 -22 rrcurveto
          -17 20 -36 19 23 80 7 7 75 vhcurveto
          -18 -43 -30 -71 rlineto
          -103 -10 -96 -13 -13 vvcurveto
          -1 -16 19 -37 18 -1 24 -1 51 3 53 4 rrcurveto
          -27 -62 -15 -39 -18 vvcurveto
          -13 10 -12 14 18 36 62 90 42 vhcurveto
          13 1 12 2 10 1 183 25 51 12 1 25 rrcurveto
          18 -29 7 -45 2 vhcurveto
          -17 -65 -3 -6 -75 hvcurveto
          17 37 17 39 17 40 rrcurveto
          endchar
        </CharString>
        <CharString name="ntilde">
          -1 207 566 rmoveto
          344 callgsubr
          hvcurveto
          29 callgsubr
          185 callsubr
          vhcurveto
          200 -55 -42 callsubr
        </CharString>
        <CharString name="numbersign">
          123 337 474 rmoveto
          42 5 37 5 34 4 -16 -71 -19 -79 -18 -81 -45 -3 -50 -4 -46 -5 22 82 20 77 16 67 rrcurveto
          -82 -311 rmoveto
          16 2 17 3 18 2 35 5 32 4 29 3 -10 -43 -10 -43 -8 -41 rrcurveto
          -29 -2 16 -31 18 hhcurveto
          20 18 46 91 26 hvcurveto
          16 61 rlineto
          99 13 47 10 22 vvcurveto
          15 1 -9 13 -56 hhcurveto
          -14 -22 0 -1 -26 hvcurveto
          23 87 21 82 16 69 rrcurveto
          81 11 40 10 20 vvcurveto
          16 1 -10 13 -54 hhcurveto
          -11 -14 0 -1 -18 hvcurveto
          7 36 4 29 19 vvcurveto
          40 -50 35 -18 -17 -2 -10 -22 -31 -6 -45 -10 -55 vhcurveto
          -42 -2 -46 -4 -45 -4 rrcurveto
          9 43 5 34 21 vvcurveto
          40 -51 35 -17 -17 -3 -10 -22 1 vhcurveto
          -37 -8 -53 -12 -63 vhcurveto
          -75 -11 -56 -16 -20 vvcurveto
          -19 17 -30 17 vhcurveto
          11 -1 27 5 40 6 -16 -70 -19 -77 -18 -77 rrcurveto
          -66 -11 -48 -14 -19 vvcurveto
          -19 18 -30 16 9 21 3 4 29 vhcurveto
          -6 -29 -6 -28 -6 -28 rrcurveto
          -37 -3 21 -33 19 hhcurveto
          19 14 54 91 27 hvcurveto
          endchar
        </CharString>
        <CharString name="o">
          -80 137 callsubr
          endchar
        </CharString>
        <CharString name="oacute">
          -81 420 741 -67 callgsubr
          -3 -398 -60 callgsubr
          endchar
        </CharString>
        <CharString name="ocircumflex">
          -81 395 173 callsubr
          22 -338 -60 callgsubr
          endchar
        </CharString>
        <CharString name="odieresis">
          -81 293 605 -21 callgsubr
          -27 -262 -60 callgsubr
          endchar
        </CharString>
        <CharString name="oe">
          373 227 289 -59 callgsubr
          341 -428 rmoveto
          -30 15 -8 37 38 vvcurveto
          104 71 146 97 27 vhcurveto
          29 -19 14 -48 -42 vvcurveto
          -90 -70 -148 -103 -20 vhcurveto
          116 428 rmoveto
          -120 -120 -177 -157 -90 50 -72 69 144 118 172 156 85 -56 83 -85 hvcurveto
          endchar
        </CharString>
        <CharString name="ogonek">
          30 -23 rmoveto
          370 callsubr
          -13 14 -26 0 -18 -13 87 callgsubr
          endchar
        </CharString>
        <CharString name="ograve">
          135 callsubr
          -93 282 rmoveto
          228 callgsubr
          110 -80 rcurveline
          7 callgsubr
          rrcurveto
          endchar
        </CharString>
        <CharString name="ohungarumlaut">
          -81 335 768 -14 callgsubr
          -78 -414 -60 callgsubr
          endchar
        </CharString>
        <CharString name="omacron">
          -81 325 594 rmoveto
          3 callgsubr
          285 callgsubr
          vhcurveto
          92 -251 -60 callgsubr
          endchar
        </CharString>
        <CharString name="one">
          -219 220 343 rmoveto
          31 122 16 101 4 81 2 25 -44 52 -31 2 rrcurveto
          -11 -10 -8 -23 -2 hvcurveto
          -22 -356 -80 -187 -4 -76 -3 -34 27 -33 20 -2 34 -2 28 167 45 171 rrcurveto
          endchar
        </CharString>
        <CharString name="onehalf">
          254 147 297 rmoveto
          22 -1 15 110 20 111 15 74 10 67 1 53 rrcurveto
          16 -41 35 -20 -8 -8 -5 -15 vhcurveto
          -5 -235 -41 -114 -2 -51 rrcurveto
          -23 28 -22 14 vhcurveto
          414 460 rmoveto
          -13 3 -3 -8 -12 -18 -268 -378 -200 -276 -10 -48 -5 -17 21 -25 16 -4 16 -4 57 80 171 246 123 174 132 150 12 52 6 29 -28 41 -15 3 rrcurveto
          76 -687 rmoveto
          -32 -97 -17 -9 -56 hvcurveto
          112 67 114 104 111 vvcurveto
          62 -42 53 -72 -63 -64 -54 -34 -15 35 -19 12 vhcurveto
          15 24 51 45 hhcurveto
          24 14 -19 -30 hvcurveto
          -124 -234 -114 -41 vvcurveto
          -30 41 -30 27 52 191 34 34 18 -21 2 -25 vhcurveto
          endchar
        </CharString>
        <CharString name="onequarter">
          250 161 297 rmoveto
          23 -1 14 110 21 111 rrcurveto
          14 74 11 67 53 vvcurveto
          16 -41 35 -20 -7 -9 -5 -15 vhcurveto
          -4 -235 -42 -114 -2 -51 rrcurveto
          -23 29 -22 13 vhcurveto
          415 460 rmoveto
          -13 3 -3 -8 -13 -18 -267 -378 -200 -276 -11 -48 -4 324 callgsubr
          133 150 11 52 7 29 -28 41 -15 330 callgsubr
          -10 -33 -46 -25 -42 318 callgsubr
          -146 -189 -82 -56 40 -35 59 35 40 9 13 32 vhcurveto
          -17 -71 -21 -49 -25 vvcurveto
          -18 11 -20 16 39 65 243 75 21 -37 32 -15 vhcurveto
          endchar
        </CharString>
        <CharString name="onesuperior">
          -379 158 529 rmoveto
          12 57 9 54 41 vvcurveto
          12 -34 31 -15 vhcurveto
          -8 1 -6 -6 -14 vvcurveto
          -5 -183 -32 -90 -1 -40 rrcurveto
          -20 19 -18 12 -1 vhcurveto
          22 -1 11 89 16 88 rrcurveto
          endchar
        </CharString>
        <CharString name="ordfeminine">
          -59 200 473 rmoveto
          -26 -12 14 26 61 66 130 68 28 19 -26 -23 4 hvcurveto
          -110 -30 -70 -72 -47 hhcurveto
          206 193 rmoveto
          37 -51 68 -61 -120 -81 -182 -79 -47 50 -54 53 43 47 31 44 36 vhcurveto
          -41 4 19 -34 19 hhcurveto
          19 -4 36 48 2 hvcurveto
          3 62 16 49 23 vvcurveto
          2 0 3 -1 3 vhcurveto
          4 11 3 11 9 vvcurveto
          endchar
        </CharString>
        <CharString name="ordmasculine">
          -81 403 622 rmoveto
          67 -38 82 -73 -107 -77 -113 -104 -71 43 -72 60 119 73 120 91 vhcurveto
          -227 -71 rmoveto
          65 38 76 77 19 vhcurveto
          33 -16 12 -34 -40 vvcurveto
          -76 -49 -65 -73 -12 vhcurveto
          -23 17 -15 29 37 vvcurveto
          endchar
        </CharString>
        <CharString name="oslash">
          -81 370 351 rmoveto
          -92 -92 -177 -113 -5 vhcurveto
          -12 3 -11 7 -8 11 47 51 73 82 116 129 rrcurveto
          -3 0 -3 -3 vvcurveto
          -257 -184 rmoveto
          104 95 169 98 10 vhcurveto
          13 -3 12 -8 10 -12 -32 -35 -37 -46 -47 -54 -41 -48 -38 -44 -33 -38 rrcurveto
          326 275 rmoveto
          29 33 7 13 10 vvcurveto
          12 -9 8 -12 -20 -21 -13 -23 -25 vhcurveto
          21 -22 -29 13 -33 hhcurveto
          -137 -131 -183 -151 -31 8 -29 13 -25 hvcurveto
          -23 -29 -14 -21 -8 vvcurveto
          -10 4 -9 16 9 11 6 29 28 vhcurveto
          -22 23 27 -13 27 hhcurveto
          145 134 176 152 28 -6 28 -11 24 hvcurveto
          endchar
        </CharString>
        <CharString name="otilde">
          135 callsubr
          -17 264 rmoveto
          185 callsubr
          344 callgsubr
          vhcurveto
          29 callgsubr
          endchar
        </CharString>
        <CharString name="p">
          -55 104 95 rmoveto
          23 93 rlineto
          -1 vlineto
          158 58 111 83 42 hhcurveto
          29 10 -40 -43 -124 -156 -126 -107 hvcurveto
          244 419 rmoveto
          -59 -66 -43 -74 -56 hvcurveto
          3 16 1 12 8 vvcurveto
          51 -2 -48 34 -19 hhcurveto
          -18 -3 -10 -20 -1 hvcurveto
          -12 -249 -116 -362 -58 vvcurveto
          -23 26 -38 19 24 34 172 92 21 vhcurveto
          -3 11 12 -2 15 hhcurveto
          139 201 180 141 85 -47 91 -59 hvcurveto
          endchar
        </CharString>
        <CharString name="paragraph">
          -12 70 466 rmoveto
          -44 44 -54 50 27 30 15 22 28 vhcurveto
          -31 -130 -37 -125 -20 -90 rrcurveto
          -21 -3 31 -24 16 hhcurveto
          16 30 102 97 29 hvcurveto
          48 177 39 188 3 117 rrcurveto
          4 0 4 -1 4 vhcurveto
          52 10 26 4 16 5 -17 -189 -60 -231 -60 -247 rrcurveto
          -21 -3 31 -24 16 hhcurveto
          15 31 102 97 29 hvcurveto
          47 177 39 189 4 117 2 37 -33 41 -17 6 rrcurveto
          4 -10 -16 2 -19 hhcurveto
          -44 -105 -11 -21 -47 hvcurveto
          -103 -44 -73 -149 -96 vvcurveto
          endchar
        </CharString>
        <CharString name="parenleft">
          -48 169 261 rmoveto
          366 382 147 55 vvcurveto
          23 -25 23 -24 -72 -350 -241 -362 -245 215 -126 121 20 9 9 12 vhcurveto
          56 -276 26 257 vvcurveto
          endchar
        </CharString>
        <CharString name="parenright">
          -29 -5 -87 rmoveto
          60 370 255 403 1 hvcurveto
          166 2 -119 124 -81 hhcurveto
          -31 -25 -13 -30 hvcurveto
          -58 161 -12 -211 -355 -365 -205 -44 vvcurveto
          -13 5 -7 22 vhcurveto
          endchar
        </CharString>
        <CharString name="partialdiff">
          253 callsubr
          61 627 rmoveto
          304 callgsubr
          43 -41 27 -65 7 -84 264 callgsubr
          167 -101 147 -99 hvcurveto
          endchar
        </CharString>
        <CharString name="percent">
          357 8 callsubr
          endchar
        </CharString>
        <CharString name="period">
          -296 56 83 170 callsubr
          endchar
        </CharString>
        <CharString name="periodcentered">
          -296 56 334 170 callsubr
          endchar
        </CharString>
        <CharString name="perthousand">
          662 8 callsubr
          266 -314 rmoveto
          -27 -13 34 34 80 62 88 37 20 20 -37 -55 -75 -64 -69 -35 hvcurveto
          65 314 rmoveto
          -90 -95 -128 -125 -69 48 -71 57 93 99 115 115 79 -45 84 -67 hvcurveto
          endchar
        </CharString>
        <CharString name="pi">
          184 491 465 rmoveto
          -24 -73 -13 -93 -72 vvcurveto
          -132 52 -80 57 23 18 11 16 vhcurveto
          39 -67 4 142 vvcurveto
          144 34 53 11 51 vhcurveto
          98 4 44 7 27 vvcurveto
          35 1 -57 12 -83 hhcurveto
          -80 3 -426 -8 -48 vvcurveto
          -20 29 -36 21 23 38 3 3 49 vhcurveto
          -2 -47 -1 -70 -17 -75 rrcurveto
          -43 -176 -55 2 -33 vvcurveto
          -26 24 -17 28 62 89 212 193 14 -2 15 -4 14 vhcurveto
          52 4 59 4 65 2 rrcurveto
          endchar
        </CharString>
        <CharString name="plus">
          67 606 362 rmoveto
          16 -28 6 -41 -34 -65 -5 -6 -66 vhcurveto
          14 61 9 42 1 28 1 21 -51 51 -25 1 rrcurveto
          -11 -9 -8 -21 -1 hvcurveto
          -6 -74 -6 -60 -6 -49 rrcurveto
          -7 -97 -83 4 -19 hhcurveto
          -18 -10 -7 -15 -25 28 -35 34 43 54 2 4 57 hvcurveto
          -13 -79 -10 -39 -2 -33 rrcurveto
          -33 -2 29 -32 19 hhcurveto
          21 -1 9 68 32 156 rrcurveto
          131 13 121 23 33 vvcurveto
          endchar
        </CharString>
        <CharString name="plusminus">
          67 287 139 rmoveto
          -6 -72 -85 -1 -31 hhcurveto
          -14 -6 -7 -10 -19 26 -36 28 79 349 16 57 30 -141 -13 -133 -11 hvcurveto
          251 348 rmoveto
          -29 -54 -4 -5 -56 hvcurveto
          10 51 7 35 1 23 rrcurveto
          20 1 -49 46 -23 hhcurveto
          -10 1 -9 -8 -1 -19 -3 -58 -5 -52 -6 -46 rrcurveto
          -7 -88 -77 3 -18 hhcurveto
          -16 -10 -6 -14 -23 30 -39 31 38 48 2 4 50 hvcurveto
          -11 -64 -9 -46 -2 -26 rrcurveto
          -29 -2 30 -30 18 hhcurveto
          19 13 76 126 26 hvcurveto
          117 13 105 22 29 vvcurveto
          17 -24 8 -42 vhcurveto
          endchar
        </CharString>
        <CharString name="product">
          -34 343 751 rmoveto
          -124 -90 -6 -43 hvcurveto
          -144 -102 -425 -56 vvcurveto
          -23 31 -37 16 34 89 469 171 16 vhcurveto
          74 14 85 7 78 1 rrcurveto
          -8 -152 -93 -402 -48 vvcurveto
          -23 30 -37 17 42 98 582 51 89 -62 12 -131 vhcurveto
          endchar
        </CharString>
        <CharString name="q">
          -59 396 -78 rmoveto
          -21 -43 -16 -33 -49 hvcurveto
          84 236 64 145 37 vvcurveto
          17 -39 26 -18 -13 -6 -3 -12 -3 vhcurveto
          -36 -140 -122 -84 -64 3 rrcurveto
          -20 -16 17 21 83 140 212 93 hvcurveto
          37 21 -45 27 hhcurveto
          12 5 10 11 36 -56 68 -60 -139 -158 -250 -120 -56 65 -70 53 39 58 27 45 47 hvcurveto
          -65 -178 -28 -69 -23 vvcurveto
          -24 20 -38 21 20 55 52 42 73 vhcurveto
          35 21 17 13 -3 15 rrcurveto
          10 -1 -11 14 -15 hhcurveto
          endchar
        </CharString>
        <CharString name="question">
          -9 497 636 rmoveto
          96 -71 56 -88 -82 -78 -67 -74 -22 35 -40 13 12 14 6 4 5 vhcurveto
          8 12 -7 6 21 vvcurveto
          39 37 28 42 38 35 -27 -42 vhcurveto
          -108 -201 -97 -124 vvcurveto
          -34 8 -30 17 20 11 31 51 22 vhcurveto
          42 100 168 96 119 vvcurveto
          -362 -553 rmoveto
          -31 54 -55 33 13 16 16 9 29 -40 92 -25 -24 -27 -36 -24 vhcurveto
          endchar
        </CharString>
        <CharString name="questiondown">
          -153 -3 60 rmoveto
          -96 71 -56 88 82 78 67 74 22 -35 40 -13 -12 -14 -6 -4 -5 vhcurveto
          -8 -12 7 -6 -21 vvcurveto
          -39 -37 -28 -42 -38 -35 27 42 vhcurveto
          108 201 97 124 vvcurveto
          34 -8 30 -17 -20 -11 -31 -51 -22 vhcurveto
          -42 -100 -168 -96 -119 vvcurveto
          362 553 rmoveto
          31 -54 55 -33 -13 -16 -16 -9 -29 40 -92 25 24 27 36 24 vhcurveto
          endchar
        </CharString>
        <CharString name="quotedbl">
          -202 144 803 rmoveto
          13 -38 30 -15 -8 -5 386 callsubr
          20 -20 14 29 21 204 46 vhcurveto
          169 hmoveto
          13 -37 30 -15 -8 -6 386 callsubr
          21 -20 13 30 20 204 46 vhcurveto
          endchar
        </CharString>
        <CharString name="quotedblbase">
          67 9 -176 95 callgsubr
        </CharString>
        <CharString name="quotedblleft">
          -43 498 845 rmoveto
          -49 -107 292 callsubr
          -10 6 -15 vhcurveto
          -216 hmoveto
          -49 -106 -102 -86 -61 44 -43 53 29 30 22 22 hvcurveto
          36 -70 -5 51 69 95 46 31 vvcurveto
          14 -10 6 -16 vhcurveto
          endchar
        </CharString>
        <CharString name="quotedblright">
          -43 231 callgsubr
          215 hmoveto
          49 106 101 87 60 -45 44 -52 -30 -29 -23 -22 hvcurveto
          -35 70 5 -51 -70 -94 -46 -31 vvcurveto
          -13 8 -6 17 vhcurveto
          endchar
        </CharString>
        <CharString name="quoteleft">
          -259 274 845 rmoveto
          -49 -106 292 callsubr
          -9 6 -17 vhcurveto
          endchar
        </CharString>
        <CharString name="quoteright">
          -259 231 callgsubr
          endchar
        </CharString>
        <CharString name="quotesinglbase">
          -125 9 -176 95 callgsubr
        </CharString>
        <CharString name="quotesingle">
          -240 233 803 rmoveto
          13 -42 30 -15 -8 -5 -6 -13 vhcurveto
          -107 -23 -104 -25 vvcurveto
          -18 21 -20 13 vhcurveto
          28 -9 31 215 44 vvcurveto
          endchar
        </CharString>
        <CharString name="r">
          -202 316 505 28 callgsubr
          51 49 69 29 58 29 -22 40 -59 -11 rrcurveto
          endchar
        </CharString>
        <CharString name="racute">
          -207 325 505 28 callgsubr
          51 49 69 29 58 29 -22 40 -59 -11 rrcurveto
          -85 131 24 callsubr
        </CharString>
</ttFont>
